<?xml version="1.0" encoding="utf-8"?>
<!DOCTYPE svg PUBLIC "-//W3C//DTD SVG 1.1//EN" "http://www.w3.org/Graphics/SVG/1.1/DTD/svg11.dtd">
<svg version="1.1" id="svg5335" xmlns:svg="http://www.w3.org/2000/svg"
	 xmlns="http://www.w3.org/2000/svg" xmlns:xlink="http://www.w3.org/1999/xlink" x="0px" y="0px" width="300px" height="106px"
	 viewBox="0 0 300 106" enable-background="new 0 0 300 106" xml:space="preserve">
<g id="layer1" transform="translate(-447.19786,-496.71933)">
	<path id="path32" fill="#FFFFFF" d="M447.363,549.719c0,28.95,23.558,52.5,52.519,52.5c28.953,0,52.511-23.55,52.511-52.5
		s-23.558-52.5-52.511-52.5C470.921,497.219,447.363,520.769,447.363,549.719"/>
	<path id="path34" fill="#ED1B2E" d="M550.023,549.719c0,27.675-22.459,50.138-50.142,50.138s-50.142-22.463-50.142-50.138
		s22.459-50.138,50.142-50.138S550.023,522.045,550.023,549.719"/>
	<path id="path36" fill="#004C5F" d="M499.851,499.582c-27.675,0.038-50.111,22.462-50.111,50.138
		c0,16.463,7.946,31.088,20.209,40.237L499.851,499.582"/>
	<path id="path38" fill="#FFFFFF" d="M488.98,532.244h-35.46l28.62,20.7L488.98,532.244"/>
	<path id="path40" fill="#FFFFFF" d="M499.882,499.582l-10.867,32.663h23.036L499.882,499.582"/>
	<path id="path42" fill="#FFFFFF" d="M482.133,552.944l-11.91,36.113l29.659-22.125l32.205,21.6l-12.251-35.625l26.932-20.663
		L482.133,552.944"/>
	<path id="path72" fill="#004C5F" d="M603.557,566.856l13.013-34.687h7.561l12.746,34.687h-7.785l-8.73-25.875l-8.599,25.875
		H603.557"/>
	<path id="path74" fill="#004C5F" d="M612.787,566.856l7.574-6.074l7.448,6.074H612.787"/>
	<path id="path76" fill="#004C5F" d="M640.878,532.169h7.628v28.35h12.037v6.337h-19.665V532.169"/>
	<path id="path78" fill="#004C5F" d="M657.599,532.169h24.543v6.263h-8.583v28.5h-7.801v-28.5h-8.159V532.169"/>
	<path id="path80" fill="#004C5F" d="M687.048,532.244h19.32v6.188h-11.771v7.65h11.093v6.263h-11.093v8.1h15.079l-5.16,6.488
		h-17.468V532.244"/>
	<path id="path82" fill="#004C5F" d="M712.492,532.244h10.005l5.561,9.712l5.438-9.712h9.976l-10.864,15.75l14.427,18.938h-9.675
		l-9.022-12.338l-9.24,12.338h-9.758l14.183-18.863L712.492,532.244"/>
	<path id="path84" fill="#004C5F" d="M601.233,541.432v-7.575c-8.408-3.938-17.243-1.162-22.658,7.163
		c-3.848,6.6-3.337,13.125,1.53,19.649c4.208,5.213,11.19,7.838,21.128,5.4v-7.987c-6.267,3.338-13.598,1.875-16.53-3.263
		c-3.259-7.837,1.264-15.112,7.594-15.712C595.582,538.844,598.896,539.482,601.233,541.432"/>
</g>
</svg>
