<?xml version="1.0" encoding="utf-8"?>
<!DOCTYPE svg PUBLIC "-//W3C//DTD SVG 1.1//EN" "http://www.w3.org/Graphics/SVG/1.1/DTD/svg11.dtd">
<svg version="1.1" id="Layer_1" xmlns="http://www.w3.org/2000/svg" xmlns:xlink="http://www.w3.org/1999/xlink" x="0px" y="0px"
	 width="400px" height="100px" viewBox="0 0 400 100" enable-background="new 0 0 400 100" xml:space="preserve">
<path fill="#243443" d="M17.693,23.321c-2.281,0-2.832,1.363-2.832,3.923v44.566c0,2.559,0.551,4.021,2.832,4.021
	c2.283,0,2.825-1.463,2.825-4.021V57.016h9.874v14.428c0,8.313-4.383,12.611-12.699,12.611C9.382,84.055,5,79.754,5,71.443V28.07
	c0-8.317,4.382-12.611,12.692-12.611c8.316,0,12.699,4.293,12.699,12.611v13.047h-9.874V27.244
	C20.519,24.684,19.977,23.321,17.693,23.321 M33.955,82.592h9.738V17.027h-9.738V82.592z M91.577,17.033l-3.358,14.66
	c-1.102,4.638-1.646,9.197-1.922,13.929h-0.366c-0.177-6.105-0.809-10.837-1.635-14.206L80.75,17.033H46.765v8.466h8.466v57.093
	h9.735V25.499h8.15l7.635,32.505v24.588h10.012v-24.59l10.018-40.97L91.577,17.033L91.577,17.033L91.577,17.033z"/>
<path fill="#243443" d="M169.987,15.636c8.302,0,12.679,4.289,12.679,12.577v13.048h-9.765V27.405c0-2.555-0.637-3.928-2.914-3.928
	c-2.275,0-2.819,1.374-2.819,3.928v4.737c0,2.825,0.266,4.925,1.27,6.282l10.671,14.592c2.006,2.738,3.559,5.476,3.559,9.854v8.664
	c0,8.301-4.377,12.575-12.679,12.575c-8.294,0-12.588-4.274-12.588-12.575V57.117h9.769v14.77c0,2.561,0.544,4.012,2.819,4.012
	c2.277,0,2.914-1.451,2.914-4.012v-6.824c0-1.918-0.637-3.567-1.64-5.02l-11.12-15.5c-2.101-2.914-2.743-5.662-2.743-9.214v-7.114
	C157.399,19.925,161.692,15.636,169.987,15.636 M192.05,82.646h10.034V58.037l10.021-41.031h-9.214l-3.368,14.677
	c-1.091,4.648-1.635,9.214-1.912,13.951h-0.364c-0.179-6.112-0.82-10.849-1.642-14.223l-3.557-14.405h-9.662l9.662,41.031
	L192.05,82.646L192.05,82.646z M222.595,24.579h2.095c2.466,0,3.651,1.369,3.651,4.283v41.474c0,2.916-1.188,4.289-3.651,4.289
	h-2.095V24.579z M212.838,17.005v65.651h11.58c9.575,0,13.769-3.469,13.769-12.045V29.039c0-8.571-4.192-12.033-13.769-12.033
	L212.838,17.005L212.838,17.005z M242.453,82.658h7.929l-0.272-41.313c0-1.452-0.094-6.925-0.271-16.5h0.637
	c0.548,5.292,1.457,12.4,2.648,21.521l4.736,36.293h14.487V17.005h-8.101l0.268,34.825c0,2.018,0.094,9.484,0.366,22.615h-0.549
	c-1.099-12.033-2.283-22.25-3.376-30.542l-3.646-26.899h-14.858L242.453,82.658L242.453,82.658z M277.081,82.646h21.608v-9.021
	h-11.853V51.098h11.579v-8.657h-11.579v-16.5h11.689l7.563,32.094v24.609h10.027V58.035l10.029-41.03h-9.204l-3.379,14.677
	c-1.092,4.648-1.641,9.208-1.906,13.951h-0.371c-0.177-6.106-0.813-10.849-1.646-14.223l-3.553-14.405h-29.011v65.642H277.081
	L277.081,82.646z"/>
<path fill="#243443" d="M379.133,58.09l-3.042,1.729l2.959-9.086l2.907,9.123L379.133,58.09z M359.823,77.949
	c-8.997-0.012-19.469-7.447-19.469-17.021l0.049-1.25h0.398c1.125,8.055,10.149,13.861,17.979,14.338
	c-0.388-2.117-0.92-5.686-1.215-10.096l2.27-0.076l2.227,0.076c-0.293,4.41-0.925,8.688-1.169,10.096
	c7.834-0.477,16.843-6.271,17.968-14.338h0.405l0.044,1.25C379.311,70.512,368.838,77.949,359.823,77.949 M340.625,50.73
	l2.902,9.123l-2.817-1.764l-3.051,1.729L340.625,50.73z M355.259,51.477l0.293,2.894c-1.694,0.211-3.872,0.599-5.266,0.938
	l-0.382-2.901C351.53,52.018,353.591,51.674,355.259,51.477 M358.55,42.497c0.039-0.276,0.438-3.136,0.485-3.445
	c-1.718-0.35-2.983-1.874-2.983-3.635c0-2.051,1.662-3.729,3.723-3.729c2.051,0,3.724,1.678,3.724,3.729
	c0,1.8-1.297,3.324-3.049,3.645c0.046,0.316,0.444,3.153,0.488,3.43c3.918,0.21,8.693,1.65,8.693,1.65s-4.543,1.347-8.229,1.635
	c0.051,0.366,0.576,4.021,0.576,4.021l-2.205-0.065l-2.266,0.065c0,0,0.521-3.661,0.569-4.033c-3.642-0.298-8.066-1.624-8.066-1.624
	S354.672,42.725,358.55,42.497 M355.242,22.218c0,0,3.201,0.654,3.514,0.726c0.104-0.31,1.137-3.408,1.137-3.408
	s1.03,3.098,1.124,3.408c0.321-0.072,3.513-0.726,3.513-0.726s-2.166,2.438-2.371,2.677c0.205,0.237,2.371,2.682,2.371,2.682
	s-3.189-0.649-3.513-0.715c-0.094,0.299-1.124,3.396-1.124,3.396s-1.03-3.097-1.137-3.396c-0.313,0.066-3.514,0.715-3.514,0.715
	s2.171-2.444,2.383-2.682C357.413,24.657,355.242,22.218,355.242,22.218 M364.03,54.357l0.359-2.894
	c1.718,0.199,3.801,0.576,5.463,0.976l-0.383,2.893C368.091,54.988,365.835,54.58,364.03,54.357 M357.553,51.289l2.283-0.068
	l2.241,0.068v2.891l-2.241-0.066l-2.277,0.066L357.553,51.289z M368.728,60.695l-0.359,2.85c-2.72-0.777-5.732-1.23-8.53-1.23
	c-2.768,0-5.771,0.441-8.439,1.207l-0.354-2.848c2.813-0.764,5.879-1.209,8.794-1.209C362.777,59.465,365.879,59.918,368.728,60.695
	 M359.836,58.268c-2.942,0-6.098,0.455-8.967,1.197l-0.396-2.895c3.008-0.762,6.271-1.207,9.363-1.207
	c3.125,0,6.407,0.445,9.458,1.221l-0.396,2.881C365.995,58.689,362.805,58.268,359.836,58.268 M359.863,14.528
	c-19.563,0-35.426,15.863-35.426,35.415c0,19.573,15.862,35.43,35.426,35.43c19.564,0,35.42-15.857,35.42-35.43
	C395.282,30.391,379.428,14.528,359.863,14.528"/>
<path fill="#243443" d="M361.407,35.417c0-0.898-0.733-1.635-1.639-1.635s-1.641,0.736-1.641,1.635c0,0.908,0.735,1.646,1.641,1.646
	S361.407,36.325,361.407,35.417"/>
<path fill="#243443" d="M114.931,82.338c-7.624,0-11.486-3.836-11.486-11.393V28.612c0-7.558,3.862-11.392,11.486-11.392
	c7.619,0,11.48,3.834,11.48,11.392v42.333C126.411,78.502,122.55,82.338,114.931,82.338 M101.645,70.945
	c0,8.621,4.601,13.188,13.286,13.188c8.688,0,13.281-4.564,13.281-13.188V28.612c0-8.622-4.593-13.197-13.281-13.197
	c-8.687,0-13.286,4.576-13.286,13.197V70.945L101.645,70.945z"/>
<path fill="#243443" d="M114.931,74.313c-1.13,0-1.867-0.209-1.867-3.012V27.82c0-2.737,0.709-2.931,1.867-2.931
	c1.318,0,1.951,0.438,1.951,2.931v43.481C116.881,74.092,116.034,74.313,114.931,74.313 M111.269,71.301
	c0,1.439,0,4.818,3.662,4.818c3.745,0,3.745-3.5,3.745-4.818V27.82c0-1.291,0-4.731-3.745-4.731c-3.662,0-3.662,3.318-3.662,4.731
	V71.301z"/>
<path fill="#243443" d="M133.147,18.562h19.314v6.931h-11.58v17.924H152.2v6.665h-11.319v30.836h-7.734V18.562z M131.354,82.713
	h11.331V51.875h11.319V41.627h-11.319V27.293h11.585V16.761h-22.916V82.713z"/>
</svg>
