<?xml version="1.0" encoding="utf-8"?>
<!DOCTYPE svg PUBLIC "-//W3C//DTD SVG 1.1//EN" "http://www.w3.org/Graphics/SVG/1.1/DTD/svg11.dtd">
<svg version="1.1"
	 id="svg2" xmlns:dc="http://purl.org/dc/elements/1.1/" xmlns:sodipodi="http://sodipodi.sourceforge.net/DTD/sodipodi-0.dtd" xmlns:inkscape="http://www.inkscape.org/namespaces/inkscape" xmlns:rdf="http://www.w3.org/1999/02/22-rdf-syntax-ns#" xmlns:cc="http://creativecommons.org/ns#" xmlns:svg="http://www.w3.org/2000/svg" inkscape:version="0.91 r13725" sodipodi:docname="Coca-Cola_logo_2016.svg"
	 xmlns="http://www.w3.org/2000/svg" xmlns:xlink="http://www.w3.org/1999/xlink" x="0px" y="0px" width="1000px" height="1000px"
	 viewBox="0 0 1000 1000" enable-background="new 0 0 1000 1000" xml:space="preserve">
<sodipodi:namedview  id="namedview5" borderopacity="1" guidetolerance="10" objecttolerance="10" pagecolor="#ffffff" gridtolerance="10" inkscape:zoom="0.1767767" inkscape:cy="246.60029" showgrid="false" bordercolor="#666666" inkscape:cx="-828.54423" inkscape:current-layer="layer1" inkscape:window-maximized="1" inkscape:window-y="-8" inkscape:window-x="-8" inkscape:pageopacity="0" inkscape:pageshadow="2" inkscape:window-width="1366" inkscape:window-height="705">
	</sodipodi:namedview>
<g id="layer1" transform="translate(-21.61104,443.42501)" inkscape:label="Layer 1" inkscape:groupmode="layer">
	<circle id="path4148" fill="#E30613" cx="521.611" cy="56.575" r="500"/>
	<path id="path152" inkscape:connector-curvature="0" fill="#FFFFFF" d="M392.596,167.92c23.579-0.921,49.544,5.684,70.876,20.645
		c-7.126-10.266-27.223-25.316-44.027-35.712c-17.063-10.518-38.942-17.285-64.069-17.498
		c-64.756-0.548-135.252,30.911-183.035,31.33c-56.313,0.497-59.123-42.854-54.948-66.646
		c8.986-51.259,45.347-100.172,68.735-125.946c23.389-25.798,47.89-45.816,68.261-50.931c20.348-5.113,18.442,10.379,15.944,12.514
		c-2.576,0.023-7.5,0.581-10.289,2.515c-4.398,3.063-10.267,8.573-10.624,17.354c-0.615,13.535,16.872,15.927,29.509-12.43
		c8.634-19.32-5.053-32.437-16.409-33.717c-15.575-1.722-39.378,3.705-67.818,21.964C145.24-36.873,79.103,33.736,77.404,112.011
		c-0.968,44.698,28.229,69.809,68.255,69.809c41.726,0,94.41-24.501,147.497-25.11c32.839-0.307,54.109,11.194,64.901,29.989
		C358.058,186.71,368.771,168.91,392.596,167.92 M541.457-20.29h-26.726L499.647,4.166h26.72L541.457-20.29z M936.137-64.196
		c-19.762,12.676-47.152,24.183-73.431,21.646c-6.645,6.919-13.793,14.86-20.957,23.579c45.665,9.031,85.563-19.281,106.839-43.341
		c13.245-15.045,19.801-28.436,19.801-28.436S955.714-76.815,936.137-64.196z M914.553,47.338h-28.145l-4.549,7.081
		c0,0-5.724-10.351-15.447-10.166c-16.66,0.273-33.32,12.972-52.663,35.019c-14.189,16.163-37.724,52.121-37.724,52.121
		s-18.046,27.792-27.184,25.63c-15.548-3.706,13.078-61.297,13.078-61.297s15.05-9.306,34.538-25.736
		c12.284-10.334,26.406-24.54,39.4-37.701c11.798-11.966,25.735-28.251,38.959-46.085c-3.376,0.548-6.852,0.889-10.396,1.112
		c-11.859,15.631-24.54,29.631-35.309,40.758c-16.034,16.56-30.767,30.14-41.497,38.774c-10.249,8.277-16.85,11.988-16.85,11.988
		S790.36,38.597,823.01-5.855c32.655-44.425,78.359-85.753,74.777-66.137c-1.03,5.633-4.505,13.681-9.786,23.237
		c3.728-0.772,7.354-1.716,10.814-2.828c7.857-16.24,10.518-29.631,4.672-33.487c-23.953-15.782-84.898,49.477-115.451,87.43
		c-30.537,37.914-58.201,95.88-58.201,95.88s-4.756,1.99-10.06,2.996c-3.331,0.613-4.756,0.514-5.298,0.29
		c-0.273-0.084-0.291-0.29-0.291-0.29s26.87-50.231-0.63-56.915c-26.554-6.416-72.554,42.686-88.9,76.866
		c-11.232,23.428-17.562,52.937,1.677,59.979c20.832,7.605,56.249-30.447,64.569-41.513c8.34-11.066,18.714-29.425,18.714-29.425
		s5.093-0.29,7.88-0.647c5.303-0.788,7.796-1.451,7.796-1.451s-3.437,9.053-7.167,20.453c-6.957,21.376-13.224,51.912,11.799,53.314
		c15.948,0.889,39.336-27.871,39.336-27.871s-6.308,25.607,14.377,27.871c15.277,1.699,37.513-21.92,37.513-21.92
		s-4.841,20.37,10.646,22.15c13.244,1.519,32.064-13.999,47.488-31.1c16.85-18.673,29.78-39.127,29.78-39.127h-9.809
		c0,0-21.669,32.903-36.884,41.726c-12.512,7.229-8.235-4.359-4.442-10.437c4.191-6.748,56.646-95.835,56.646-95.835L914.553,47.338
		z M700.265,109.329c-0.374,0.889-7.416,13.139-14.961,22.757c-8.108,10.373-22.969,25.987-31.878,22.696
		c-13.955-5.176,1.403-35.545,11.424-50.299c10.06-14.748,11.188-15.737,11.462-16.157c0.29-0.373,0.582-0.756,0.822-0.273
		c0.257,0.481,3.437,6.52,9.769,11.757c6.326,5.304,12.407,8.109,12.91,8.276c0.514,0.182,0.855,0.357,0.481,1.224L700.265,109.329z
		 M706.553,98.364c-0.889,1.458-1.532,1.548-3.331,1.078c-3.247-0.872-16.576-7.064-16.47-20.751
		c0.071-13.346,18.878-26.401,26.255-20.829c6.875,5.22,3.605,18.565,1.03,25.339c-2.6,6.769-6.896,14.229-7.462,15.173
		L706.553,98.364z M834.305,131.376c-3.705,5.069-6.785,9.68-9.596,12.904c-5.991,6.919-9.915,10.127-13.391,10.982
		c-1.761,0.413-3.918,0.308-5.365-0.565c-5.113-3.079-1.531-15.234,7.354-31.498c8.154-14.877,17.56-29.776,33.029-46.877
		c15.509-17.23,21.461-18.024,25.798-17.856c3.666,0.182,4.169,4.002,4.169,4.002s-0.24,0.871-0.839,1.883
		C870.335,73.258,844.531,117.376,834.305,131.376L834.305,131.376z M271.97-23.018c-27.139-6.936-72.218,39.295-91.225,76.89
		c-11.72,23.183-16.85,52.355,4.001,59.939c20.852,7.566,56.245-30.447,64.566-41.513c8.322-11.05,21.964-33.22,21.964-33.22
		s4.169-0.805,6.913-1.429c2.728-0.598,7.171-1.887,7.171-1.887s-5.137,9.158-9.764,18.524c-5.494,11.11-20.416,48.119,8.399,59.207
		c27.497,10.602,66.685-33.616,68.741-34.432c0,0-11.652,30.111,6.455,34.744c19.884,5.075,41.663-20.39,41.663-20.39
		s-4.594,19.11,10.898,20.894c27.742,3.229,76.806-67.713,76.806-67.713h-9.809c0,0-24.959,32.106-36.969,38.771
		c-12.011,6.643-7.69-5.177-4.421-10.437c4.169-6.706,57.189-95.31,57.189-95.31h-28.123l-3.246,5.153c0,0-5.808-8.864-15.51-8.238
		c-28.189,1.828-61.721,46.755-76.476,66.584c-14.731,19.784-46.543,57.608-63.309,50.883c-18.253-7.358-0.084-41.074,11.904-60.881
		c13.077-21.567,36.254-42.921,45.413-43.089c11.272-0.224,6.83,10.021,6.83,10.021s-8.423-1.078-14.52,6.623
		c-4.32,5.426-7.902,13.367-3.795,17.704c6.645,6.98,15.279-0.096,20.433-8.025c16.095-24.623,4.319-37.595-8.316-39.484
		c-26.932-4.04-51.745,30.537-70.585,43.386c-13.078,8.925-18.526,8.216-18.526,8.216s22.673-44.515-4.756-51.495V-23.018z
		 M393.853,56.622c8.131-14.899,19.241-29.257,33.654-47.28C441.949-8.661,449.137-10.13,453.479-9.94
		c3.666,0.208,4.191,4.001,4.191,4.001s-31.375,54.619-42.754,70.25c-3.711,5.092-6.896,9.412-9.686,12.614
		c-5.99,6.941-10.35,10.272-13.703,11.11c-1.738,0.465-3.918,0.325-5.365-0.565C381.05,84.369,384.96,72.884,393.853,56.622
		L393.853,56.622z M260.775,38.888c-0.374,0.855-9.345,15.677-16.867,25.317c-8.115,10.372-23.098,26.049-32.045,22.74
		c-13.955-5.158,0.92-35.377,10.981-50.108c10.037-14.754,11.507-16.66,11.798-17.04c0.29-0.357,0.564-0.733,0.821-0.273
		c0.24,0.465,3.433,7.025,10.352,11.468c6.913,4.421,13.999,6.455,14.502,6.601c0.498,0.208,0.839,0.396,0.481,1.299L260.775,38.888
		z M272.45,15.835c-2.599,6.791-4.924,11.089-5.388,12.095c-0.788,1.613-2.722,1.095-2.722,1.095
		c-2.18-0.083-19.259-3.979-19.158-17.688c0.071-13.346,18.884-26.407,26.262-20.829c6.874,5.22,3.604,18.526,1.029,25.335
		L272.45,15.835z M610.84,44.086c-13.994,1.147-38.746,13.664-52.243,41.076c-13.474,27.391-13.535,44.263-13.535,44.263
		s7.125-7.757,18.001-15.95c10.938-8.17,19.029-11.065,19.029-11.065s2.029-10.037,7.059-20.555
		c4.907-10.228,12.658-20.874,22.276-23.289c19.494-4.879,10.144,30.666-4.146,53.842c-7.69,12.469-34.979,48.286-58.469,48.286
		c-23.495,0-28.022-22.656-23.076-43.82c4.946-21.17,11.798-48.08,46.063-96.947c34.286-48.896,71.385-77.856,92.861-90.034
		c22.048-12.514,31.04-7.02,31.04-7.02s-28.167,17.33-44.179,38.182c-15.318,19.93-24.456,42.38-17.353,53.4
		c6.79,10.479,30.62,10.669,56.876-27.284c25.948-37.411,19.409-59.688,19.409-59.688s3.118-1.046,5.215-1.3
		c12.642-1.696,22.763,1.638,38.455,9.686c16.431,8.422,32.191,21.941,53.78,32.984c6.517-7.125,13.749-14.69,21.377-22.087
		c-29.134-14.167-51.243-34.37-79.807-36.275c-24.853-1.677-44.452,7.377-44.452,7.377s-7.562-10.334-30.95-6.958
		c-23.411,3.372-95.438,33.528-156.758,131.67c-55.435,88.776-29.302,139.64,10.54,139.053c43.189-0.614,84.267-48.665,98.16-88.273
		c13.916-39.585-2.515-50.338-15.174-49.271V44.086z M695.632-38.398c-7.226,17.688-17.934,30.073-28.457,39.501
		c-13.475,12.116-20.896,11.714-24.099,9.267c-8.345-6.371,2.866-30.408,22.36-51.892c19.403-21.416,36.108-28.083,36.108-28.083
		C701.568-69.332,704.351-59.629,695.632-38.398z"/>
</g>
</svg>
