<?xml version="1.0" encoding="utf-8"?>
<!DOCTYPE svg PUBLIC "-//W3C//DTD SVG 1.0//EN" "http://www.w3.org/TR/2001/REC-SVG-20010904/DTD/svg10.dtd">
<svg version="1.0" id="Layer_1" xmlns="http://www.w3.org/2000/svg" xmlns:xlink="http://www.w3.org/1999/xlink" x="0px" y="0px"
	 width="110px" height="110px" viewBox="0 0 110 110" enable-background="new 0 0 110 110" xml:space="preserve">
<circle fill="#FFFFFF" stroke="#282881" stroke-width="12.5" stroke-miterlimit="10" cx="55.279" cy="55.035" r="44.094"/>
<path fill="#FFFFFF" d="M22.442,30.8l-1.938-2.273c-0.813-0.954-1.627-1.895-2.455-2.807c-0.154-0.168-0.169-0.295,0-0.463
	l1.178-1.473l6.146,3.592l0,0l-4.742-5.613c0.309-0.351,0.604-0.702,0.912-1.024c0.076-0.116,0.233-0.148,0.35-0.071
	c0.028,0.019,0.053,0.043,0.07,0.071l5.334,6.61c-0.365,0.435-0.702,0.884-1.096,1.305c-0.215,0.332-0.658,0.427-0.989,0.212
	c-0.026-0.018-0.053-0.037-0.077-0.057L20.351,26c-0.119-0.076-0.253-0.124-0.393-0.141l4.378,5.08
	c-0.435,0.491-0.827,0.997-1.291,1.403c-0.463,0.407-0.659,0.14-0.981,0l-3.916-2.105l-2.988-1.614
	c0.072-0.428,0.303-0.813,0.645-1.081c0.282-0.215,0.673-0.215,0.955,0l2.512,1.403l3.115,1.796h0.084L22.442,30.8z"/>
<path fill="#FFFFFF" d="M77.312,20.261l4.477-4.435c0.49-0.477,0.49-0.491,1.066-0.112c0.336,0.225,0.646,0.478,0.969,0.716
	c0.322,0.239,0.195,0.281,0.098,0.491c-0.936,1.871-1.871,3.742-2.807,5.613c-0.033,0.076-0.033,0.163,0,0.238
	c0.113-0.072,0.221-0.151,0.322-0.238c1.488-1.403,2.961-2.905,4.436-4.378c0.146-0.218,0.443-0.275,0.662-0.127
	c0.014,0.009,0.026,0.019,0.039,0.029c1.024,0.646,1.053,0.729,0.182,1.53l-5.374,5.023c-0.169,0.155-0.295,0.21-0.505,0
	c-0.211-0.21-0.786-0.519-1.165-0.814c-0.379-0.294-0.449-0.575-0.21-1.052l2.483-5.024c0.038-0.1,0.038-0.209,0-0.309l-4.729,4.813
	c-0.52-0.379-1.024-0.73-1.516-1.123c-0.49-0.393-0.238-0.659-0.084-1.01l1.403-3.186l1.67-3.719l0.14-0.267
	c0.418,0.051,0.805,0.244,1.096,0.547c0.309,0.323,0.196,0.674,0,1.01c-0.365,0.786-0.734,1.563-1.109,2.33l-1.67,3.396v0.112
	L77.312,20.261z"/>
<path fill="#FFFFFF" d="M29.149,91.227l4.21-3.607c0.196-0.168,0.351-0.211,0.562,0l1.6,1.15l-4.631,7.803l-1.403-0.969l3.747-6.02
	l0,0l-0.309,0.238c-1.291,1.08-2.582,2.148-3.859,3.229c-0.141,0.154-0.381,0.166-0.535,0.025c-0.01-0.008-0.018-0.018-0.026-0.025
	c-0.378-0.215-0.72-0.49-1.011-0.814c-0.252-0.393,0.154-0.801,0.295-1.193c0.463-1.318,0.955-2.623,1.404-3.928
	c0-0.127,0.069-0.254,0.111-0.379v-0.127l0,0l-0.07,0.098l-4.139,5.277l-0.155,0.168l-1.319-0.996l5.768-7.018
	c0.576,0.449,1.151,0.885,1.698,1.334c0,0,0,0.238,0,0.352c-0.646,1.725-1.305,3.451-1.95,5.178c0,0,0,0.098,0,0.141v0.084H29.149z"
	/>
<path fill="#FFFFFF" d="M79.037,97.064c-0.589,0.266-1.165,0.547-1.754,0.799c-0.112,0.014-0.225-0.021-0.309-0.098l-5.08-4.211
	c-0.108-0.076-0.221-0.146-0.337-0.209l2.877,5.992l-1.488,0.742l-3.83-8.195c0.527-0.4,1.127-0.697,1.768-0.869
	c0.084,0,0.238,0.084,0.337,0.154l5.459,4.645h0.099c-0.253-0.49-0.506-0.939-0.73-1.402c-0.631-1.307-1.248-2.598-1.866-3.916
	c-0.31-0.482-0.17-1.125,0.313-1.436c0.167-0.105,0.36-0.164,0.558-0.164c0.084,0,0.253,0.154,0.295,0.268
	c0.66,1.402,1.305,2.807,1.951,4.209l1.585,3.229L79.037,97.064z"/>
<path fill="#FFFFFF" d="M40.769,95.744c0.488,0.508,0.747,1.191,0.717,1.895c0.019,1.318-1.033,2.402-2.352,2.42
	c-0.279,0.006-0.557-0.039-0.82-0.133c-0.909-0.297-1.8-0.648-2.666-1.051c-0.268-0.113-0.533-0.254-0.801-0.352
	c-0.266-0.098-0.28-0.211-0.182-0.449c0.589-1.432,1.174-2.867,1.754-4.309c0.449-1.137,0.898-2.287,1.402-3.424
	c0.085-0.211,0.197-0.309,0.464-0.197c0.884,0.379,1.796,0.717,2.681,1.096c0.611,0.248,1.131,0.68,1.487,1.234
	c0.609,1.035,0.265,2.369-0.771,2.979c-0.196,0.115-0.41,0.199-0.633,0.25L40.769,95.744z M37.696,95.268l-0.912,2.33
	c0,0.098,0,0.195-0.113,0.322l1.011,0.436c0.194,0.096,0.403,0.156,0.618,0.182c0.297,0.025,0.596-0.021,0.869-0.141
	c0.678-0.375,0.924-1.229,0.549-1.906c-0.128-0.23-0.318-0.422-0.549-0.549C38.706,95.689,38.187,95.506,37.696,95.268z
	 M38.173,94.074c0.506,0.197,0.969,0.408,1.403,0.547c0.435,0.141,0.94-0.111,1.192-0.688c0.253-0.574,0.197-1.051-0.28-1.402
	s-0.954-0.492-1.403-0.744L38.173,94.074z"/>
<path fill="#FFFFFF" d="M16.87,47.485l-0.364,1.586l-8.42-2.021c0.154-0.631,0.294-1.235,0.478-1.81c0-0.098,0.225-0.168,0.35-0.183
	l6.681-1.403l0.168-0.084c-0.646-0.126-1.221-0.225-1.796-0.351c-1.277-0.28-2.555-0.575-3.831-0.884
	c-0.546-0.146-0.871-0.708-0.725-1.254c0.034-0.13,0.095-0.252,0.177-0.359c0-0.07,0.268,0,0.394,0l3.888,0.94h0.279l3.859,0.912
	c-0.029,0.656-0.172,1.302-0.42,1.909c0,0-0.184,0.098-0.281,0.126l-6.693,1.403L16.87,47.485z"/>
<path fill="#FFFFFF" d="M68.484,13.904l-2.933-0.856l-1.025,3.663l-1.67-0.463l2.358-8.419l1.655,0.435l-0.939,3.368l2.961,0.828
	l0.926-3.34l1.67,0.421l-2.344,8.42l-1.684-0.463L68.484,13.904z"/>
<path fill="#FFFFFF" d="M50.255,93.795l1.488,0.309c0.182,0,0.252,0.098,0.211,0.295c-0.352,1.922-0.646,3.857-1.053,5.768
	c-0.135,0.576-0.394,1.117-0.758,1.584c-0.599,0.738-1.547,1.098-2.484,0.941c-0.518-0.045-1.027-0.158-1.516-0.338
	c-1.461-0.553-2.254-2.133-1.824-3.635c0.211-1.262,0.436-2.525,0.66-3.773c0.098-0.563,0.21-1.123,0.294-1.699
	c0-0.266,0.126-0.42,0.421-0.309h0.07c1.039,0.184,1.277,0.533,1.08,1.572c-0.294,1.572-0.574,3.158-0.827,4.744
	c-0.241,0.816,0.226,1.676,1.044,1.916c0.117,0.035,0.237,0.055,0.359,0.063c0.715,0.137,1.416-0.297,1.613-0.998
	c0.238-0.855,0.379-1.754,0.547-2.637c0.169-0.885,0.338-1.895,0.492-2.807C50.157,94.496,50.199,94.188,50.255,93.795z"/>
<path fill="#FFFFFF" d="M44.333,14.662c0.146,1.608-0.864,3.095-2.413,3.55c-1.441,0.571-3.085,0.056-3.943-1.235
	c-0.898-1.167-1.392-2.597-1.403-4.07c0.088-1.943,1.734-3.447,3.678-3.359c0.823,0.037,1.607,0.362,2.216,0.918
	C43.563,11.601,44.224,13.087,44.333,14.662z M42.636,14.984c-0.152-1.229-0.639-2.394-1.404-3.368
	c-0.404-0.63-1.203-0.878-1.895-0.589c-0.725,0.243-1.174,0.969-1.066,1.726c0.073,1.293,0.533,2.535,1.32,3.564
	c0.399,0.636,1.196,0.896,1.895,0.618C42.271,16.612,42.636,16.107,42.636,14.984z"/>
<path fill="#FFFFFF" d="M69.733,101.035c-0.367,0.369-0.891,0.537-1.403,0.449c-0.238-0.078-0.441-0.238-0.575-0.449
	c-0.23-0.342-0.437-0.697-0.617-1.066c-0.056-0.17-0.238-0.262-0.407-0.207c-0.01,0.002-0.019,0.006-0.028,0.01
	c-0.8,0.197-1.6,0.395-2.414,0.563c-0.21,0-0.309,0.125-0.309,0.35c0,0.533,0,1.066-0.111,1.6c-0.026,0.15-0.119,0.279-0.254,0.352
	c-0.359,0.1-0.725,0.174-1.094,0.225c-0.211,0-0.295,0-0.281-0.295c0.225-2.283,0.445-4.564,0.66-6.848
	c0-0.59,0.07-1.18,0.111-1.754c0-0.322,0.113-0.604,0.506-0.66s0.855-0.154,1.277-0.252c0.421-0.1,0.322,0,0.421,0.225
	c0.603,1.037,1.206,2.076,1.824,3.102l2.624,4.49L69.733,101.035z M66.253,98.41l-1.908-3.549l-0.197,4.041L66.253,98.41z"/>
<path fill="#FFFFFF" d="M16.196,83.086c0.169-0.098,0.295-0.182,0.422-0.238c1.038-0.463,2.105-0.898,3.129-1.402
	c1.025-0.506,1.783-0.744,2.652-1.15c0.87-0.408,1.403-0.633,2.133-0.941c0.115-0.057,0.25-0.057,0.365,0
	c0.365,0.379,0.701,0.771,1.024,1.18c0.063,0.129,0.063,0.277,0,0.406c-1.469,2.602-2.946,5.197-4.435,7.789l0,0
	c-0.695-0.117-1.164-0.777-1.046-1.473c0.03-0.182,0.101-0.354,0.204-0.506l0.646-1.082c-0.646-0.742-1.276-1.486-1.937-2.23
	c0,0-0.225,0-0.309,0c-0.491,0.211-0.969,0.436-1.403,0.688c-0.144,0.104-0.345,0.072-0.449-0.07L16.196,83.086z M22.021,84.49
	l2.105-3.41l-3.551,1.768L22.021,84.49z"/>
<path fill="#FFFFFF" d="M46.172,7.743c0.298-0.049,0.597-0.082,0.897-0.098c0.434-0.031,0.81,0.295,0.84,0.728
	c0.002,0.02,0.002,0.039,0.002,0.058c0.155,1.053,0.281,2.119,0.422,3.186c0.084,0.604,0.141,1.207,0.252,1.811
	c0.049,0.828,0.76,1.459,1.588,1.41c0.174-0.011,0.344-0.051,0.504-0.119c0.606-0.142,1.025-0.697,0.996-1.319
	c0-0.828-0.141-1.642-0.238-2.456c-0.141-1.165-0.295-2.344-0.449-3.508c-0.004-0.08-0.004-0.159,0-0.239l1.67-0.225
	c0,0.491,0.126,0.94,0.196,1.403c0.169,1.403,0.337,2.695,0.519,4.056c0.127,0.693,0.059,1.407-0.195,2.063
	c-0.282,0.6-0.785,1.067-1.404,1.305c-0.877,0.406-1.86,0.519-2.807,0.323c-1.178-0.259-2.061-1.242-2.188-2.442
	c-0.141-0.87-0.239-1.74-0.351-2.624c-0.113-0.884-0.253-2.091-0.379-3.129C46.077,7.858,46.12,7.797,46.172,7.743z"/>
<path fill="#FFFFFF" d="M85.772,82.063l1.629,1.502l2.076-2.4l1.066,0.996l-2.076,2.33l1.684,1.572l2.723-3.088
	c0.141,0.154,0.281,0.281,0.393,0.422c0.365,0.357,0.369,0.945,0.01,1.309c-0.004,0.004-0.006,0.006-0.01,0.01
	c-0.86,1.02-1.744,2.016-2.652,2.988c-0.309,0.389-0.875,0.451-1.262,0.141c-0.053-0.041-0.1-0.088-0.141-0.141l-1.713-1.586
	l-3.69-3.549c-0.225-0.211-0.253-0.338,0-0.59c0.968-1.053,1.909-2.133,2.807-3.215c0.136-0.176,0.28-0.344,0.435-0.504
	c0.097-0.053,0.213-0.053,0.309,0c0.216,0.156,0.414,0.334,0.59,0.533c0.322,0.365,0.295,0.561,0,0.898
	c-0.295,0.336-0.785,0.785-1.164,1.191C86.405,81.291,86.124,81.67,85.772,82.063z"/>
<path fill="#FFFFFF" d="M87.767,32.049c-0.418-0.17-0.762-0.484-0.969-0.884c-0.137-0.296-0.094-0.645,0.111-0.898l0.73-1.165
	l-1.403-1.585c-0.575-0.66-0.575-0.66-1.403-0.309c-0.259,0.098-0.512,0.21-0.758,0.337c-0.166,0.128-0.403,0.098-0.531-0.067
	c-0.012-0.014-0.021-0.029-0.03-0.045l-0.8-0.996l0.393-0.197l7.662-3.186c0.187-0.123,0.438-0.073,0.562,0.112
	c0.28,0.365,0.604,0.688,0.884,1.053c0.061,0.119,0.061,0.26,0,0.379c-1.402,2.423-2.854,4.86-4.35,7.311L87.767,32.049z
	 M90.39,24.709L87.583,26l-0.574,0.267l1.402,1.614l2.021-3.129l0,0L90.39,24.709z"/>
<path fill="#FFFFFF" d="M85.633,89.473L85.633,89.473c1.235,0,1.403,0.336,0.982,1.402c-0.396,1.061-1.144,1.953-2.119,2.525
	c-0.868,0.502-1.938,0.502-2.807,0c-1.919-0.992-3.206-2.887-3.424-5.037c-0.075-1.99,1.478-3.664,3.468-3.74
	c0.131-0.004,0.262-0.002,0.391,0.008c0.625,0.055,1.198,0.363,1.586,0.855c0.383,0.352,0.406,0.947,0.055,1.328
	c-0.075,0.082-0.165,0.15-0.265,0.201c-0.155,0.113-0.337,0.197-0.505,0.309c-0.197-0.209-0.379-0.42-0.59-0.604
	c-0.424-0.465-1.107-0.592-1.67-0.309c-0.639,0.279-1.008,0.955-0.898,1.643c-0.009,0.094-0.009,0.188,0,0.281
	c0.394,1.25,1.15,2.354,2.176,3.17c0.674,0.686,1.775,0.695,2.461,0.02c0.142-0.139,0.258-0.303,0.346-0.482
	C85.12,90.535,85.393,90.012,85.633,89.473z"/>
<path fill="#FFFFFF" d="M94.782,46.082l1.403,0.505c-0.377,0.747-0.556,1.578-0.519,2.414c0.029,0.349,0.129,0.688,0.295,0.997
	c0.217,0.428,0.741,0.599,1.17,0.38c0.134-0.068,0.248-0.17,0.331-0.296c0.177-0.246,0.31-0.521,0.394-0.814
	c0.168-0.533,0.294-1.081,0.434-1.614c0.225-1.291,1.452-2.155,2.742-1.932c0.758,0.131,1.404,0.621,1.734,1.314
	c0.561,1.124,0.666,2.42,0.295,3.621c-0.14,0.589-0.238,0.646-0.828,0.477c-0.266-0.07-0.504-0.197-0.743-0.281
	c0.349-0.896,0.403-1.878,0.154-2.807c-0.142-0.361-0.471-0.614-0.856-0.66c-0.361,0.044-0.664,0.297-0.771,0.646
	c-0.211,0.674-0.365,1.403-0.59,2.035c-0.124,0.395-0.299,0.772-0.519,1.123c-0.791,1.111-2.333,1.371-3.444,0.58
	c-0.081-0.058-0.158-0.12-0.232-0.188c-0.433-0.43-0.723-0.984-0.828-1.585C94.054,48.689,94.188,47.298,94.782,46.082z"/>
<path fill="#FFFFFF" d="M16.352,37.157l1.993,0.982l1.684-3.522c0.58,0.04,1.018,0.542,0.978,1.122
	c-0.011,0.158-0.058,0.312-0.136,0.45l-1.488,3.115c-0.145,0.49-0.661,0.77-1.151,0.624c-0.089-0.027-0.174-0.066-0.251-0.118
	l-6.498-3.116c-0.196-0.098-0.336-0.168-0.196-0.435c0.729-1.488,1.403-2.975,2.147-4.463l0.112-0.126l1.235,0.646l-1.586,3.312
	l1.922,0.912c0.393-0.8,0.771-1.572,1.123-2.357c0.126-0.267,0.267-0.323,0.505-0.21l0.94,0.463L16.352,37.157z"/>
<path fill="#FFFFFF" d="M95.021,44.538c-0.842,0.449-1.402,0.225-1.74-0.618l-1.107-3.199c-0.275-0.422-0.158-0.987,0.264-1.263
	c0.115-0.075,0.246-0.123,0.381-0.141l6.891-2.372c0.168,0,0.295-0.084,0.365,0.14l1.684,4.884l-1.403,0.407l-1.192-3.452
	l-2.021,0.702c0.281,0.828,0.548,1.642,0.856,2.442c0.112,0.309,0,0.449-0.239,0.547l-0.953,0.294l-0.982-2.807l-2.105,0.716
	L95.021,44.538z"/>
<path fill="#FFFFFF" d="M31.396,21.201c0.477,0,0.912-0.084,1.318-0.168c0.656-0.095,1.266-0.395,1.74-0.856
	c0.255-0.223,0.368-0.567,0.295-0.898c-0.113-0.461-0.536-0.778-1.011-0.758c-0.437,0.022-0.873,0.069-1.306,0.141
	c-0.697,0.17-1.42,0.213-2.133,0.126c-0.545-0.111-1.024-0.434-1.332-0.898c-0.646-0.909-0.577-2.145,0.168-2.975
	c0.906-1.018,2.176-1.638,3.536-1.726c0.097,0.007,0.186,0.059,0.239,0.141c0.075,0.165,0.127,0.339,0.154,0.519
	c0.098,0.617,0,0.674-0.563,0.828c-0.603,0.175-1.193,0.391-1.768,0.646c-0.18,0.099-0.33,0.244-0.436,0.421
	c-0.279,0.332-0.238,0.827,0.094,1.107c0.128,0.108,0.287,0.172,0.454,0.184c0.493-0.003,0.986-0.046,1.474-0.126
	c0.691-0.109,1.393-0.142,2.091-0.098c1.294,0.201,2.181,1.414,1.979,2.708c-0.059,0.37-0.203,0.721-0.422,1.025
	c-0.834,1.143-2.115,1.878-3.522,2.021h-0.435c-0.506,0-0.576,0-0.617-0.491C31.353,21.58,31.396,21.496,31.396,21.201z"/>
<path fill="#FFFFFF" d="M55.742,8.347c0-0.407,0-0.758,0.085-1.123c0.084-0.365,0.14-0.295,0.35-0.281l4.87,0.351h0.856
	c0,0.155,0,0.281,0,0.407c0,0.702-0.239,0.996-0.941,0.954L59.56,8.557l-0.506,7.129c-0.518,0.152-1.068,0.152-1.586,0
	c-0.088-0.037-0.151-0.116-0.168-0.21c0-0.477,0.112-0.94,0.141-1.403c0.084-1.066,0.154-2.147,0.225-3.214l0.168-2.329
	L55.742,8.347z"/>
<path fill="#FFFFFF" d="M56.191,101.723l3.509-0.111c0.21,0.996-0.197,1.543-1.166,1.584l-2.988,0.086
	c-0.51,0.098-1.003-0.236-1.101-0.746c-0.02-0.102-0.022-0.205-0.009-0.307c-0.056-1.994-0.107-3.98-0.154-5.965
	c0-0.66,0-1.332,0-2.021c0.163-0.031,0.327-0.055,0.492-0.068c0.842,0,1.207,0.293,1.234,1.137
	C56.065,97.428,56.121,99.563,56.191,101.723z"/>
<path fill="#FFFFFF" d="M90.671,34.322l1.712,2.961c-0.39,0.472-1.089,0.538-1.562,0.147c-0.15-0.125-0.266-0.287-0.333-0.471
	l-1.403-2.498c-0.299-0.425-0.197-1.011,0.227-1.31c0.053-0.037,0.107-0.068,0.166-0.093l6.357-3.635
	c0.225-0.126,0.322-0.112,0.463,0.112c0.59,0.997,0.506,1.319-0.491,1.895l-4.841,2.807L90.671,34.322z"/>
<path fill="#ED1C24" d="M55.658,54.726l33.679-13.023l-0.631,1.895l-1.895,5.768c-0.59,1.811-1.193,3.621-1.782,5.446
	c-0.056,0.182-0.056,0.377,0,0.561c0.94,2.806,1.88,5.74,2.807,8.617l1.276,3.914c0,0,0,0.141,0.07,0.281L55.279,55.035
	c0.025,0.133,0.059,0.265,0.099,0.394l3.27,8.181c0.351,0.898,0.674,1.811,1.038,2.707c0.364,0.898,0.716,1.615,1.038,2.428
	c0.463,1.137,0.885,2.273,1.404,3.41c0.589,1.404,1.207,2.92,1.796,4.379c0.936,2.227,1.833,4.453,2.694,6.68l1.487,3.732
	l0.786,1.979l-1.67-0.547l-7.312-2.455l-4.519-1.516c-0.179-0.055-0.369-0.055-0.547,0L41.85,88.615h-0.253l0.576-1.402
	c0.813-1.992,1.613-3.986,2.428-5.979l3.521-8.547l4.21-10.215c0.936-2.32,1.871-4.66,2.807-7.017
	c0.057-0.197,0.095-0.398,0.112-0.604l-11.227,4.335L32.798,63.51l-11.227,4.309l0.786-2.357l2.807-8.518
	c0.183-0.533,0.364-1.053,0.52-1.585c0.048-0.17,0.048-0.35,0-0.52c-0.786-2.414-1.586-4.813-2.386-7.227l-1.782-5.389
	c0-0.084,0-0.183-0.085-0.337l33.596,13.009h0.084L41.513,20.822l1.684,0.604l3.396,1.249l8.209,2.975
	c0.21,0.068,0.436,0.068,0.646,0l9.696-3.424l3.999-1.403l0.309-0.084L55.573,54.642L55.658,54.726z"/>
<path d="M22.442,30.8L22.442,30.8h-0.085H22.442z"/>
<path d="M77.312,20.261h-0.07v-0.112L77.312,20.261z"/>
<path d="M29.247,86.777l0.07-0.098l0,0v0.125L29.247,86.777z"/>
<path d="M29.149,91.227L29.149,91.227v-0.084V91.227z"/>
<path d="M90.39,24.653h0.084l0,0H90.39z"/>
</svg>
