<?xml version="1.0" encoding="utf-8"?>
<!DOCTYPE svg PUBLIC "-//W3C//DTD SVG 1.1//EN" "http://www.w3.org/Graphics/SVG/1.1/DTD/svg11.dtd">
<svg version="1.1"
	 id="svg2226" xmlns:dc="http://purl.org/dc/elements/1.1/" xmlns:sodipodi="http://sodipodi.sourceforge.net/DTD/sodipodi-0.dtd" xmlns:inkscape="http://www.inkscape.org/namespaces/inkscape" xmlns:rdf="http://www.w3.org/1999/02/22-rdf-syntax-ns#" xmlns:cc="http://creativecommons.org/ns#" xmlns:svg="http://www.w3.org/2000/svg" inkscape:version="0.48.4 r9939" sodipodi:docname="Qantas_Airways_Limited_logo.svg"
	 xmlns="http://www.w3.org/2000/svg" xmlns:xlink="http://www.w3.org/1999/xlink" x="0px" y="0px" width="254.709px"
	 height="56.674px" viewBox="0 0 254.709 56.674" enable-background="new 0 0 254.709 56.674" xml:space="preserve">
<sodipodi:namedview  id="namedview11" borderopacity="1" fit-margin-top="0" guidetolerance="10" objecttolerance="10" pagecolor="#ffffff" gridtolerance="10" inkscape:zoom="0.31848853" inkscape:cy="309.18169" showgrid="false" bordercolor="#666666" inkscape:cx="216.35968" fit-margin-left="0" fit-margin-bottom="0" fit-margin-right="0" inkscape:current-layer="svg2226" inkscape:window-maximized="1" inkscape:window-y="-8" inkscape:window-x="-8" inkscape:pageopacity="0" inkscape:pageshadow="2" inkscape:window-width="1600" inkscape:window-height="838">
	</sodipodi:namedview>
<defs>
	
	
		<inkscape:perspective  inkscape:vp_z="669 : 370.5 : 1" id="perspective15" inkscape:vp_y="0 : 1000 : 0" inkscape:vp_x="0 : 370.5 : 1" sodipodi:type="inkscape:persp3d" inkscape:persp3d-origin="334.5 : 247 : 1">
		</inkscape:perspective>
</defs>
<g id="g3022" transform="translate(44.319894,-243.48987)">
	<path id="path2235" inkscape:connector-curvature="0" fill="#EB151C" fill-opacity="0.8902" d="M-44.318,281.378l0.001-18.787
		l0.475,0.987c0.688,1.432,1.295,2.248,2.675,3.597c1.456,1.423,1.832,1.713,4.159,3.204c0.979,0.627,2.213,1.422,2.742,1.766
		c4.047,2.636,5.917,4.95,6.897,8.535c0.25,0.912,0.296,1.279,0.34,2.65c0.048,1.505-0.03,2.418-0.323,3.772
		c-0.052,0.24-0.032,0.265,0.219,0.265c0.496,0.001,2.851,0.383,3.884,0.629c3.826,0.912,6.96,2.316,10.584,4.744
		c1.805,1.209,3.547,2.648,5.635,4.655c0.949,0.912,1.093,1.019,1.148,0.848c0.205-0.645-0.871-2.452-2.344-3.938
		c-2.574-2.597-6.145-5.024-10.308-7.006c-2.849-1.356-3.677-1.87-4.564-2.828c-0.698-0.754-1.015-1.402-1.016-2.081
		c-0.001-0.73,0.228-1.217,0.755-1.602c0.918-0.672,2.104-0.638,2.799,0.079l0.327,0.338l-0.375,0.156
		c-0.306,0.128-0.557,0.144-1.372,0.089l-0.997-0.068l0.032,0.227c0.083,0.585,1.899,0.862,3.063,0.469
		c1.221-0.414,2.578-1.323,4.406-2.953c0.425-0.379,0.87-0.741,0.987-0.804c0.117-0.063,0.893-0.191,1.723-0.286
		c1.086-0.123,1.622-0.229,1.909-0.375c0.403-0.205,0.653-0.516,0.551-0.682c-0.087-0.142-1.58-1.107-2.163-1.398
		c-1.026-0.515-2.61-1.099-4.15-1.532c-0.859-0.242-1.579-0.422-1.601-0.4c-0.084,0.084,0.167,0.761,0.391,1.054
		c0.279,0.366,1.147,0.827,1.695,0.901c0.215,0.028,0.391,0.072,0.391,0.097c0,0.076-0.404,0.639-0.665,0.926
		c-0.307,0.337-1.214,0.808-1.711,0.887l-0.37,0.06l-0.616-0.803c-2.271-2.956-4.359-4.851-7.415-6.726
		c-1.896-1.164-3.388-1.844-7.264-3.312c-4.614-1.746-4.857-1.845-5.917-2.389c-2.057-1.057-3.23-2.124-3.98-3.621
		c-0.651-1.302-0.656-1.366-0.621-9.846l0.03-7.385l4.281,3.949c2.355,2.172,4.352,3.979,4.437,4.018s2.229,1.976,4.763,4.308
		c2.535,2.331,7.856,7.221,11.825,10.865c3.969,3.645,7.52,6.941,7.89,7.325c0.37,0.384,6.865,6.379,14.433,13.322
		s13.823,12.684,13.9,12.756c0.119,0.11-4.677,0.131-30.718,0.131H-44.32L-44.318,281.378L-44.318,281.378z"/>
	<path id="path4204" inkscape:connector-curvature="0" fill="#1A1A1A" d="M26.232,295.479c-2.285-0.604-3.233-1.054-4.353-2.066
		c-0.638-0.577-1.28-0.739-3.576-0.899c-4.295-0.3-6.721-1.091-8.838-2.883c-2.424-2.05-2.951-5.841-1.276-9.176
		c2.086-4.156,5.969-7.781,11.049-10.318c4.007-2.001,7.307-2.808,12.437-3.04c6.512-0.296,10.119,0.529,12.332,2.819
		c2.549,2.64,2.14,6.701-1.142,11.325c-2.414,3.401-5.225,5.684-9.901,8.04l-2.443,1.231l0.662,0.668
		c0.544,0.548,1.148,0.695,3.376,0.823l2.714,0.156l-1.873,1.448C32.244,296.049,30.07,296.493,26.232,295.479L26.232,295.479z
		 M24.987,285.908c2.343-1.218,5.752-5.199,7.794-9.104c1.239-2.368,1.204-3.156-0.165-3.731c-3.296-1.385-7.176,0.596-11.278,5.757
		c-3.294,4.145-3.731,6.669-1.325,7.656C20.832,286.822,23.919,286.464,24.987,285.908z M184.243,291.796
		c-2.14-0.273-4.541-0.819-6.104-1.388c-2.509-0.912-3.897-1.658-3.583-1.923c0.085-0.072,1.448-1.204,3.029-2.517l2.876-2.385
		l1.329,0.573c2.12,0.913,8.775,1.926,10.808,1.644c3.938-0.547,3.239-1.418-2.776-3.467c-5.229-1.781-7.146-3.133-7.807-5.504
		c-0.715-2.567,0.412-4.977,3.219-6.887c2.34-1.59,5.583-2.503,10.466-2.944c3.866-0.35,4.492-0.328,7.933,0.271
		c2.055,0.358,4.47,0.87,5.367,1.138c1.896,0.566,1.875,0.849-0.206,2.738c-1.862,1.691-3.146,1.958-8.924,1.852
		c-4.276-0.079-5.063-0.021-5.415,0.406c-0.631,0.765,0.021,1.173,3.732,2.331c8.034,2.508,10.283,4.601,9.131,8.498
		c-0.847,2.868-3.55,5.189-7.576,6.506C195.021,292.281,190.48,292.591,184.243,291.796L184.243,291.796z M41.886,287.705
		c2.249-2.192,6.303-6.266,9.009-9.053c6.592-6.788,9.443-8.862,14.213-10.341c3.619-1.122,6.462-1.401,10.326-1.013
		c1.916,0.192,3.532,0.399,3.591,0.459s-0.953,4.66-2.25,10.224c-1.297,5.563-2.536,10.889-2.754,11.834l-0.397,1.72l-5.635,0.085
		l-5.634,0.085l0.436-1.648c0.24-0.906,0.438-1.824,0.44-2.039c0.002-0.298-1.276-0.391-5.369-0.391H52.49l-2.003,2.032
		l-2.003,2.032H43.14h-5.343L41.886,287.705L41.886,287.705z M65.82,277.891c0.468-1.916,0.781-3.555,0.694-3.642
		c-0.441-0.444-7.943,6.041-7.943,6.867c0,0.142,1.439,0.257,3.199,0.257h3.198L65.82,277.891L65.82,277.891z M80.941,282.703
		c5.543-9.543,7.16-11.713,10.014-13.431c1.916-1.153,4.732-1.967,6.811-1.967h1.438l2.617,5.936
		c1.439,3.265,2.695,5.938,2.792,5.939c0.097,0.003,1.146-1.715,2.332-3.817s2.532-4.256,2.99-4.785
		c1.149-1.325,3.476-2.528,5.676-2.933c2.226-0.41,6.177-0.45,6.032-0.062c-0.057,0.153-3.182,5.636-6.945,12.183l-6.84,11.903
		l-4.83,0.011l-4.83,0.011l-2.59-5.784c-1.424-3.181-2.631-5.783-2.684-5.783s-1.59,2.603-3.417,5.783l-3.321,5.784h-5.232H75.72
		L80.941,282.703z M120.451,291.53c0-0.097,2.105-3.835,4.68-8.307c2.573-4.473,4.757-8.336,4.853-8.586
		c0.147-0.386-0.584-0.454-4.835-0.454c-3.285,0-5.009-0.113-5.009-0.328c0-0.18,0.471-1.067,1.046-1.973
		c1.309-2.055,3.65-3.621,6.23-4.165c2.148-0.452,27.861-0.602,27.861-0.161c0,0.432-1.742,2.998-2.523,3.717
		c-1.566,1.443-4.181,2.338-7.644,2.616c-1.804,0.146-3.341,0.326-3.417,0.403c-0.076,0.076-2.346,3.987-5.043,8.69l-4.905,8.552
		l-5.647,0.085C122.992,291.667,120.451,291.626,120.451,291.53L120.451,291.53z M146.844,282.078
		c5.354-5.288,10.597-10.21,11.649-10.938c2.495-1.727,5.998-3.082,9.555-3.699c2.394-0.416,3.466-0.44,6.607-0.152
		c2.063,0.189,3.775,0.376,3.807,0.415c0.032,0.038-1.21,5.451-2.76,12.028l-2.818,11.959h-5.561c-5.148,0-5.547-0.04-5.398-0.547
		c0.09-0.301,0.252-0.97,0.361-1.485s0.266-1.185,0.347-1.485c0.137-0.506-0.268-0.547-5.401-0.547h-5.549l-2.004,2.032
		l-2.003,2.032h-5.284h-5.283L146.844,282.078L146.844,282.078z M164.575,280.202c0.997-3.834,1.544-6.164,1.468-6.241
		c-0.268-0.268-3.193,2.116-5.629,4.584l-2.792,2.829h3.324h3.324L164.575,280.202L164.575,280.202z"/>
</g>
</svg>
