<?xml version="1.0" encoding="utf-8"?>
<!DOCTYPE svg PUBLIC "-//W3C//DTD SVG 1.1//EN" "http://www.w3.org/Graphics/SVG/1.1/DTD/svg11.dtd">
<svg version="1.1"
	 id="svg2" xmlns:dc="http://purl.org/dc/elements/1.1/" xmlns:cc="http://creativecommons.org/ns#" xmlns:rdf="http://www.w3.org/1999/02/22-rdf-syntax-ns#" xmlns:svg="http://www.w3.org/2000/svg" xmlns:sodipodi="http://sodipodi.sourceforge.net/DTD/sodipodi-0.dtd" xmlns:inkscape="http://www.inkscape.org/namespaces/inkscape" inkscape:output_extension="org.inkscape.output.svg.inkscape" inkscape:version="0.46" sodipodi:docname="1000px-Louis_Vuitton_Logo.svg" sodipodi:version="0.32"
	 xmlns="http://www.w3.org/2000/svg" xmlns:xlink="http://www.w3.org/1999/xlink" x="0px" y="0px" width="246px" height="300px"
	 viewBox="0 0 246 300" enable-background="new 0 0 246 300" xml:space="preserve">
<defs>
		<inkscape:perspective  inkscape:vp_z="1018.75 : 612.5 : 1" inkscape:vp_x="0 : 612.5 : 1" sodipodi:type="inkscape:persp3d" inkscape:vp_y="0 : 1000 : 0" id="perspective34" inkscape:persp3d-origin="509.375 : 408.33333 : 1">
		</inkscape:perspective>
</defs>
<sodipodi:namedview  inkscape:cy="612.5" inkscape:cx="509.375" inkscape:zoom="0.37714286" showgrid="false" pagecolor="#ffffff" bordercolor="#666666" borderopacity="1.0" objecttolerance="10.0" gridtolerance="10.0" guidetolerance="10.0" id="base" inkscape:current-layer="svg2" inkscape:window-y="92" inkscape:window-x="92" inkscape:pageopacity="0.0" inkscape:pageshadow="2" inkscape:window-width="640" inkscape:window-height="669">
	</sodipodi:namedview>
<g id="_x23_000000ff">
	<path id="path5" d="M166.706,39.768c15.612,0,31.228-0.003,46.84,0.002c0.009,3.516-0.019,7.034,0.016,10.553
		c-3.967,0.173-8.022,0.617-11.675,2.277c-3.705,1.665-6.812,4.693-8.409,8.444c-18.985,44.629-37.957,89.262-56.923,133.899
		c-0.326,0.734-0.591,1.493-0.974,2.201c-6.791-0.08-13.583-0.012-20.374-0.037c-2.997-5.954-5.946-11.935-8.968-17.875
		c-3.463,9.281-6.948,18.554-10.412,27.834c22.401,0.002,44.802,0,67.202,0.002c4.103,0.055,8.327-0.116,12.164-1.72
		c6.376-2.561,11.452-7.512,15.583-12.88c4.986-6.504,8.771-13.825,12.144-21.264c3.782-0.032,7.563,0.011,11.343,0.003
		c-7.168,15.313-14.373,30.611-21.605,45.894c-51.62,0.003-103.238,0-154.857,0c1.257-3.282,2.452-6.589,3.801-9.838
		c0.082-0.334,0.499-0.25,0.751-0.282c6.445-0.047,12.933-0.298,19.256-1.64c3.291-0.771,6.695-1.801,9.227-4.151
		c1.339-1.277,1.756-3.143,2.2-4.864c6.096-16.313,12.201-32.625,18.302-48.936C78.444,119.917,65.506,92.46,52.606,64.99
		c-1.039-2.403-2.409-4.782-4.565-6.346c-4.463-3.344-10.264-3.767-15.638-3.981c-0.004-3.937,0-7.872-0.002-11.809
		c18.124-0.007,36.246-0.005,54.371-0.002c0.002,3.938,0.004,7.875-0.002,11.812c-2.361,0.15-4.869,0.112-7.007,1.28
		c-1.061,0.501-1.685,1.763-1.412,2.91c0.334,1.879,1.819,3.22,2.571,4.917c7.654,16.485,15.307,32.971,22.984,49.45
		c3.846-10.755,7.692-21.509,11.555-32.257c0.566-1.494,0.767-3.22,0.12-4.723c-0.508-1.187-1.66-1.919-2.796-2.414
		c-2.208-0.911-4.636-0.902-6.977-1.07c1.195-3.322,2.397-6.645,3.636-9.949c0.287-0.185,0.686-0.043,1.016-0.088
		c18.389,0.011,36.779,0,55.171,0.006c-1.272,3.339-2.535,6.677-3.793,10.02c-4.429,0.205-8.995,0.316-13.149,2.047
		c-1.903,0.797-3.703,2.016-4.829,3.778c-0.781,1.292-1.266,2.733-1.789,4.14c-7.684,20.955-15.438,41.882-23.034,62.869
		c4.208,9.512,8.594,18.941,12.887,28.415c15.587-36.809,31.17-73.622,46.775-110.424c1.053-2.213,2.765-4.233,2.899-6.779
		c0.129-1.993-1.349-3.712-3.062-4.53c-3.69-1.703-7.84-1.787-11.829-1.931C166.701,46.809,166.701,43.289,166.706,39.768z"/>
	<path id="path7" d="M195.05,237.963c4.922,5.096,9.804,10.227,14.678,15.365c-0.007-4.776,0.021-9.557,0.016-14.334
		c0.842,0.002,1.685-0.008,2.53-0.019c0.002,6.82,0.002,13.643,0,20.464c-4.926-5.072-9.778-10.212-14.679-15.309
		c0.007,4.808-0.012,9.618-0.015,14.427c-0.845,0.007-1.688,0.005-2.53,0.005C195.048,251.694,195.046,244.827,195.05,237.963z"/>
	<path id="path9" d="M51.793,238.664c5.422-0.834,11.158,3.411,11.641,8.939c0.455,3.164-0.772,6.461-3.088,8.64
		c-3.807,3.727-10.655,3.658-14.351-0.2c-1.997-1.936-3.136-4.725-3.015-7.509C43.035,243.688,47.041,239.358,51.793,238.664
		 M51.795,241.169c-3.156,0.515-5.725,3.286-6.167,6.426c-0.601,3.568,1.601,7.407,5.046,8.574c3.015,1.138,6.684,0.065,8.62-2.508
		c2.502-3.14,2.079-8.208-1-10.814C56.564,241.273,54.062,240.755,51.795,241.169z"/>
	<path id="path11" d="M90.948,239.718c2.778-2.085,7.316-1.222,8.92,1.929c-0.669,0.379-1.339,0.759-2.008,1.137
		c-1.205-1.884-4.14-2.343-5.759-0.745c-0.686,0.501-0.61,1.42-0.538,2.173c0.196,0.983,1.243,1.4,2.016,1.862
		c1.99,1.048,4.381,1.651,5.779,3.551c1.56,2.12,1.303,5.276-0.398,7.239c-1.779,2.151-5.03,2.676-7.517,1.549
		c-1.909-0.942-3.088-2.935-3.47-4.978c0.854-0.203,1.712-0.391,2.569-0.582c0.086,1.862,1.532,3.746,3.5,3.781
		c2.655,0.289,4.766-3.163,3.22-5.365c-1.651-2.248-4.834-2.28-6.733-4.222C88.29,245.218,88.516,241.275,90.948,239.718z"/>
	<path id="path13" d="M181.597,238.649c3.553-0.443,7.223,1.196,9.405,4.006c3.145,3.936,2.641,10.214-1.091,13.599
		c-2.132,2.105-5.266,2.974-8.208,2.661c-2.907-0.191-5.628-1.822-7.307-4.182c-1.808-2.516-2.277-5.879-1.422-8.837
		C174.094,242.063,177.659,239.15,181.597,238.649 M181.161,241.203c-3.916,0.667-6.717,4.839-6.029,8.719
		c0.435,3.731,3.976,6.771,7.722,6.7c2.555,0.042,4.991-1.405,6.369-3.523c2.093-3.032,1.542-7.515-1.154-10.011
		C186.303,241.301,183.578,240.697,181.161,241.203z"/>
	<path id="path15" d="M34.437,238.979c0.809-0.004,1.617-0.004,2.425,0c0.002,5.782-0.002,11.567,0.002,17.349
		c2.008,0.005,4.015,0,6.023,0.002c0.004,0.742,0.004,1.485,0.002,2.229c-2.819,0.003-5.636,0.005-8.453,0
		C34.439,252.033,34.439,245.507,34.437,238.979z"/>
	<path id="path17" d="M65.395,238.996c0.857-0.006,1.712-0.005,2.571-0.002c0.007,3.853-0.011,7.708,0.009,11.562
		c0.039,1.694,0.249,3.557,1.447,4.861c1.906,1.87,5.649,1.604,6.979-0.819c0.672-1.139,0.868-2.487,0.849-3.789
		c-0.016-3.938-0.016-7.875-0.013-11.814c0.856-0.004,1.712-0.003,2.568,0c0,4.019,0.009,8.038-0.002,12.058
		c0.004,1.824-0.312,3.753-1.478,5.22c-2.507,3.473-8.319,3.671-11.065,0.389c-1.305-1.365-1.842-3.292-1.86-5.146
		C65.389,247.342,65.397,243.168,65.395,238.996z"/>
	<path id="path19" d="M82.968,238.982c0.843-0.009,1.688-0.007,2.532-0.003c0,6.527,0.002,13.054-0.002,19.583
		c-0.843,0-1.688,0.002-2.532-0.005C82.971,252.033,82.971,245.507,82.968,238.982z"/>
	<path id="path21" d="M108.325,238.998c0.927-0.024,1.858-0.024,2.787-0.02c1.945,4.759,3.86,9.529,5.771,14.303
		c1.906-4.758,3.867-9.491,5.73-14.266c0.954-0.079,1.91-0.024,2.867-0.037c-2.844,6.925-5.7,13.845-8.569,20.758
		C113.991,252.848,111.176,245.915,108.325,238.998z"/>
	<path id="path23" d="M126.639,238.976c0.843,0.011,1.685,0.021,2.529,0.019c0.03,3.793-0.004,7.59,0.028,11.384
		c0.06,1.801,0.198,3.843,1.572,5.179c1.588,1.358,4.116,1.443,5.811,0.234c0.986-0.701,1.528-1.867,1.741-3.029
		c0.338-1.999,0.217-4.033,0.239-6.051c0.014-2.57,0.017-5.142,0.012-7.713c0.811-0.008,1.624-0.007,2.437-0.004
		c0.036,3.566,0.007,7.13,0.016,10.696c0.058,2.21-0.014,4.61-1.359,6.479c-2.357,3.399-7.781,3.766-10.764,1.004
		c-1.493-1.38-2.241-3.416-2.253-5.424C126.626,247.49,126.644,243.234,126.639,238.976z"/>
	<path id="path25" d="M144.188,238.994c0.879,0.002,1.758-0.008,2.639-0.016c0,6.525-0.002,13.053,0,19.581
		c-0.886,0.003-1.771,0.003-2.653,0C144.164,252.038,144.193,245.517,144.188,238.994z"/>
	<path id="path27" d="M148.406,238.994c7.896,0.007,15.787-0.015,23.684-0.012c-0.003,0.78-0.003,1.562,0,2.346
		c-1.516,0.007-3.027,0-4.539,0.002c-0.007,5.743-0.002,11.486-0.002,17.229c-0.882,0.003-1.761,0.003-2.642,0
		c-0.004-5.743,0.016-11.486-0.01-17.229c-3.099,0.005-6.198-0.002-9.297,0.003c-0.006,5.743,0,11.483-0.003,17.227
		c-0.809,0.003-1.616,0.003-2.423,0c-0.003-5.743,0.002-11.483-0.003-17.227c-1.589-0.005-3.177,0.002-4.766-0.005
		C148.404,240.55,148.404,239.771,148.406,238.994z"/>
</g>
</svg>
