<?xml version="1.0" encoding="iso-8859-1"?>
<svg version="1.2" baseProfile="tiny" id="Layer_1" xmlns="http://www.w3.org/2000/svg" xmlns:xlink="http://www.w3.org/1999/xlink"
	 x="0px" y="0px" width="300px" height="301.619px" viewBox="0 0 300 301.619" xml:space="preserve">
<g>
	<path fill="#FFC20E" d="M149.96,301.619c93.729,0,141.187-16.463,149.698-47.904c1.415-5.75-3.249-7.493-7.912-7.493H149.96H8.173
		c-4.663,0-9.326,1.743-7.917,7.493C8.778,285.157,56.237,301.619,149.96,301.619"/>
	<path fill="#FFC20E" d="M150.045,0C56.322,0,6.374,32.173,0.341,64.531c-1.409,7.426,3.248,9.982,7.917,9.982
		c4.681,0,141.787,0,141.787,0s137.105,0,141.78,0c4.663,0,9.332-2.558,7.918-9.982C293.716,32.173,243.768,0,150.045,0"/>
	<path fill="#ED1C24" d="M118.704,121.385v15.313c0,3.492-4.788,5.869-8.064,5.869c-3.282,0-8.07-1.885-8.07-5.869v-7.831V95.596
		c0-3.979,4.788-6.163,8.07-6.163c4.159,0,6.644,2.314,8.596,4.851l12.83,16.151c1.007,1.278,2.479,1.482,2.479,0.339V95.596
		c0-3.979,4.788-6.163,8.07-6.163c3.276,0,8.065,2.186,8.065,6.163v31.499v9.604c0,3.962-4.789,5.868-8.065,5.868
		c-2.818,0-4.697-0.057-8.093-4.232s-13.616-16.949-13.616-16.949C120.203,120.479,118.704,120.27,118.704,121.385"/>
	<path fill="#ED1C24" d="M77.153,142.828c9.559,0,20.521-6.227,20.521-15.077v-32.27c0-3.831-4.646-5.482-7.838-5.482
		c-3.181,0-7.832,1.651-7.832,5.482v29.141c0,2.134-2.547,3.351-4.851,3.351c-2.303,0-4.85-1.217-4.85-3.351V95.482
		c0-3.831-4.652-5.482-7.838-5.482c-3.187,0-7.833,1.651-7.833,5.482v32.27C56.633,136.603,67.595,142.828,77.153,142.828"/>
	<path fill="#ED1C24" d="M227.254,112.318c3.135,0,5.771-2.104,5.771-5.597c0-3.479-1.098-5.682-6.049-5.682
		c-1.834,0-2.293,0.366-2.869,1.12v9.219C224.107,112.37,225.232,112.318,227.254,112.318 M241.871,119.828
		c-0.741,0.55-0.656,0.979-0.294,1.478l8.688,11.318c2.264,2.941,0.09,7.063-2.865,8.919c-2.653,1.67-8.346,1.907-10.615-1.035
		l-11.094-14.392c-0.621-0.76-1.521-0.447-1.521,0.549v10.655c0,3.752-4.623,5.365-7.792,5.365c-3.17,0-7.799-1.613-7.799-5.365
		v-40.43v-0.707c0-3.758,4.047-5.762,7.799-5.762h14.726c13.112,0,17.601,10.113,17.601,15.433
		C248.702,110.621,247.32,116.099,241.871,119.828"/>
	<path fill="#ED1C24" d="M185.736,123.332c-5.777,0-6.739-3.939-6.739-6.825c0-2.887,1.239-6.604,6.876-6.604h11.279
		c3.984,0,6.463,1.552,6.463,5.376v14.499c0,8.319-10.59,12.858-22.28,12.858c-15.082,0-26.916-8.354-26.916-26.819
		c0-15.677,11.099-26.542,27.067-26.542c8.173,0,14.381,1.743,18.688,5.501c3.164,2.795,1.834,6.515,0.602,8.206
		c-1.239,1.697-3.99,4.313-8.987,2.061c-4.997-2.241-6.463-2.286-9.49-2.286c-8.461,0-11.415,6.259-11.415,13.271
		c0,7.013,3.645,12.79,10.04,12.79c5.224,0,7.068-1.617,6.876-4.329C187.798,123.456,187.316,123.332,185.736,123.332"/>
	<path fill="#ED1C24" d="M25.569,123.405c-0.996,0-1.896,0.356-1.896,1.618v2.411v9.411c0,3.905-4.742,5.756-7.991,5.756
		c-3.242,0-7.984-1.851-7.984-5.756v-7.68V96.27c0-3.898,4.742-5.75,7.984-5.75c3.249,0,7.991,1.852,7.991,5.75v10.85
		c0,1.192,0.832,1.663,1.766,1.663h8.155c1.069,0,1.766-0.471,1.766-1.663V96.27c0-3.898,4.736-5.75,7.985-5.75
		c3.242,0,7.99,1.852,7.99,5.75v31.165v9.411c0,3.905-4.748,5.756-7.99,5.756c-3.249,0-7.985-1.851-7.985-5.756v-7.68v-4.144
		c0-1.262-0.832-1.618-1.828-1.618H25.569z"/>
	<path fill="#ED1C24" d="M288.945,91.062c-2.916-1.153-8.547-0.469-10.289,2.813l-5.993,9.399c-0.481,0.821-1.03,0.821-1.511,0.063
		l-5.959-9.463c-1.75-3.282-7.346-3.876-10.295-2.813c-3.871,1.409-5.732,5.631-3.989,8.908l11.754,19.185
		c0.89,1.527,1.272,2.399,1.272,3.938v13.849c0,3.91,4.744,5.755,7.992,5.755c3.243,0,7.985-1.845,7.985-5.755v-13.849
		c0-1.539,0.101-2.217,1.245-3.899l11.775-19.224C294.678,96.693,292.725,92.573,288.945,91.062z"/>
	<path fill="#ED1C24" d="M133.299,192.663c0,10.17,3.883,19.258,14.975,19.258c2.994,0,3.378-0.396,7.142-2.133
		c6.621-3.073,10.164,0.525,11.788,2.987c1.625,2.461,3.366,7.441-0.78,11.499c-4.183,4.272-10.136,6.785-19.208,6.785
		c-20.95,0-35.506-15.755-35.506-38.481c0-22.728,14.556-38.482,35.506-38.482c8.88,0,14.544,2.037,19.208,6.791
		c4.146,4.052,2.405,8.97,0.78,11.426c-1.624,2.462-5.167,6.078-11.788,2.988c-3.378-1.568-4.018-2.134-7.142-2.134
		c-11.092,0-14.997,9.326-14.997,19.496H133.299L133.299,192.663z"/>
	<path fill="#ED1C24" d="M93.062,219.681l1.024,3.39c1.16,4.964,7.781,7.799,11.63,7.125c4.29-0.77,9.196-5.552,7.402-11.053
		l-4.606-14.839l-13.197-42.461c-1.652-5.71-8.354-7.38-12.428-7.504c-4.075,0.124-10.832,1.884-12.428,7.504l-13.197,42.461
		l-4.612,14.839c-1.794,5.501,3.118,10.283,7.402,11.053c3.848,0.674,10.475-2.161,11.635-7.125l1.024-3.385
		c0.271-1.063,0.747-1.302,1.658-1.302h17.113C92.705,218.384,92.808,218.871,93.062,219.681"/>
	<path fill="#FFFFFF" d="M86.203,202.878c0,0-6.311,0-6.95,0c-0.65,0-1.188-0.437-0.865-1.239l3.406-11.075
		c0.362-1.606,1.727-1.806,2.196-0.027l3.406,11.092C87.748,202.663,87.386,202.878,86.203,202.878"/>
	<path fill="#ED1C24" d="M28.523,230.394c16.129,0,20.735-10.271,20.735-21.313l0.08-1.165V162.54c0-5.678-6.214-8.364-10.47-8.364
		c-4.25,0-10.47,2.688-10.47,8.364v42.731c0.458,6.797-3.934,8.553-5.631,3.526c-2.417-6.033-8.478-4.715-10.815-3.526
		c-2.331,1.188-5.67,4.273-4.267,10.119C10.154,224.31,16.447,230.303,28.523,230.394"/>
	<path fill="#ED1C24" d="M229.977,170.371l-14.992,18.278c0,0-3.084,3.182-0.672,6.361c2.664,3.515,14.582,17.447,14.582,17.447
		s7.946,7.544-0.221,14.708c-8.166,7.137-12.795,0.996-12.795,0.996l-19.4-23.436c0,0-1.975-1.913-1.975,1.579l0.028-0.221v2.513
		v13.752c0,5.698-6.236,8.398-10.505,8.398c-4.262,0-10.498-2.7-10.498-8.398v-59.264c0-5.705,6.236-8.398,10.498-8.398
		c4.269,0,10.505,2.693,10.505,8.398v16.089l-0.028-0.215c0,2.003,1.245,2.088,2.109,0.934l17.459-20.943
		c3.906-4.997,9.734-5.129,14.472-1.094C232.736,161.43,233.604,165.86,229.977,170.371"/>
	<path fill="#ED1C24" d="M266.874,230.54c-10.124,0-16.146-1.867-21.138-6.497c-3.916-3.87-2.28-8.59-0.752-10.944
		c1.527-2.354,4.929-5.993,11.107-2.875c5.495,2.769,6.186,2.122,8.778,2.122c3.854,0,5.585-2.96,5.585-6.095
		c0-3.124-2.784-4.256-4.844-4.714l-4.518-0.924c-8.794-1.749-17.566-8.438-17.555-18.415c0.021-16.484,10.249-27.577,26.87-27.577
		v-0.006c9.021,0,13.305,1.414,18.46,6.485c3.91,3.882,2.264,8.479,0.736,10.826c-1.535,2.354-4.998,6.123-11.115,2.863
		c-4.527-2.416-5.393-2.101-7.492-2.101c-3.313,0-5.025,2.337-5.025,5.195c0,2.581,2.881,3.849,4.602,4.313l5.099,1.284
		c9.53,2.396,17.815,9.174,17.912,20.962C293.729,219.612,285.271,230.54,266.874,230.54"/>
	<path fill="#ED1C24" d="M235.068,168.515c-2.338,1.483-0.051,4.563,1.873,4.409c2.14-0.159,10.742-7.736,7.375-15.264
		c-0.873-1.952-2.791-3.412-5.146-3.412c-3.039,0-5.501,2.377-5.501,5.303c0.113,3.616,2.186,4.675,2.875,4.946
		c0.689,0.266,0.504,0.792,0.441,1.126C236.546,166.885,236.234,167.417,235.068,168.515"/>
</g>
</svg>
