<?xml version="1.0" encoding="utf-8"?>
<!DOCTYPE svg PUBLIC "-//W3C//DTD SVG 1.0//EN" "http://www.w3.org/TR/2001/REC-SVG-20010904/DTD/svg10.dtd">
<svg version="1.0" id="Layer_1" xmlns="http://www.w3.org/2000/svg" xmlns:xlink="http://www.w3.org/1999/xlink" x="0px" y="0px"
	 width="110px" height="110px" viewBox="0 0 110 110" enable-background="new 0 0 110 110" xml:space="preserve">
<title>logo</title>
<g>
	<path fill="#0361AA" d="M54.997,22.653c-17.864-0.136-32.456,14.235-32.592,32.1c-0.136,17.864,14.235,32.456,32.1,32.592
		C72.367,87.48,86.96,73.108,87.096,55.246c0.002-0.082,0.002-0.164,0.002-0.246C87.164,37.204,72.792,22.723,54.997,22.653"/>
	<path fill="#FFFFFF" d="M54.997,20.862C36.144,20.719,20.743,35.886,20.6,54.739c-0.144,18.854,15.023,34.253,33.877,34.397
		C73.33,89.279,88.73,74.111,88.873,55.259c0.001-0.089,0.002-0.177,0.002-0.266C88.945,36.213,73.777,20.932,54.997,20.862
		L54.997,20.862 M54.997,87.347c-17.864,0.136-32.456-14.236-32.592-32.1c-0.136-17.864,14.235-32.456,32.1-32.592
		c17.863-0.136,32.456,14.235,32.592,32.099c0.002,0.082,0.002,0.164,0.002,0.246C87.164,72.796,72.792,87.276,54.997,87.347"/>
	<path fill="#0361AA" d="M54.997,1.333C25.586,1.333,1.729,25.363,1.729,55s23.844,53.667,53.268,53.667S108.265,84.643,108.265,55
		C108.265,25.357,84.42,1.333,54.997,1.333 M54.997,105.823C27.145,105.823,4.565,83.072,4.565,55
		c0-28.072,22.585-50.824,50.431-50.824c27.845,0,50.438,22.752,50.438,50.824c0,28.072-22.58,50.823-50.431,50.823"/>
	<path fill="#0361AA" d="M54.997,18.199c-20.168,0-36.515,16.473-36.515,36.794s16.347,36.802,36.515,36.802
		s36.514-16.48,36.514-36.802S75.165,18.199,54.997,18.199 M54.997,89.131C36.144,89.274,20.743,74.107,20.6,55.254
		c-0.144-18.853,15.023-34.253,33.877-34.396C73.33,20.714,88.73,35.882,88.873,54.734c0.001,0.086,0.002,0.173,0.002,0.259
		c0.072,18.78-15.092,34.064-33.871,34.138C55.001,89.131,54.999,89.131,54.997,89.131"/>
	<path fill="#FEDD19" d="M38.451,55.771c-3.223-8.322-1.665-18.709,7.943-23.304l7.431,16.02l-15.374,7.324"/>
	<path fill="#EE3426" d="M55.695,47.616l-7.391-15.98c9.495-3.369,18.311,1.951,22.199,8.875L55.695,47.616z"/>
	<path fill="#FFFFFF" d="M49.104,53.016l-9.821,4.661c0.14,0.287,0.292,0.566,0.439,0.853c1.804,3.255,4.741,4.32,4.741,7.597
		c0,2.664-4.201,8.875-4.934,10.36c0,0,9.575-7.664,18.764,7.397c0,0-0.605-7.563,0.832-10.986c0.892-2.137,2.124-3.389,4.388-3.881
		l-2.664-5.614c-5.466-1.703-9.84-5.02-11.765-10.387"/>
	<path fill="#FFFFFF" d="M74.386,55.333c-2.305-3.256-2.737-4.228-2.217-5.813c0.519-1.585-0.18-5.679-0.746-7.118l-9.748,4.661
		c2.484,4.754,3.109,10.74,0.786,15.567l2.923,6.173c0.502,0,1.041,0,1.618,0c4.241,0.133,5.093-2.071,4.461-3.802
		c-0.56-1.565-0.16-1.133,0.261-1.726c0.518-0.779,0.259-1.385-0.48-1.457c0.405-0.261,1.085-0.606,1.072-0.9
		c-0.056-0.274-0.15-0.538-0.279-0.785c-0.414-1.078-0.374-1.458,1.124-1.412c1.06,0,3.616,0,1.226-3.362"/>
	<path fill="#FFFFFF" d="M60.955,61.559c1.818-4.483,1.502-9.548-0.858-13.77l-4.562,2.17l-4.76,2.264
		c0.312,1.019,0.76,1.991,1.332,2.89c1.445,2.29,4.042,4.841,8.862,6.445"/>
	<path fill="#EE3426" d="M54.997,4.176C27.145,4.176,4.565,26.928,4.565,55c0,28.072,22.585,50.823,50.431,50.823
		c27.845,0,50.438-22.751,50.438-50.823c0-28.072-22.58-50.824-50.431-50.824 M55.003,91.801c-20.168,0-36.515-16.479-36.515-36.801
		s16.347-36.794,36.515-36.794S91.519,34.679,91.519,55S75.172,91.801,55.003,91.801"/>
	<path fill="#FFFFFF" d="M36.546,14.583c-2.058,0.599-3.995,1.438-4.335,0.726c-0.313-0.606,0.493-1.251,1.205-1.625
		c1.019-0.533,2.257-0.833,2.663,0l3.33-1.745c-1.085-2.064-4.108-1.611-6.658-0.28c-2.404,1.252-4.814,3.509-3.782,5.52
		c0.866,1.685,3.09,1.278,5.114,0.666c2.024-0.613,3.941-1.392,4.361-0.58c0.353,0.666-0.553,1.478-1.559,1.998
		c-1.418,0.739-2.53,0.879-3.156-0.167L30.4,20.842c1.225,2.344,4.308,1.917,7.245,0.379c2.816-1.472,5.2-3.662,3.995-5.993
		c-0.852-1.658-3.036-1.332-5.073-0.712"/>
	<path fill="#FFFFFF" d="M56.208,12.093l-0.712-6.033L51.761,6.5l0.732,6.192c0.154,1.332-0.446,2.084-2.277,2.304
		s-2.583-0.379-2.743-1.705L46.747,7.1l-3.729,0.439l0.706,6.039c0.353,2.983,2.431,4.242,6.759,3.729
		c4.328-0.513,6.065-2.224,5.713-5.207"/>
	<path fill="#FFFFFF" d="M62.82,13.731l2.764,0.666c1.71,0.427,1.684,1.525,1.538,2.564c-0.131,0.561-0.131,1.144,0,1.704
		l3.608,0.899c-0.399-0.486-0.1-1.998-0.032-2.417c0.276-1.193-0.33-2.414-1.446-2.917l0,0c1.571-0.047,2.551-0.893,2.816-1.998
		c0.5-1.998-1.737-3.436-4.208-4.048l-7.138-1.778l-2.47,10.054l3.643,0.912L62.82,13.731z M63.872,9.437l2.909,0.719
		c1.013,0.253,1.76,0.799,1.572,1.545c-0.187,0.746-0.879,1.039-1.997,0.759L63.3,11.7L63.872,9.437z"/>
	<polygon fill="#FFFFFF" points="84.12,21.528 79.261,18.092 80.465,16.361 86.091,20.336 87.316,18.565 78.62,12.419 
		72.722,20.902 75.798,23.073 78.067,19.81 82.93,23.239 	"/>
	<polygon fill="#FFFFFF" points="9.326,63.037 16.811,61.532 16.084,57.902 6.45,59.854 8.454,69.961 10.618,69.522 	"/>
	<polygon fill="#FFFFFF" points="18.568,68.291 9.506,72.139 10.938,75.541 19.993,71.692 	"/>
	<polygon fill="#FFFFFF" points="19.694,79.237 21.312,78.045 25.267,83.505 26.925,82.279 20.819,73.844 12.869,79.676 
		15.033,82.666 18.089,80.416 21.505,85.136 23.109,83.957 	"/>
	<polygon fill="#FFFFFF" points="22.61,91.675 31.958,98.268 33.224,96.442 26.872,91.975 27.943,90.43 33.603,94.412 
		34.735,92.772 29.082,88.785 30.067,87.366 36.253,91.729 37.432,90.03 28.236,83.552 	"/>
	<path fill="#FFFFFF" d="M49.697,93.173c-2.617-0.353-5.8,0.066-6.086,2.217c-0.24,1.805,1.771,2.718,3.709,3.39
		c1.937,0.672,3.928,1.105,3.814,1.998c-0.099,0.731-1.265,0.852-2.363,0.705c-1.538-0.213-2.503-0.719-2.437-1.884l-3.635-0.493
		c-0.313,2.523,2.39,3.896,5.593,4.328c3.07,0.413,6.179,0,6.519-2.47c0.233-1.778-1.711-2.71-3.669-3.383
		c-1.957-0.673-3.995-1.079-3.875-1.838c0.087-0.666,1.085-0.706,1.871-0.605c1.119,0.146,2.271,0.599,2.091,1.484l3.636,0.492
		c0.273-2.217-2.391-3.542-5.167-3.915"/>
	<path fill="#FFFFFF" d="M59.178,93.525l-3.648,10.653l3.715-0.599l0.601-1.892l4.846-0.786l1.133,1.618l3.775-0.611l-6.752-8.942
		L59.178,93.525z M60.384,99.632l1.031-3.683h0.074l2.083,3.177L60.384,99.632z"/>
	<polygon fill="#FFFFFF" points="74.306,88.552 75.045,96.396 75.005,96.409 69.313,91.016 65.876,92.706 74.186,99.639 
		77.975,97.773 77.742,86.854 	"/>
	<polygon fill="#FFFFFF" points="78.841,85.363 85.306,92.826 88.063,90.396 81.604,82.933 	"/>
	<polygon fill="#FFFFFF" points="88.502,74.096 93.543,77.466 93.521,77.499 85.778,78.237 83.694,81.401 91.891,86.874 
		93.795,83.971 88.688,80.563 88.708,80.528 96.519,79.836 98.597,76.673 90.4,71.2 	"/>
	<path fill="#FFFFFF" d="M103.496,59.375l-5.246-1.212l-1.332,5.806l1.852,0.427l0.572-2.518c0.825,0.393,1.132,1.731,0.727,3.509
		c-0.526,2.325-2.152,2.891-3.576,2.558c-1.425-0.334-2.664-1.552-2.118-3.869c0.333-1.451,1.093-2.496,1.938-2.43l0.819-3.597
		c-2.478-0.227-4.234,2.591-4.887,5.454c-0.952,4.188,0.666,7.404,3.429,8.043c2.764,0.64,5.607-1.558,6.559-5.739
		c0.293-1.277,0.34-2.976-0.373-4.143h1.092L103.496,59.375z"/>
</g>
</svg>
