<?xml version="1.0" encoding="iso-8859-1"?>
<svg version="1.2" baseProfile="tiny" id="Layer_1" xmlns="http://www.w3.org/2000/svg" xmlns:xlink="http://www.w3.org/1999/xlink"
	 x="0px" y="0px" width="250px" height="180px" viewBox="0 0 250 180" xml:space="preserve">
<g>
	<path fill="#231F20" d="M128.893,154.355c-4.919-1.912-7.662-2.001-7.662-4.525c0-1.436,1.743-2.481,4.006-2.481
		c2.611,0,4.704,0.956,5.791,2.348l4.482-3.396c-1.825-2.563-5.354-4.96-10.449-4.96c-5.396,0-10.448,3.134-10.448,8.578
		c0,4.447,3.354,7.226,7.706,8.791c4.224,1.566,7.621,2.224,7.621,4.878c0,1.438-1.178,3.001-4.528,3.001
		c-3.527,0-6.183-1.608-7.62-4.005l-4.874,3.354c1.872,3.655,5.917,6.704,12.45,6.704c7.706,0,11.276-3.918,11.276-9.275
		C136.643,159.016,134.377,156.447,128.893,154.355"/>
	<rect x="75.14" y="141.699" fill="#231F20" width="6.736" height="30.496"/>
	<rect x="139.506" y="141.699" fill="#231F20" width="6.738" height="30.496"/>
	<polygon fill="#231F20" points="157.256,141.701 150.516,141.701 150.516,172.196 168.453,172.196 168.453,166.07 157.256,166.07 	
		"/>
	<polygon fill="#231F20" points="177.766,161.85 170.855,141.701 163.684,141.701 174.549,172.195 180.983,172.195 191.456,141.701 
		184.279,141.701 	"/>
	<polygon fill="#231F20" points="194.077,172.195 212.746,172.195 212.746,166.07 200.816,166.07 200.816,160.817 210.5,160.817 
		210.5,155.018 200.816,155.018 200.816,147.828 212.797,147.828 212.797,141.701 194.077,141.701 	"/>
	<path fill="#231F20" d="M232.893,161.264c3.766-1.502,5.854-5.515,5.854-9.498c0-5.691-4.681-10.066-10.367-10.066h-12.07v30.496
		H223v-10.15v-5.949v-8.268h5.205c2.144,0,3.807,1.66,3.807,4.023c0,2.58-1.75,4.244-4.376,4.244h-1.464v5.654l6.977,10.445h7.611
		L232.893,161.264z"/>
	<path fill="#231F20" d="M64.37,158.455c0,5.338-2.493,7.396-6.212,7.396c-3.764,0-6.257-2.059-6.257-7.396v-16.756h-6.737v18.159
		c0,8.618,5.862,12.819,12.994,12.819c7.087,0,12.951-4.201,12.951-12.819v-18.159H64.37V158.455z"/>
	<path fill="#231F20" d="M42.54,156.949c0-8.799-7.19-15.73-16.211-15.73c-8.98,0-16.213,6.932-16.213,15.73
		c0,8.852,7.233,15.738,16.213,15.738c1.44,0,2.835-0.18,4.164-0.512l-4.346-5.598c-5.273-0.09-9.321-4.24-9.321-9.629
		c0-5.311,4.141-9.625,9.503-9.625c5.36,0,9.5,4.355,9.5,9.625c0,1.799-0.472,3.469-1.294,4.9l-4.611-5.754l-5.035,4.17l9.582,11.93
		h8.354l-4.061-5.069C41.126,164.409,42.54,160.875,42.54,156.949"/>
	<polygon fill="#231F20" points="113.341,141.701 105.025,141.701 92.866,156.137 92.866,141.701 92.516,141.701 86.129,141.701 
		86.129,172.196 92.516,172.196 92.866,172.196 92.866,165.977 96.881,161.217 105.697,172.196 106.208,172.196 114.052,172.196 
		114.084,172.196 101.249,156.096 	"/>
	<path fill="#231F20" d="M240.756,132.231H22.946c-7.484,0-12.765-6.274-12.833-12.298V71.127c9.378,0,17.772-4.504,20.826-6.703
		c19.415-13.884,35.568-40.933,56.252-49.729c6.047-2.583,17.815-6.766,32.666-2.918l17.762,17.7c0,0-9.281-4.364-23.032-4.364
		c-15.427,0-45.211,12.717-45.211,45.976c0,26.789,18.434,45.6,48.709,45.6h107.105L240.756,132.231z"/>
	<path fill="#231F20" d="M215.62,107.213h-99.83c-11.321,0-26.463-5.407-31.033-15.934c0,0,44.893-45.801,47.071-47.987
		c5.373-5.334,14.955-5.334,19.604,0L215.62,107.213z M116.41,71.903c-1.132,1.116-0.522,2.4,0.957,2.347h12.284l8.642-7.314
		c1.812-1.774,3.562-1.443,3.562,0.47v14.581c-0.043,2.303,2.004,2.303,3.244,0.755l8.981-8.492h11.777
		c0.927-0.021,1.601-1.231,0.33-2.458l-21.261-20.926c-1.516-1.524-4.791-1.524-6.25,0C138.142,51.364,116.41,71.903,116.41,71.903"
		/>
</g>
</svg>
