<?xml version="1.0" encoding="utf-8"?>
<!DOCTYPE svg PUBLIC "-//W3C//DTD SVG 1.1//EN" "http://www.w3.org/Graphics/SVG/1.1/DTD/svg11.dtd">
<svg version="1.1" id="Layer_1" xmlns="http://www.w3.org/2000/svg" xmlns:xlink="http://www.w3.org/1999/xlink" x="0px" y="0px"
	 width="1024px" height="276.742px" viewBox="0 0 1024 276.742" enable-background="new 0 0 1024 276.742" xml:space="preserve">
<path fill="#D81F26" d="M140.803,258.904c-15.404,2.705-31.079,3.516-47.294,5.676L44.051,119.724v151.073
	C28.647,272.418,14.594,274.58,0,276.742V0h41.08l56.212,157.021V0h43.511V258.904L140.803,258.904z M225.934,101.346
	c16.757,0,42.431-0.811,57.835-0.811v43.24c-19.188,0-41.619,0-57.835,0.811v64.322c25.405-1.621,50.81-3.785,76.481-4.596v41.617
	l-119.724,9.461V0h119.724v43.241h-76.481V101.346z M463.218,43.242h-44.862V242.15c-14.594,0-29.188,0-43.239,0.539V43.242h-44.861
	V0H463.22L463.218,43.242z M533.484,98.374h59.188v43.239h-59.188v98.104h-42.433V0h120.808v43.241h-78.375V98.374z
	 M682.125,201.881c24.594,0.539,49.455,2.434,73.51,3.783v42.701c-38.646-2.434-77.293-4.863-116.75-5.676V0h43.24V201.881
	L682.125,201.881z M792.118,251.338c13.783,0.813,28.377,1.623,42.431,3.242V0h-42.431V251.338z M1024,0l-54.863,131.615
	L1024,276.742c-16.218-2.162-32.433-5.135-48.648-7.838l-31.078-79.994l-31.617,73.51c-15.678-2.705-30.812-3.516-46.483-5.678
	l55.672-126.75L871.575,0h46.482l28.377,72.699L976.704,0H1024L1024,0z"/>
</svg>
