<?xml version="1.0" encoding="utf-8"?>
<!DOCTYPE svg PUBLIC "-//W3C//DTD SVG 1.1//EN" "http://www.w3.org/Graphics/SVG/1.1/DTD/svg11.dtd">
<svg version="1.1" id="Layer_1" xmlns="http://www.w3.org/2000/svg" xmlns:xlink="http://www.w3.org/1999/xlink" x="0px" y="0px"
	 width="800px" height="1000px" viewBox="0 0 400 500" enable-background="new 0 0 400 500" xml:space="preserve">
<polygon fill="#B76346" stroke="#000000" stroke-miterlimit="10" points="333.666,497.5 338.11,488.25 324.666,478.458 
	326.334,467.396 317.806,461.619 287.717,456.349 276.667,447.675 260,450.004 253,456.669 249.667,470.501 237.667,481.25 
	231.334,497.5 "/>
<polyline fill="none" stroke="#000000" stroke-miterlimit="10" points="255.219,476.167 268.56,484.5 311,487.5 320.25,481.334 "/>
<path fill="#FBB03B" stroke="#000000" stroke-miterlimit="10" d="M113.333,233.667c7.838-4.739,22.202-27.602,53.938-41.407
	c26.295-11.438,41.063,3.074,74.063-15.926c6.203-3.571,10-17,11.667-19.333s14.333-13.667,7-40.667l0.333-21.667
	c0,0,8.668-8.334,10.334-19.667C270,63.333,256.333,56,256.333,50c0,0-3.666-15-10.666-20.333c0,0-42.333-18.333-62.333-21.333
	C163.333,5.333,152,3,128,19c12-2,26-1.667,26,0c0,0-11.667,0.667-13.667,1.667c0,0,23.333,2,26,7.333
	c-28.696-10.112-53-1.667-56.667,2.333s-8.333,7-9.667,9c5.543-5.09,33.333-15.333,45-3.667
	c-30.017-3.212-38.333,4.667-41.667,7.667s-19,17-24.667,19.333S73,65,73,65s6.667,0.667,24.667-11.333
	C102.333,51,79,70,69.667,67.333c6.333,2.333,11.225-1.333,22.667-3c-1.333,4.333-23,13.667-30,7.333c0,0,3,5,8.667,4.333
	c2.333,2-15.333,0-16-7.333c4,13.667,20,14,25.667,10.333C69,90.667,75,99,70.667,107.333c-1.333,4-1.333,4-6,4.333
	S75,119,78,116.333s-4.667,7.171-12.667,3.585S67.667,125,74.667,126s-17,2.667-17,2.667s14,7.666,16.667,7.333
	S71,141.333,71,141.333S63.333,139.667,49.333,157c-4.687,5.325-9,2-15.333-1c0,0,5.333,4.667,6,5s-6.667-1-8-3
	c1.667,4.333,17.333,7.667,20.667,6c-14.667,3-18,14.667-28,9.667c5.667,6.333,19.333,5,22,4c-14.256,9.961-22.667,14.667-22,31
	c7.333-17,24.228-18.986,38.333-22.333c-16.667,11-17.834,13.38-18.167,20.713c6.501-9.38,17.834-13.38,17.834-13.38
	s-0.666,4.667-9.333,11.667C54,209.667,63,201.667,63,201.667s-8.667,9-8.667,14.667c8-5.675,12-12.333,15.667-12
	c-0.222,3.432-5.333,9.667-5.333,9.667s10.667-4.333,18.667-5s-3.333,16-8,20S96,218,102,219.667s-5,22-7,23.667
	S113.333,233.667,113.333,233.667z"/>
<path fill="#5A5A5A" stroke="#000000" stroke-miterlimit="10" d="M128.333,194.334c0,0-34-9.333-52.333,20.667
	c-6.667,4.667-15.333,12.666-19,26.667c-10,3.667-22.667,8.667-24.667,21.333s0.341,17.675,7,25
	c13.333,14.667,6.667,23.333,61.333,31c0,0,0-16.666,8.333-22.333c-8.125-12.001-26.333-24.667-39.333-21.667
	c7.92-1.431,20.197-1.882,27.667-6.667c6.676-4.275,10.667-8.666,13-12.354c0,0,15,23.02,18,27.354s15.667,21.666,19,46
	c1.785,13.027-6.525,29.585-6,42.667c0.456,11.353,3.667,20.667,9.42,28.41c-7.087,16.257-11.087,41.257-12.087,45.59
	c5-1.333,25.75,11.667,27.417,13c0,0,14.583-28,18.417-35.667c2.82-5.645,0.898-7.997,0.898-7.997s0.518-2.862,3.935-6.669
	c6.771-7.543,8.396-18.174,6.209-24.334l6.791-10.666c0,0,12.667-0.333,14.667-4c28.667,9.666,24.666,0.333,42.333,4.333
	c4.127,1.054,5.667,6.333,5.667,6.333s2.667,27.001-2,50.334c10-3,26,1.666,29,4.666s1.999-35.667,8.332-47
	c6.334-11.333,7.666-22.667,0-35c-7.665-12.333-43.665-21.666-48.332-25.666s-8.667-20.666-5-30s6.333-30.002,10-32.668
	c15.333,2.001,21.667-3.999,29,0c10.333-0.999,13.855,3.002,19.595,1.668s21.071-19,28.737-69.333c0-2,2.335-4.374,2.335-4.374
	S303.332,189,304,181.667c0,0-4,20-12,30.667c0,0-2.334-3-5.667,0.667c-5.333-2.667-9.666-6.333-15.666-0.667
	c-4-6.667-21.666-23-43-19.333c-2.334,5.667-1.334,10.667-4.667,12.667s-35.333,11.334-67.667,7.667
	C154,205.667,140,192.667,136,191.667S128.333,194.334,128.333,194.334z"/>
<path fill="#B4B4B4" stroke="#000000" stroke-miterlimit="10" d="M142.667,360.982c0,0-2.417,9.824-1.042,18.028
	s7.612,25.866,11.625,23.453c10.75-6.465,16.375-26.448,16.666-34.938c0.3-8.776-2.249-18.313-2.249-18.313
	S156.5,348.797,142.667,360.982z"/>
<path fill="#B4B4B4" stroke="#000000" stroke-miterlimit="10" d="M308.332,344.001c0,0-25.665,8.091-31.665,10.212
	s-14.168,9.546-34.334,0c-4.741-13.429,2.834-16.546,3.167-19.379s11.883-9.473,11.883-9.473S315.832,342.668,308.332,344.001z"/>
<path fill="#D2D2D2" stroke="#000000" stroke-miterlimit="10" d="M248.833,318.501c0,0,32.5,10.5,33.167,11.333
	s-20.833,5.833-30.5,18.833c-10.333-2.333-31.333-15.083-31.333-15.083S236.333,312.668,248.833,318.501z"/>
<path fill="#D2D2D2" stroke="#000000" stroke-miterlimit="10" d="M142.333,317.167c0.33-0.603,24-0.834,34.167,9.5
	c4.453,17.7,0.833,30.334,0,37.5c0,0-21.167-1-35.833,19c-2.5-26,2.574-32.955,3.167-47.5
	C144.401,321.77,139.972,321.482,142.333,317.167z"/>
<path fill="#D2D2D2" stroke="#000000" stroke-miterlimit="10" d="M272.167,212.834c-3-13.5-14.501-19.333-17.667-20.5
	c-2.915-1.074-20.792-4.687-26.347-3.564c0,0,0.222,18.48-1.778,25.355c-6.625,3.625-59.5,9.25-63.75,7.875
	s-15.5-26.375-27.292-31.5c-3.333-1.375-42.333-8.833-59,17.5c0,0,44.5,1.333,33.5,52c7.667,14,11.333,10.5,19.084,24.174
	c0,0-1.584,4.826,5.749,6.993c-1.417,4.703,0.657,8.039,3.255,9.792c0,3.352,2.262,21.05,4.911,24.708
	c3.5,4.833,14.5,6.833,19.333,10.5c3-5,6.5-9.833,6.5-9.833S166,334.833,165,337.167s16,9.334,16,9.334l5.833-8.667l-2.68,10.167
	c0,0,9.014,6.832,21.014,6.166l2.666-11l1.667,11.046c0,0,15.834-3.712,20.667-6.379c0.273-3.566-1.599-8.716-2.269-10.425
	c-0.144-0.367-0.231-0.575-0.231-0.575l5.166,7.5c0,0,8.501-7.833,10.334-11.5l-4.834-9.5l7,5.333c0,0,3.678-5.442,8.834-8.333
	c0,0-5.834-7.833-5.834-11s-2.666-6.167,0.667-11.167s2.999-6.166,3.333-9.833c2.47-3.698,3.315-6.395,2.792-9.964
	c0,0,2.876-3.037,2.542-12.203C258.573,258.633,260,259.5,260,250.5C260,250.5,275.167,226.334,272.167,212.834z"/>
<g>
	<path fill="#E41B2D" stroke="#000000" stroke-miterlimit="10" d="M210.965,235.319c0.013,0.573,0.021,1.147,0.035,1.812
		c1.057-0.167,2.113-0.333,3.271-0.518c-1.098,2.132-2.161,4.189-3.222,6.248c0.058,0.041,0.116,0.084,0.175,0.127
		c0.118-0.205,0.224-0.418,0.356-0.613c0.994-1.443,2.001-2.877,2.981-4.329c0.238-0.354,0.453-0.465,0.828-0.405
		c1.373,0.212,2.758,0.388,4.293,0.599c-2.428,2.05-4.575,4.176-6.308,6.7c-1.737,2.533-3.005,5.203-3.444,8.162
		c-0.045-0.656-0.09-1.313-0.135-1.969c-0.045-0.657-0.089-1.315-0.135-1.973c-0.057-0.002-0.111-0.002-0.166-0.004
		c-0.61,2.574-1.224,5.148-1.878,7.914c-1.007-2.373-1.94-4.576-2.876-6.78c-0.042,0.013-0.084,0.024-0.125,0.038
		c0.092,1.361,0.186,2.725,0.278,4.088c-0.055,0.027-0.11,0.055-0.166,0.082c-0.666-2.779-2.276-4.797-4.33-6.453
		c-2.031-1.641-4.457-2.622-7.109-3.564c1.518-0.962,2.88-1.839,4.261-2.68c0.119-0.072,0.387,0.063,0.529,0.172
		c1.253,0.969,2.494,1.953,3.846,2.83c-1.232-1.438-2.464-2.875-3.75-4.371c1.101-0.348,2.125-0.672,3.232-1.023
		c-0.102-0.615-0.196-1.183-0.293-1.751C204.4,236.877,207.684,236.099,210.965,235.319z"/>
	<path fill="#E41B2D" stroke="#000000" stroke-miterlimit="10" d="M172.433,286.489c1.87-2.529,3.663-5.117,5.623-7.575
		c3.115-3.903,6.656-7.382,10.504-10.514c0.128-0.104,0.259-0.205,0.497-0.391c-0.183,1.082-0.343,2.061-0.514,3.039
		c-0.382,2.189-0.759,4.381-1.16,6.57c-0.05,0.275-0.157,0.611-0.348,0.808c-3.386,3.474-6.222,7.39-9.173,11.212
		c-1.602,2.074-3.191,4.154-4.787,6.23C172.862,292.745,172.647,289.617,172.433,286.489z"/>
	<path fill="#E41B2D" stroke="#000000" stroke-miterlimit="10" d="M189.529,279.511c0.875,0.75,1.683,1.523,2.576,2.188
		c1.406,1.047,3.042,1.686,4.871,1.871c0.672,0.068,0.908,0.326,0.732,1.119c-2.854,0.592-5.619,0.418-8.498,0.192
		c0.119,0.354,0.162,0.683,0.319,0.917c0.968,1.428,1.91,2.876,2.955,4.237c1.184,1.534,2.466,2.983,3.625,4.567
		c-1.319-0.815-2.641-1.634-3.987-2.471c-1.464,1.553-2.581,3.303-3.619,5.102c-2.848,4.939-5.142,10.092-7.325,15.279
		c-0.137,0.326-0.277,0.65-0.456,1.068c-0.121-0.164-0.22-0.271-0.29-0.4c-2.134-3.914-4.258-7.836-6.408-11.738
		c-0.213-0.385-0.081-0.686,0.117-1.051c1.986-3.664,4.355-7.104,6.816-10.482c2.462-3.383,5.009-6.697,7.898-9.734
		C189.088,279.936,189.33,279.708,189.529,279.511z"/>
	<path fill="#E41B2D" stroke="#000000" stroke-miterlimit="10" d="M241.835,299.157c-3.165-4.584-6.355-9.011-10.235-12.813
		c-0.567-0.555-1.203-1.035-1.803-1.554c-0.522-0.456-1.039-0.918-1.599-1.408c-1.301,1.564-2.422,2.91-3.544,4.259
		c1.787-4.093,4.104-7.994,5.218-12.49c-2.768,1.826-5.522,3.011-8.357,3.92c-0.293-0.859-0.271-0.904,0.561-1.432
		c2.63-1.677,4.635-3.943,6.137-6.697c0.136-0.25,0.271-0.498,0.449-0.826c1.066,0.587,2.116,1.136,3.139,1.725
		c5.457,3.152,10.285,7.1,14.731,11.523c0.141,0.139,0.246,0.449,0.184,0.648C245.118,289.02,243.495,294.021,241.835,299.157z"/>
	<path fill="#E41B2D" stroke="#000000" stroke-miterlimit="10" d="M227.669,258.811c0.77,0.239,1.552,0.444,2.301,0.725
		c5.788,2.152,11.089,5.068,15.71,9.049c0.377,0.324,0.564,0.686,0.595,1.232c0.162,2.801,0.37,5.59,0.573,8.555
		c-0.309-0.209-0.514-0.348-0.72-0.488c-4.156-2.836-8.308-5.684-12.473-8.505c-0.588-0.399-1.214-0.772-1.885-1.022
		c-0.758-0.283-1.128-0.819-1.392-1.578c-0.906-2.612-1.873-5.193-2.817-7.786C227.6,258.932,227.635,258.87,227.669,258.811z"/>
	<path fill="#E41B2D" stroke="#000000" stroke-miterlimit="10" d="M237.898,254.496c-0.524-0.27-0.959-0.491-1.265-0.646
		c0.299-1.44,0.688-2.787,0.831-4.12c0.197-1.861-0.498-3.313-1.9-4.23c-2.638-1.727-5.577-1.551-8.639,0.332
		c-1.168,0.719-2.228,1.685-3.303,2.58c-0.337,0.279-0.61,0.525-1.004,0.389c-1.354-0.465-2.392,0.104-3.356,1.396
		c-0.714,0.955-1.609,1.779-2.424,2.66c-0.013,0.014-0.041,0.014-0.126,0.037c0.091-2.082,0.975-3.978,2.081-5.827
		c-0.052-0.031-0.106-0.063-0.159-0.094c-1.653,2.01-3.305,4.018-5.057,6.15c0.066-0.284,0.09-0.444,0.143-0.597
		c1.841-5.26,5.274-9.33,9.734-12.624c0.606-0.45,1.298-1.157,1.869-1.169c0.556-0.012,0.979,0.762,1.517,1.109
		c0.298,0.193,0.713,0.363,1.07,0.297c1.229-0.229,2.204,0.033,3.135,0.701c0.746,0.533,1.689,0.801,2.54,1.195
		c1.13,0.525,2.356,0.922,3.362,1.621c2.536,1.762,3.244,4.554,2.136,7.923C238.765,252.552,238.31,253.494,237.898,254.496z"/>
	<path fill="#E41B2D" stroke="#000000" stroke-miterlimit="10" d="M179.17,268.354c-3.134-3.146-3.653-7.412-0.064-11.584
		c0.821-0.955,1.854-1.719,2.748-2.614c0.859-0.861,1.704-1.746,2.479-2.685c0.512-0.619,1.022-1.119,1.778-1.281
		c1-0.215,1.652-0.851,2.178-1.811c0.669-1.229,0.724-1.195,1.926-0.972c4.401,0.816,8.122,2.712,10.854,6.151
		c0.479,0.602,0.873,1.276,1.305,1.916c-0.048,0.053-0.099,0.105-0.147,0.157c-1.875-1.164-3.752-2.33-5.627-3.496
		c-0.05,0.062-0.098,0.121-0.147,0.181c1.41,1.229,2.502,2.69,2.961,4.781c-0.264-0.117-0.427-0.179-0.575-0.257
		c-1.124-0.592-2.262-1.157-3.356-1.793c-0.453-0.262-0.848-0.258-1.304,0.114c-0.995,0.811-1.868,0.88-2.933,0.42
		c-2.542-1.102-5.313-1.135-8.142,0.46c-2.437,1.371-4.156,3.367-4.392,6.222c-0.123,1.506,0.403,2.782,1.091,3.961
		c0.165,0.284,0.351,0.551,0.548,0.854C179.947,267.518,179.56,267.936,179.17,268.354z"/>
	<path fill="#E41B2D" stroke="#000000" stroke-miterlimit="10" d="M172.678,282.365c0.21-2.186,0.464-4.213,0.576-6.227
		c0.056-0.992,0.433-1.601,1.262-2.221c5.841-4.369,11.653-8.787,17.478-13.188c0.26-0.197,0.531-0.379,0.887-0.47
		C186.181,267.592,179.482,274.919,172.678,282.365z"/>
	<path fill="#E41B2D" stroke="#000000" stroke-miterlimit="10" d="M222.56,252.809c0.272,0.069,0.548,0.137,0.822,0.207
		c6.561,1.647,13.121,3.303,19.688,4.938c0.454,0.113,0.673,0.336,0.781,0.807c0.487,2.086,1.02,4.156,1.564,6.352
		c-7.701-4.086-15.311-8.125-22.919-12.161C222.519,252.9,222.538,252.854,222.56,252.809z"/>
	<path fill="#244CA1" stroke="#000000" stroke-miterlimit="10" d="M210.768,268.438c2.105-0.512,3.117,0.811,4.138,2.162
		c1.346-1.277,2.301-3.008,4.089-3.543c1.295-0.389,2.606-0.635,3.834-0.925c-0.309,0.706-0.621,1.349-0.861,2.007
		c-0.368,1.01-0.979,1.832-1.912,2.316c-0.99,0.514-2.012,0.951-3.04,1.328c-0.531,0.197-0.886,0.508-0.946,1.01
		c-0.138,1.145-0.26,2.295-0.261,3.424c-0.004,1.066,0.18,2.102,0.222,3.164c0.014,0.281-0.194,0.609-0.303,0.919
		c-0.063-0.011-0.129-0.019-0.19-0.03c-0.195-1.552-0.368-3.109-0.595-4.652c-0.157-1.1-0.362-2.186-0.59-3.26
		C213.915,270.314,212.866,268.859,210.768,268.438z"/>
	<path fill="#244CA1" stroke="#000000" stroke-miterlimit="10" d="M202.704,273.639c0.623-1.502,1.199-2.816,2.456-3.664
		c0.394-0.267,0.844-0.42,1.306-0.566c-2.723,2.018-3.088,4.67-3.066,7.445c0.017,2.069,0.005,4.147,0.009,6.221
		c-0.064,0.044-0.129,0.086-0.191,0.129c-0.123-0.223-0.335-0.422-0.356-0.67c-0.097-1.162-0.081-2.354-0.221-3.502
		c-0.109-0.905-0.354-1.776-0.6-2.635c-0.173-0.599-0.573-0.859-1.294-0.763c-0.999,0.13-2.005,0.15-2.988,0.117
		c-1.054-0.033-1.772-0.597-2.25-1.506c-0.243-0.466-0.608-0.851-0.914-1.271C197.582,271.52,200.345,271.566,202.704,273.639z"/>
	<path fill="#244CA1" stroke="#000000" stroke-miterlimit="10" d="M239.008,302.064c-1.025-1.844-1.903-3.805-3.089-5.52
		c-1.646-2.373-3.518-4.563-5.258-6.789c-0.203,0.104-0.236,0.108-0.244,0.125c-0.139,0.273-0.276,0.549-0.407,0.827
		c-1.707,3.642-3.813,7.049-6.583,10.058c-0.91,0.99-0.912,0.986-1.993,0.65c-0.355-0.111-0.715-0.219-1.071-0.334
		c-2.778-0.904-3.406-1.527-6.194-2.415c-0.453-0.146-0.745-0.737-0.753-1.25c-0.006-0.688,1.041-2.031,0.813-3.569l1.271-1.932
		c1.216-0.813,3.027-0.705,3.542-1.079c0.517-0.372,0.771-0.844,0.954-1.317c0.461-1.211,0.299-1.849-0.313-2.853
		c-0.316-0.522-3.991,2.832-7.352,3.665c-3.361,0.833-4.777-1.561-6.757-1.109c-0.695,0.157-3.047-1.271-3.208-1.439
		c-0.423-0.44-1.469,2.766-0.857,3.726c0.238,0.374,1.476,0.587,2.025,0.706c0.549,0.121,2.517-0.302,3.805-0.086
		c1.288,0.217,2.379,0.219,2.861,1.719c0.481,1.5-0.341,2.928-0.234,3.889c0.052,0.496-0.084,0.82-0.51,1.181
		c-3.038,2.583-6.065,5.183-9.081,7.794c-0.351,0.305-0.588,0.32-0.931,0.154c-3.322-1.604-5.971-4.018-8.238-6.885
		c-0.196-0.246-0.393-0.49-0.692-0.867c-1.361,2.865-2.695,5.572-3.933,8.313c-1.154,2.553-2.077,5.164-2.654,7.842
		c-0.096,0.443-0.032,0.728,0.322,0.985c2.437,1.774,4.837,3.599,7.271,5.377c0.4,0.292,0.883,0.521,1.378,0.638
		c4.094,0.971,8.196,1.912,12.304,2.846c0.295,0.068,0.639,0.072,0.953-0.004c4.244-0.991,8.489-1.998,12.734-3.018
		c0.273-0.066,0.566-0.188,0.805-0.361c3.812-2.791,7.622-5.582,11.412-8.41c0.595-0.442,1.157-1.008,1.607-1.604
		c2.03-2.715,3.989-5.479,6.038-8.18C239.187,302.964,239.291,302.574,239.008,302.064z M198.86,315.059
		c0.35,0.7,0.618,1.451,1.003,2.371c-1.077-0.476-1.979-0.873-2.931-1.293c-0.81,0.819-1.627,1.647-2.443,2.477
		c-0.046-0.012-0.092-0.022-0.138-0.034c0.155-0.716,0.309-1.431,0.466-2.147c0.281-1.271,0.301-0.979-0.726-1.51
		c-0.562-0.29-1.14-0.871-1.651-0.748c0.609-0.146,1.221-0.291,1.829-0.436c1.379-0.327,1.36-0.619,1.705-2.021
		c0.15-0.623,0.292-1.389,0.584-2.058c0.321,0.728,0.68,1.362,0.944,2.12c0.174,0.498,0.432,0.547,0.949,0.395
		c0.831-0.247,1.671-0.428,2.507-0.629c0.021,0.059,0.044,0.105,0.064,0.16c-0.623,0.678-1.214,1.391-1.881,2.016
		C198.636,314.193,198.611,314.557,198.86,315.059z M214.311,317.418c0.341,0.747,0.604,1.542,0.967,2.49
		c-0.736-0.313-1.304-0.543-1.862-0.784c-0.965-0.415-0.962-0.419-1.803,0.431c-0.471,0.477-0.94,0.956-1.413,1.432
		c-0.028,0.029-0.082,0.035-0.255,0.102c0.177-0.895,0.309-1.738,0.521-2.572c0.147-0.572,0.085-0.906-0.441-1.119
		c-0.72-0.287-1.383-0.688-2.048-1.215c0.812-0.19,1.621-0.422,2.434-0.563c0.556-0.098,0.805-0.336,0.909-0.919
		c0.152-0.851,0.399-1.699,0.743-2.607c0.313,0.704,0.666,1.386,0.927,2.117c0.189,0.539,0.443,0.738,1.076,0.528
		c0.789-0.26,1.596-0.396,2.461-0.444c-0.655,0.711-1.297,1.437-1.973,2.125C214.219,316.757,214.125,317.014,214.311,317.418z
		 M217.882,308.438c-0.048,0.162-0.294,0.379-0.459,0.42c-3.915,0.944-7.832,1.879-11.75,2.785c-0.188,0.043-0.486-0.11-0.571-0.277
		c-0.729-1.424-1.418-2.877-2.136-4.311c-0.161-0.318-0.083-0.519,0.229-0.726c1.558-1.029,3.104-2.08,4.673-3.088
		c0.324-0.212,0.722-0.285,1.089-0.406c0.237-0.08,0.479-0.127,0.721-0.187c4.85-1.188,4.852-1.188,9.39-0.147
		c0.142,0.03,0.271,0.088,0.446,0.146C218.969,304.593,218.441,306.52,217.882,308.438z M228.571,306.911
		c-0.278,0.29-0.328,0.515-0.187,0.833c0.363,0.814,0.693,1.648,0.937,2.589c-0.903-0.406-1.81-0.812-2.74-1.229
		c-0.824,0.828-1.644,1.648-2.46,2.472c-0.044-0.021-0.087-0.037-0.133-0.058c0.243-1.115,0.487-2.231,0.739-3.387
		c-0.899-0.47-1.801-0.939-2.701-1.41c0.009-0.057,0.017-0.111,0.022-0.168c0.835-0.197,1.669-0.43,2.504-0.582
		c0.521-0.098,0.781-0.303,0.88-0.869c0.15-0.848,0.396-1.692,0.765-2.6c0.292,0.672,0.631,1.32,0.865,2.021
		c0.199,0.596,0.487,0.799,1.172,0.567c0.762-0.258,1.549-0.385,2.323-0.567c0.02,0.063,0.04,0.121,0.062,0.184
		C229.938,305.445,229.271,306.191,228.571,306.911z"/>
</g>
<path fill="none" stroke="#000000" stroke-miterlimit="10" d="M203.167,229.501c0,0,5.001,12.666,3.667,25.333"/>
<path fill="none" stroke="#000000" stroke-miterlimit="10" d="M135.333,258.834c0,0,2.957,3.166,4.645,10.5
	c1.688,7.334,9.355,17.834,40.521,14c18.856-2.318,26-14.334,25.667-20.5"/>
<path fill="none" stroke="#000000" stroke-miterlimit="10" d="M208.5,265c0,0,6.833,9.667,20.5,7.834s25.535-4.344,28.667-14"/>
<path fill="none" stroke="#000000" stroke-miterlimit="10" d="M220.167,274.668c0,0,27.298,0.814,35.481-7.843"/>
<path fill="none" stroke="#000000" stroke-miterlimit="10" d="M203.167,284.15c0,0,0.666-3.816,5.333-3.816"/>
<path fill="none" stroke="#000000" stroke-miterlimit="10" d="M201.834,265.949c0,0-0.515,9.051-17.681,12.218
	c-4.607,0.831-9.708,2.334-12.153,1.167"/>
<path fill="none" stroke="#000000" stroke-miterlimit="10" d="M210.834,288.001c0,0,3.499,2.167,1.166,10.167
	c-0.5,1.495-1.329,1.916-0.183,3.5c2.104,2.902,1.785,8.334,0.983,10.5"/>
<path fill="none" stroke="#000000" stroke-miterlimit="10" d="M204,298.668c0,0,11.001-1.166,13.334-2.5"/>
<path fill="none" stroke="#000000" stroke-miterlimit="10" d="M205.113,302.168c0,0,4.722-0.168,9.055-2.084"/>
<path fill="none" stroke="#000000" stroke-miterlimit="10" d="M195.167,288.001c-0.5-0.5,2.833,4.334-5.5,9.417
	s-7.607,2.583-15.221,9.083"/>
<path fill="none" stroke="#000000" stroke-miterlimit="10" d="M220.834,286.668c0,0-0.605,1.143,9.595,3.252
	c4.434,0.917,3.405,3.581,7.479,6.248c3.926,0,7.592-1.834,7.592-1.834"/>
<path fill="none" stroke="#000000" stroke-miterlimit="10" d="M140.625,225c-2,33.875-27.375,33.834-27.375,33.834
	s21.5-10.959,9-30.709"/>
<path fill="none" stroke="#000000" stroke-miterlimit="10" d="M120,229.501c10,17.001-4.875,25.333-4.875,25.333
	s5.25-15.709-3.875-23.584"/>
<path fill="none" stroke="#000000" stroke-miterlimit="10" d="M125.625,264.25c0,0,4.542,12.293,9.708,16.084"/>
<path fill="none" stroke="#000000" stroke-miterlimit="10" d="M122.75,265c0,0,5.125,11.984,10.5,17.242"/>
<path fill="none" stroke="#000000" stroke-miterlimit="10" d="M139,287.965c0,0,3.125,4.035,6.125,5.535s-10.458-2.333-10.458-2.333
	"/>
<path fill="none" stroke="#000000" stroke-miterlimit="10" d="M136.5,286.125c0,0-5.83-0.396-7.582-1.951"/>
<path fill="none" stroke="#000000" stroke-miterlimit="10" d="M152.25,300.084c0,0,6,7.668,13,6.417s12.875-10.806,13.625-12.653"/>
<path fill="none" stroke="#000000" stroke-miterlimit="10" d="M166.125,304.5c0,0,7.519-5.414,8.321-8.332"/>
<path fill="none" stroke="#000000" stroke-miterlimit="10" d="M161.625,304.5c0,0,8.262-4.539,9.131-7.082"/>
<path fill="none" stroke="#000000" stroke-miterlimit="10" d="M161,227.125c0,0,3.387,4.5,9.756,3.5s40.369-6.25,45.994-5.625
	c3.89-0.573,6.75-4,6.75-4"/>
<path fill="none" stroke="#000000" stroke-miterlimit="10" d="M159.625,222.5c0,0,2.756,3.875,6.564,4.125
	c3.81,0.25,46.895-6.25,53.978-6.125c3.708-1.25,4.458-3,4.458-3"/>
<path fill="none" stroke="#000000" stroke-miterlimit="10" d="M170.756,312.168c0,0,2.744-4.293,7.244-5.667"/>
<path fill="none" stroke="#000000" stroke-miterlimit="10" d="M170.286,315.875c0,0,2.839-5.25,4.714-4.75"/>
<line fill="none" stroke="#000000" stroke-miterlimit="10" x1="172" y1="318.25" x2="172.643" y2="315.875"/>
<path fill="none" stroke="#000000" stroke-miterlimit="10" d="M156.625,318.25c0,0,7.125,1.375,15.375,4
	c10.491,3.338,18.375,14.75,35.625,13.625c24.3-1.585,24.842-17.593,36.125-20.5"/>
<path fill="none" stroke="#000000" stroke-miterlimit="10" d="M146.389,376.636c0,0,0.611,11.382,5.861,18.498"/>
<path fill="#B4B4B4" stroke="#000000" stroke-miterlimit="10" d="M149.402,374.001c0,0,0.016,7.925,4.682,18.837"/>
<path fill="#B4B4B4" stroke="#000000" stroke-miterlimit="10" d="M273.039,333.622c0,0,15.128,3.331,25.299,9.871"/>
<path fill="#B4B4B4" stroke="#000000" stroke-miterlimit="10" d="M267.834,335.953c0,0,15.733,3.611,25.666,9.552"/>
<path fill="none" stroke="#000000" stroke-miterlimit="10" d="M244.193,346.168c0,0,0.183,5.09,0.808,6.148
	c0.625,1.058,12,5.184,19.875,2.934s11.641-5.404,21.842-8.125"/>
<path fill="#B4B4B4" stroke="#000000" stroke-miterlimit="10" d="M158,391.25c0,0,6.541-8.715,8.833-25.857"/>
<path fill="#EEEEEE" stroke="#000000" stroke-miterlimit="10" d="M128.333,186.333c5.773,1.243,18.333,12.333,0,36
	c-5.669,7.105-10.086,10.991-14,10.167c-19-4-36.269-28.231-37.134-19.366c0,0-2.7,1.699-3.2-4.468S91.167,178.333,128.333,186.333z
	"/>
<path fill="#EEEEEE" stroke="#000000" stroke-miterlimit="10" d="M245.667,209.833c0,0,24.501,4.833,27.167,3.167
	s7.999-8.5,8.166-13.833s-22.332-24.5-38.666-19.833s-13.333,3.954-13,5.394S227.334,203.5,245.667,209.833z"/>
<path fill="#EEEEEE" stroke="#000000" stroke-miterlimit="10" d="M62.807,310.566c-1.473,1.268-7.14,6.934-13.473,2.101
	s-12.523-14.908-14.19-19.741c-2.167-0.833-9.311-7.926-9.477-10.259c0,0-0.333-7.834,4.333-10.667
	c-2.667-11.333,3-22.833,13.333-27.667c0,0,1.167-6.333,1.667-8.167c3.667,1.667,13.276,1.385,13.276,1.385L57,241.667l-7.152,2.818
	c0,0,5.575,22.651,29.78,29.083c-3.925,0.537-5.482-0.981-5.64,1.809c0,0-18.427,6.668-20.708,29.813
	C57.5,309.167,62.807,310.566,62.807,310.566z"/>
<path fill="none" stroke="#000000" stroke-miterlimit="10" d="M157.667,241c1.667-0.5,4.167-5.5,5.167-7.167
	s-15.196-44.119-27.445-42.279c5.021,9.347,0.458,18.726-0.558,20.597c-0.12,0.22-0.19,0.336-0.19,0.336s5.692,3.68,10.359,25.18
	C151.833,240.667,156,241.5,157.667,241z"/>
<path fill="none" stroke="#000000" stroke-miterlimit="10" d="M221.667,194c0.833,3.833,6.832,21,6.166,30.667
	c3.667,2.167,8.001,5,10.334,4.833c0,0,6.166-5.833,7.166-8.667c0.232-3.359-1.059-11.521-1.059-11.521s-11.855-3.154-14.481-17.817
	C224.833,190.334,221.667,194,221.667,194z"/>
<path fill="#EEEEEE" stroke="#000000" stroke-miterlimit="10" d="M99.75,281.75c0,0-21.708,10.709-13.208,49.542
	c4.5,1.5,8.146,1.604,10.479,1.271c2.333-0.332,6.323-6.197,6.323-6.197s4.162,1.984,6.995-2.35
	c11.333-0.166,15.164-1.175,15.164-1.175s2.833,6.163,4.166,8.163c-2,1.666-2.001,1.664-1.834,2.831
	c-2.5,0.834-3.167,2.333-3.167,4.166c-2.5,0.167-3.001,2.583-2.167,4.583s1.667,0.916,1.667,2.916c0,0-2.688-0.027-2.167,1
	c0.652,1.287,7.17,7.834,7.668,13.167c3.332,0.5,8.999,0.334,9.499,0s10.487-9.978,11.154-13.31c1.846-0.357,3.846-4.19,3.946-7.857
	c0,0,2.732-2.166,1.732-5.833s-3-8.167-3.5-12.667s0.834-7.166-7.333-11.333S125,300.5,115.833,293c-4.807-3.35-7-2.75-7-2.75
	s0.953-3.546-0.083-4.416C107.757,285,99.75,281.75,99.75,281.75z"/>
<path fill="#EEEEEE" stroke="#000000" stroke-miterlimit="10" d="M286.333,213.001c0,0,15.917,31.499,1.417,52.999
	c11.457,0.371,13.5,2.5,17,2s7.473-3.421,9.75-7c8.75-13.75,17.44-37.142,17.5-42.25c0,0-7.317,2.896-21.5-5.4
	c-14.184-8.296-14.75-10.6-15.75-10.85s-3.25,7.028-4.5,7.888C289,211.248,287.666,210.752,286.333,213.001z"/>
<path fill="#EEEEEE" stroke="#000000" stroke-miterlimit="10" d="M292,368.75c0,0,3.526-12.869,9.889-12.686
	c6.362,0.185,14.611,13.436,2.361,28.936c-7.5,0.5-9.25-3.75-10.5-8.5c-16.75,2.5-24.086,8.453-28.168,13.227
	c0,0-1.203-7.045-0.48-8.234C269.749,373.842,288.75,367.75,292,368.75z"/>
<path fill="#EEEEEE" stroke="#000000" stroke-miterlimit="10" d="M157.25,412.5c0,0,6.565-11.063,15.815-7.813
	c5.264,3.006,6.935,8.813,7.185,9.813H186c0,0,1.102,3.714-1.5,8.834c-4,0.666-7-0.334-7-0.334s-4.25,5.75-9.75,5.75
	s-10-2.25-10.25-7.5c-4.315,0.17-8.741-0.398-12.822-2.699c0,0,1.164-5.044,2.587-8.796C152.557,413.001,157.25,412.5,157.25,412.5z
	"/>
<path fill="#EEEEEE" stroke="#000000" stroke-miterlimit="10" d="M261.25,392.285c0,0,20.5-16.313,43.5-0.063
	c-1.75,2.25-2.25,12.276-2.25,12.276H299c0,0-5.498,27.258-6.249,30.629c2.749,2.621,4.499,4.121,6.999,14.371
	c0,0,2.905,3.5,16.702,5.25l1.354,4.75H320l1.25,2.875L305.5,470.5H301l-19.999-5.75l-6.501-10L269,461l-10-1.999l-1.75-12.751
	l3.75-15.795c0,0,3.75-7.955,1.75-25.955H260L261.25,392.285z"/>
<path fill="#EEEEEE" stroke="#000000" stroke-miterlimit="10" d="M172.744,464.66l1.797-18.139l3.665-0.186
	c0,0,6.271-9.475,7.719-15.322c-31.247,4.253-47.083-5.338-47.083-5.338s-2.054,8.136-3.789,16.377l3.191,2.219l1.745,21.508
	c0,0-1.196,1.587-1.677,3.153c-0.479,1.567,0.422,5.318,0.422,5.318l-9.473,9.696l0.604,4.585l5.118,8.967h20.922l3.762-4.182
	l10.197-11.319c0,0-1.027-4.235-0.594-5.032l0.594,3.136l2.59-2.856l-1.59-6.909L172.744,464.66z"/>
<path fill="none" stroke="#000000" stroke-miterlimit="10" d="M165.667,474.668l0.167,6.166c0,0-7.124,8.5-11.75,12.166
	c0,0-14.125,0.832-16.458,0s-2.667-3.215-2.792-6.625c-0.167-4.541,9.333-10.208,9.333-10.208"/>
<path fill="none" stroke="#000000" stroke-miterlimit="10" d="M147,470.334c0,0,2.333,4.508,8.833,4.254s9.667-3.087,9.667-3.087"/>
<path fill="none" stroke="#000000" stroke-miterlimit="10" d="M147,467.334l-5.833-22.166c0,0,10.5,5.499,25.833,2.666l-1.5,20.667"
	/>
<path fill="none" stroke="#000000" stroke-miterlimit="10" d="M138.842,425.677c0.158-1.676,4.386-1.413,4.386-1.413l-0.733,3.128
	L138.842,425.677z"/>
<path fill="none" stroke="#000000" stroke-miterlimit="10" d="M180.256,431.654l5.669-0.641c0,0-1.93-2.349-4.177-2.265
	L180.256,431.654z"/>
<path fill="none" stroke="#000000" stroke-miterlimit="10" d="M139.842,428.75l-3.175,11.918c0,0,14.667,9.332,41.167,3.5
	c1-1,2.422-4.5,2.422-4.5"/>
<path fill="none" stroke="#000000" stroke-miterlimit="10" d="M140.458,459.021c0.502-0.707,1.483-0.873,2.19-0.37
	c0.708,0.503,0.875,1.482,0.372,2.189s-1.482,0.873-2.19,0.37"/>
<path fill="none" stroke="#000000" stroke-miterlimit="10" d="M139.624,450.807c0.868,0.021,1.552,0.738,1.53,1.605
	c-0.021,0.866-0.74,1.553-1.608,1.533"/>
<path fill="none" stroke="#000000" stroke-miterlimit="10" d="M142.077,466.505c0.786-0.365,1.721-0.022,2.086,0.763
	c0.365,0.788,0.022,1.723-0.765,2.089c-0.787,0.364-1.721,0.022-2.086-0.766"/>
<path fill="none" stroke="#000000" stroke-miterlimit="10" d="M283.711,428.163c-0.682,0.537-1.669,0.422-2.206-0.259
	c-0.538-0.684-0.422-1.67,0.259-2.209c0.682-0.537,1.67-0.421,2.207,0.262"/>
<path fill="none" stroke="#000000" stroke-miterlimit="10" d="M283.711,417.162c-0.681,0.538-1.668,0.423-2.205-0.258
	c-0.539-0.682-0.423-1.67,0.258-2.209c0.681-0.537,1.668-0.422,2.207,0.261"/>
<path fill="none" stroke="#000000" stroke-miterlimit="10" d="M284.711,407.162c-0.681,0.538-1.668,0.423-2.205-0.258
	c-0.539-0.682-0.423-1.67,0.258-2.209c0.681-0.537,1.668-0.422,2.207,0.261"/>
<polyline fill="none" stroke="#000000" stroke-miterlimit="10" points="269,461 270.334,453.358 259.834,451.501 "/>
<path fill="none" stroke="#000000" stroke-miterlimit="10" d="M274.667,450.502l-4.333,2.856L274.667,450.502z"/>
<line fill="none" stroke="#000000" stroke-miterlimit="10" x1="274.5" y1="454.75" x2="274.667" y2="449.502"/>
<path fill="none" stroke="#000000" stroke-miterlimit="10" d="M277,436.168c0,0,8.834,15.548,9.334,17.19
	c0.5,1.642,17.5,9.476,17.332,9.476c-0.166,0,9.5-4.476,9.5-4.476"/>
<polyline fill="none" stroke="#000000" stroke-miterlimit="10" points="316.452,461 302.334,467.334 282.167,461 277,453.358 "/>
<path fill="none" stroke="#000000" stroke-miterlimit="10" d="M281.167,437.555c0,0,3.606,4.947,3.804,7.613
	s2.862,5.666,4.279,6.333"/>
<path fill="none" stroke="#000000" stroke-miterlimit="10" d="M263.667,399.834c0,0,8-5.166,18.5-4.666s18.167,5.5,18.167,5.5"/>
<path fill="none" stroke="#000000" stroke-miterlimit="10" d="M296.727,401.334c-16.939-9-31.643,1-31.643,1"/>
<line fill="none" stroke="#000000" stroke-miterlimit="10" x1="294.334" y1="388.501" x2="292.665" y2="397.174"/>
<line fill="none" stroke="#000000" stroke-miterlimit="10" x1="296.727" y1="387.748" x2="295.084" y2="395.834"/>
<line fill="none" stroke="#000000" stroke-miterlimit="10" x1="298.424" y1="388.501" x2="297.666" y2="395.134"/>
<path fill="none" stroke="#000000" stroke-miterlimit="10" d="M275.834,430.201L279,400.668c0,0,8.333-2,14.5,0"/>
<line fill="none" stroke="#000000" stroke-miterlimit="10" x1="270.334" y1="399.758" x2="269.667" y2="420.168"/>
<polyline fill="none" stroke="#000000" stroke-miterlimit="10" points="269.667,409.963 274.667,409.001 275.834,400.668 "/>
<path fill="none" stroke="#000000" stroke-miterlimit="10" d="M267.834,431.654c0,0,5.501,3.936,24.917,3.475"/>
<path fill="none" stroke="#000000" stroke-miterlimit="10" d="M162.167,414.357c0,0,3-8.522,9.333-5.189s3.5,9.166,3.5,9.166"/>
<path fill="none" stroke="#000000" stroke-miterlimit="10" d="M266.167,385.018c0,0,12-11.017,27.333-11.017"/>
<path fill="none" stroke="#000000" stroke-miterlimit="10" d="M300.334,362.168c0,0-6.666,8.35,0,17.341"/>
<path fill="none" stroke="#000000" stroke-miterlimit="10" d="M304.332,361.001c0,0,6.666,2.999,1.5,16.833"/>
<path fill="none" stroke="#000000" stroke-miterlimit="10" d="M160.667,420.168c0,0,2.833,8.667,12.333,3"/>
<path fill="none" stroke="#000000" stroke-miterlimit="10" d="M129.668,331.004c0,0,7.499,3.998,10.499,4.664
	c-0.667,0.833-2.599,6.5,0.868,6.833c-2.701,2.5-0.633,5.667,0,6.5c-3.035-0.167-4.832,1.334-5.684,3.167
	c-1.852,0-1.685-0.333-1.852,0s0,0,0,0s0.167-8.669-9.333-6.668"/>
<path fill="none" stroke="#000000" stroke-miterlimit="10" d="M124.667,338.001c0,0,6.333-0.666,9,8.167
	c0.667-8.5,1.331-12.509,1-12.666"/>
<path fill="none" stroke="#000000" stroke-miterlimit="10" d="M127.834,333.835c0,0,7.096-2.751,5.886,11.67"/>
<path fill="none" stroke="#000000" stroke-miterlimit="10" d="M104.667,285.668c0,0-16.833,7.666-9.333,42.833"/>
<path fill="none" stroke="#000000" stroke-miterlimit="10" d="M100.667,296.334c0,0,2.497-6.363,5.5-8"/>
<path fill="none" stroke="#000000" stroke-miterlimit="10" d="M99.038,294.501c0,0-4.704,8-2.871,27.5
	c1.5-8.167,2.871-10.667,2.871-10.667s-0.371,8.168,4.379,13.334"/>
<path fill="none" stroke="#000000" stroke-miterlimit="10" d="M107.5,318.834c0,0-0.489,2.363,2.839,5.182"/>
<path fill="none" stroke="#000000" stroke-miterlimit="10" d="M124.667,317.334c0,0-0.147,3.419,0.835,5.507"/>
<path fill="none" stroke="#000000" stroke-miterlimit="10" d="M110.339,301.834c0,0,19.678,0.533,26.503,5.5"/>
<path fill="none" stroke="#000000" stroke-miterlimit="10" d="M35.667,288.334c0,0-3.713-8.154-4.833-12.957"/>
<path fill="none" stroke="#000000" stroke-miterlimit="10" d="M44.833,266.001c0,0,8.511,5.29,18.833,7.333"/>
<path fill="none" stroke="#000000" stroke-miterlimit="10" d="M40.667,283.334c0,0,2.667-9.834,16.167-10"/>
<path fill="none" stroke="#000000" stroke-miterlimit="10" d="M35.667,263.334c0,0,1.666,9.334,15.333,7.834"/>
<path fill="none" stroke="#000000" stroke-miterlimit="10" d="M45,236.167c0,0,0.667,10.667,6,19.334"/>
<path fill="none" stroke="#000000" stroke-miterlimit="10" d="M44.833,255.501c0,0-1.667-2.335-1.5-11.167"/>
<path fill="none" stroke="#000000" stroke-miterlimit="10" d="M48,240.167c0,0,1.453,2.996,1.848,4.318"/>
<path fill="none" stroke="#000000" stroke-miterlimit="10" d="M48,311.568c0,0-4.833-17.234,13.833-33.234"/>
<path fill="none" stroke="#000000" stroke-miterlimit="10" d="M55.5,280.501c0,0,10.479-8.021,18.49-8.844"/>
<line fill="none" stroke="#000000" stroke-miterlimit="10" x1="35" y1="279.668" x2="40.667" y2="290.501"/>
<path fill="none" stroke="#000000" stroke-miterlimit="10" d="M81.833,205.447c0,0,4-0.416,12.167,7.902s11.072,7.984,19.453,7.818
	c8.38-0.166,18.714-11.333,19.88-13.667"/>
<path fill="none" stroke="#000000" stroke-miterlimit="10" d="M79.628,204.27c0,0,0.039-7.941,23.789-14.355"/>
<path fill="none" stroke="#000000" stroke-miterlimit="10" d="M123.5,189.001c0,0,15.167,2.833,4.833,18.5"/>
<path fill="none" stroke="#000000" stroke-miterlimit="10" d="M133.333,192.501c0,0,2.093,3.6,0,10.667"/>
<line fill="none" stroke="#000000" stroke-miterlimit="10" x1="113.5" y1="201" x2="113.5" y2="219"/>
<line fill="none" stroke="#000000" stroke-miterlimit="10" x1="110.5" y1="203" x2="110.5" y2="212"/>
<line fill="none" stroke="#000000" stroke-miterlimit="10" x1="98.5" y1="199" x2="98.5" y2="216"/>
<line fill="none" stroke="#000000" stroke-miterlimit="10" x1="100.5" y1="203" x2="100.5" y2="213"/>
<line fill="none" stroke="#000000" stroke-miterlimit="10" x1="96.5" y1="204" x2="96.5" y2="213"/>
<path fill="none" stroke="#000000" stroke-miterlimit="10" d="M126.333,199c0,0-0.653,4.06-1.743,6.447"/>
<path fill="none" stroke="#000000" stroke-miterlimit="10" d="M129.167,199c0,0-1.486,6.666-4.576,11"/>
<path fill="none" stroke="#000000" stroke-miterlimit="10" d="M276.667,201c0,0-4.255,10.846-23.211,10.257"/>
<path fill="none" stroke="#000000" stroke-miterlimit="10" d="M275.667,194.834c0,0,1,13.165-17.167,13.666S240,199,240,199"/>
<path fill="none" stroke="#000000" stroke-miterlimit="10" d="M245.361,197.093c0,0,3.176,7.685,11.64,9.047"/>
<path fill="none" stroke="#000000" stroke-miterlimit="10" d="M243.25,197.093c0,0,3.158,9.573,11.704,10.907"/>
<path fill="none" stroke="#000000" stroke-miterlimit="10" d="M302.334,221.224c0,0,13.838,14.007,10.252,42.225"/>
<path fill="none" stroke="#000000" stroke-miterlimit="10" d="M301.375,244.667c0,0-2.104-17.477-11.375-30.5
	c10.5,11,12.334,11.667,15.166,23.667"/>
<path fill="none" stroke="#000000" stroke-miterlimit="10" d="M303.834,264.957c0,0,1.5-3.457,1.333-5.957"/>
<path fill="none" stroke="#000000" stroke-miterlimit="10" d="M296.745,266.841c0,0,2.255-7.008,2.255-15.175"/>
<path fill="none" stroke="#000000" stroke-miterlimit="10" d="M290.25,210.388c0,0,9.416,7.028,9.75,8.237"/>
<path fill="none" stroke="#000000" stroke-miterlimit="10" d="M295.125,210.388c0,0,16.383,16.65,20.209,16.612"/>
<path fill="none" stroke="#000000" stroke-miterlimit="10" d="M303.834,218.744c0,0,17.792,8.864,27.063,5.394"/>
<path fill="none" stroke="#000000" stroke-miterlimit="10" d="M311.479,239.798c0,0,4.194-9.308,4.284-16.492"/>
<path fill="none" stroke="#000000" stroke-miterlimit="10" d="M319.521,224.232c0,0-4.233,13.386-7.21,19.577"/>
<path fill="none" stroke="#000000" stroke-miterlimit="10" d="M312.838,247.666c0,0,10.175-20.558,10.829-21.666"/>
<path fill="none" stroke="#000000" stroke-miterlimit="10" d="M313.096,250.995c0,0,12.235-21.937,12.571-23.995"/>
<path fill="none" stroke="#000000" stroke-miterlimit="10" d="M313.173,255c0,0,11.327-17.652,13.993-25.493"/>
<path fill="#EEEEEE" stroke="#000000" stroke-miterlimit="10" d="M297.5,197.75c0,0,32.25,15.586,36.25,10.918
	c1-5.668,2-12.918,4.25-13.918s-30.5-4.5-35.75-11.5C300.137,195.624,297.5,197.75,297.5,197.75z"/>
<polygon fill="#BEBEBE" stroke="#000000" stroke-miterlimit="10" points="292,193.5 372.166,188 375.832,181.667 371.332,176.833 
	290.833,183.25 287.167,188.5 "/>
<polygon fill="#BEBEBE" stroke="#000000" stroke-miterlimit="10" points="316.452,191.822 338.62,479.588 347.5,497.5 
	354.5,478.001 345.488,189.831 "/>
<polygon fill="#1E1E1E" stroke="#000000" stroke-miterlimit="10" points="310.5,112.5 341,109.5 344.975,178.935 315.006,181.323 
	"/>
<polygon fill="#BEBEBE" stroke="#000000" stroke-miterlimit="10" points="341.25,109.625 343.5,106 343.5,101 338.11,98.5 
	310.5,101 305,103 305.666,111.5 310.5,112.5 "/>
<path fill="#BEBEBE" stroke="#000000" stroke-miterlimit="10" d="M311.382,93.047L309.5,101l27.834-2.5l-2.625-7.491
	C334.709,91.009,314.231,94.138,311.382,93.047z"/>
<path fill="#EEEEEE" stroke="#000000" stroke-miterlimit="10" d="M302.069,182.418l12.938-1.095l-0.558-8.508
	c6.552-6.148,2.004-22.315,5.188-21.805c0,0,1.183,1.495,2.766,0.829c-1.583,0.667,1.591,10.664,9.091,7.664
	c0,0,1.004-0.667,0.004-4.834c0.833-2.5,1.333-4.5-0.998-7.251c-2.33-2.751-1.997-6.75-6.247-7.934
	c-4.015-1.118-8.253-2.485-12.75-0.65c-3.173,3.341-14.667,11.5-8.167,32.833C303.166,178.833,302.069,182.418,302.069,182.418z"/>
<path fill="#EEEEEE" stroke="#000000" stroke-miterlimit="10" d="M348.473,178.656c0,0,3.692-4.989,2.859-7.989
	s-5.233-9.624-6.357-10.494s-3.975,1.161-7.641,1.494c0,0-5.999,1.833,0,5.833c0,0,6.029,0.831,7.015,0.499l0.626,10.936
	L348.473,178.656z"/>
<path fill="#EEEEEE" stroke="#000000" stroke-miterlimit="10" d="M356.5,163.333c0,0-8.719-12-11.525-12.667
	S337.166,154,332,155.333c-0.063,2.333-0.509,4.169-0.509,4.169s-0.142,3.726,8.076,1.759c1.834-0.438,3.765-1.088,4.32-1.303
	c2.61-1.083,7.565,12.208,7.565,12.208S355.5,166.667,356.5,163.333z"/>
<path fill="#EEEEEE" stroke="#000000" stroke-miterlimit="10" d="M353.211,159.016c2.289-4.849,0.414-8.423,0.414-8.423
	s-7.585-8.217-10.293-7.259c-2.707,0.958-11.989,5.244-11.989,5.244s-4.511,3.381,0.35,6.991c1.843-0.706,8.399-3.88,11.666-4.87
	C346.626,149.709,349.957,155.5,353.211,159.016z"/>
<path fill="#EEEEEE" stroke="#000000" stroke-miterlimit="10" d="M348.84,146.049c0,0,3.785-6.882,1.035-10.216
	s-7.834-0.25-16.084-2.25c-3.601,2.542,1.624,6.667,3.291,6.625s5.683,0.122,5.683,0.122l0.734,2.96
	C343.5,143.291,345.454,142.948,348.84,146.049z"/>
<circle fill="#BEBEBE" stroke="#000000" stroke-miterlimit="10" cx="322" cy="75.833" r="20.5"/>
<line fill="none" stroke="#000000" stroke-miterlimit="10" x1="346.75" y1="485.375" x2="330.787" y2="190.839"/>
<line fill="none" stroke="#000000" stroke-miterlimit="10" x1="291.961" y1="185.914" x2="369.834" y2="179.701"/>
<line fill="none" stroke="#000000" stroke-miterlimit="10" x1="290.5" y1="188.667" x2="372.5" y2="182.745"/>
<line fill="none" stroke="#000000" stroke-miterlimit="10" x1="292.834" y1="190.932" x2="369.834" y2="185.706"/>
<circle fill="#1E1E1E" stroke="#000000" stroke-miterlimit="10" cx="321.875" cy="75.708" r="15.375"/>
<path fill="#FDCAB5" stroke="#000000" stroke-miterlimit="10" d="M166,222.5c1.75,3,45.319-2.966,59.803-8.104
	c3.181-10.259,9.697-13.521,14.197-19.271s2.75-24.063,3.25-25.563s4-1.781,4.75-15.281s3.75-18.016,1.25-29.516
	c-1.25,8-4.25,18.242-4.25,18.242s-4.25-32.504-7-47.004c-8.25,4.5-19,4.498-20.75,4.248l1.5,1.749c-10.638,3.75-24,13-46,6.5
	c0,0-18.5,2.375-32.875-4.5c-1.625,14.375-4.125,22.375-4.125,22.375s1.75,11.5,1.125,21.625c1.875-0.25,2.375,12,1,18.375
	c0,0-10.125-3.5-13.875-24.125c-1.375,0.125-3.625-4.375-3.625-8.125c0,0-1.875,1.125-2.375-0.5s-1.25-2-1.25-2s-5.25,3.625-2.5,14
	c1.125,6.625,9.25,19.75,9.375,23.625s0.625,8.75,7.875,9.875c0,0,2.951,9.665,7.201,13.165c0,0,4.834-0.369,11.619,12.618
	c6.786,12.987,12.305,17.592,12.305,17.592H166z"/>
<path fill="#AD5961" stroke="#000000" stroke-miterlimit="10" d="M178.333,193.5c0,0,9-9.831,22.167-11.082s23,5.541,23,5.541
	s-17.439-11.125-19.388-11.125c0,0-0.612,1.869-4.112,2.101s-3.5-1.101-3.5-1.101C193,178.167,178.333,193.5,178.333,193.5z"/>
<path fill="none" stroke="#000000" stroke-miterlimit="10" d="M185.667,127.5c0,0,3.151,4.167,3.826,12.333
	c0.674,8.166,1.841,12.333,1.841,12.333"/>
<path fill="none" stroke="#000000" stroke-miterlimit="10" d="M190.167,155.667c0,0-3.858-5.5-6.014,2.167
	c-0.177,5.652,1.999,6.667,3.007,7c0,0,0.508-1.5,3.174-1.333s4.833,1.333,8.833,1.333s7.287-2.98,7.894-3.657
	c0,0,2.272,1.083,3.939,0.203c0,0,1.87-0.255,0.667-5.546C210,148.5,205.113,153,205.113,153"/>
<path fill="none" stroke="#000000" stroke-miterlimit="10" d="M215.5,155.833c0,0,6.501,11.167,6.834,15.667"/>
<path fill="none" stroke="#000000" stroke-miterlimit="10" d="M178.333,159.958c0,0-5.333,12.911-5.833,18.976"/>
<path fill="none" stroke="#000000" stroke-miterlimit="10" d="M178.333,141.333c0,0,3.5,3.667,3.833,6.167"/>
<path fill="none" stroke="#000000" stroke-miterlimit="10" d="M207.061,141.333c0,0,0.606-4.167,1.106-5.333"/>
<path fill="none" stroke="#000000" stroke-miterlimit="10" d="M187.16,164.833c0,0,2.026,0.104,2.715-0.333
	c0.688-0.437,2.625,1.688,8.875,1.813s7.278-3.087,8.862-3.829"/>
<path fill="none" stroke="#000000" stroke-miterlimit="10" d="M145,189.915c0,0,3.384,7.442,8.688,13.167
	c4.785,5.165,10.845,3.711,12.938,7.417c6.156,7.669,10.625,8.125,10.625,8.125"/>
<path fill="none" stroke="#000000" stroke-miterlimit="10" d="M168,215.5c0,0-3-4.914-6-6.332"/>
<path fill="none" stroke="#000000" stroke-miterlimit="10" d="M164.25,198.25c0,0,3.25,4.836,13,10.918s39.944,5.207,50.785-10.918"
	/>
<path fill="none" stroke="#000000" stroke-miterlimit="10" d="M189.493,189.915c0,0,14.757-7.953,27.757-1.434"/>
<path fill="none" stroke="#000000" stroke-miterlimit="10" d="M150.875,155.833c0,0,4.75,6.875,5.625,7.833"/>
<path fill="none" stroke="#000000" stroke-miterlimit="10" d="M148.25,156.5c0,0,8,10.875,8.25,18.875"/>
<path fill="none" stroke="#000000" stroke-miterlimit="10" d="M143.125,150.375c0,0,1.25,6.875,7.75,13.875
	c2.89,5.196,2.813,14.125,2.813,14.125"/>
<path fill="none" stroke="#000000" stroke-miterlimit="10" d="M146.75,162.483c0,0-4.375-4.733-6.125-8.108"/>
<path fill="none" stroke="#000000" stroke-miterlimit="10" d="M231.5,168v-10c0,0,9.5-5.5,9.25-24.75"/>
<path fill="none" stroke="#000000" stroke-miterlimit="10" d="M234.625,163.667c0,0,1-6.917,2-9.292"/>
<path fill="none" stroke="#000000" stroke-miterlimit="10" d="M236.625,163.667c0,0,2.385-11.542,4.13-13.042"/>
<path fill="none" stroke="#000000" stroke-miterlimit="10" d="M240,162.483c0,0,2.375-15.483,3.25-18.983"/>
<path fill="none" stroke="#000000" stroke-miterlimit="10" d="M243.25,169.563c0,0,2.206-14.131,1.75-22.063"/>
<path fill="none" stroke="#000000" stroke-miterlimit="10" d="M246.848,150.625c0,0,1.32-13.239,0.549-16.745"/>
<path fill="none" stroke="#000000" stroke-miterlimit="10" d="M124,162.483c0.188,3.666,1.375,4.832,1.375,4.832
	s1.164-4.349-1.918-9.082c0,0,1.293-6.108-1.082-10.733S115,138.667,115,138.667s5.125,12.44,6.625,14.324
	c1.5,1.884,0.625,5.242,0.625,5.242"/>
<path fill="none" stroke="#000000" stroke-miterlimit="10" d="M120.295,157.146c0,0-1.8-6.646-1.485-9.646"/>
<path fill="none" stroke="#000000" stroke-miterlimit="10" d="M140.625,143.875c0,0,3.125-0.244,5.125-1.622"/>
<path fill="none" stroke="#000000" stroke-miterlimit="10" d="M140.625,137.125c0,0,3.75,1,6.125,0.625"/>
<path fill="none" stroke="#000000" stroke-miterlimit="10" d="M141.5,133.25c0,0,3.875,3.625,7.875,1.75"/>
<path fill="none" stroke="#000000" stroke-miterlimit="10" d="M203.371,149.5c0,0-6.496-18.75-0.996-29.375"/>
<path fill="none" stroke="#000000" stroke-miterlimit="10" d="M156.5,136.5c0,0,13.334,3.5,25.667-3.75"/>
<path fill="none" stroke="#000000" stroke-miterlimit="10" d="M206.5,129.75c0,0,10.875,4.5,23.75-3.25"/>
<path fill="none" stroke="#000000" stroke-miterlimit="10" d="M230.25,128.774c0,0,2.625,1.074,3.25,2.275"/>
<path fill="none" stroke="#000000" stroke-miterlimit="10" d="M233.5,126.5c0,0,3.125,1.449,3.75,3.412"/>
<path fill="none" stroke="#000000" stroke-miterlimit="10" d="M236.127,124.125c0,0,2.998,2,3.873,2.375"/>
<path fill="#FFFFFF" stroke="#000000" stroke-miterlimit="10" d="M158.5,131.049c0,0,13,1.75,21-2.275
	C174.625,125.25,162.25,125.724,158.5,131.049z"/>
<path fill="#FFFFFF" stroke="#000000" stroke-miterlimit="10" d="M207.25,125.5c0,0,6-10,21-2.875
	C218.375,126.5,207.25,125.5,207.25,125.5z"/>
<path fill="#315FFF" stroke="#000000" stroke-miterlimit="10" d="M174.322,128.742c0,0.712,0.01,1.654-0.604,1.924
	c-1.594,0.703-5.371,0.67-5.371,0.67c-0.741-0.635-1.208-1.562-1.208-2.594c0-0.78,0.267-1.5,0.717-2.079
	c0,0,2.875-0.344,5.797,0.063C174.354,126.824,174.322,127.99,174.322,128.742z"/>
<path fill="#315FFF" stroke="#000000" stroke-miterlimit="10" d="M223.39,122.632c0.001,0.586-0.148,1.138-0.414,1.622
	c0,0-2.358,0.49-5.564,0.97c-0.737-0.635-1.202-1.558-1.203-2.586c-0.001-1.009,0.478-1.884,1.158-2.552
	c1.791-0.148,5.355,0.536,5.355,0.536C223.142,121.188,223.389,121.882,223.39,122.632z"/>
<circle cx="170.844" cy="128.031" r="1.469"/>
<circle cx="219.844" cy="122.031" r="1.469"/>
<path fill="none" stroke="#000000" stroke-miterlimit="10" d="M201.768,171.188c0,0-0.143,3.125,0.92,4.188"/>
<path fill="none" stroke="#000000" stroke-miterlimit="10" d="M196.625,175.375c0,0,0.563-2.938,0-4.188"/>
<line fill="none" stroke="#000000" stroke-miterlimit="10" x1="189.737" y1="182.476" x2="189.188" y2="185.914"/>
<line fill="none" stroke="#000000" stroke-miterlimit="10" x1="192.878" y1="179.883" x2="192.456" y2="184.298"/>
<line fill="none" stroke="#000000" stroke-miterlimit="10" x1="195.75" y1="178.375" x2="195.167" y2="183.416"/>
<line fill="none" stroke="#000000" stroke-miterlimit="10" x1="198.639" y1="178.942" x2="198.107" y2="182.745"/>
<line fill="none" stroke="#000000" stroke-miterlimit="10" x1="201.761" y1="178.935" x2="201.199" y2="182.091"/>
<line fill="none" stroke="#000000" stroke-miterlimit="10" x1="204.541" y1="176.925" x2="203.625" y2="182.476"/>
<line fill="none" stroke="#000000" stroke-miterlimit="10" x1="206.78" y1="177.941" x2="206.5" y2="182.372"/>
<line fill="none" stroke="#000000" stroke-miterlimit="10" x1="209.313" y1="179.701" x2="209.063" y2="182.372"/>
<line fill="none" stroke="#000000" stroke-miterlimit="10" x1="212.025" y1="180.896" x2="211.55" y2="183.123"/>
<path fill="none" stroke="#000000" stroke-miterlimit="10" d="M134.641,174.167c0,0-2.848,0.333-4.161-3.833
	c-1.313-4.166,8.854,7.771,10.021,10.179"/>
<path fill="#FBB03B" stroke="#000000" stroke-miterlimit="10" d="M191.834,112.417c0,0,2.25,10.75-5.75,11.083
	s-12.001-5.104-21.084-1.469c-9.083,3.635-13.667,9.552-19.25,8.635s-7.416-3.917-8.083-6.542c3.25,3.292,5.458,3.375,5.458,3.375
	l-4.042-5.911l5,2.536l-2.5-5.458c0,0,4.833,2.958,5.167,2.896s-3.063-6.979-3.063-6.979l6.729,4.167L149,115.333l4.688,1.833
	c0,0-4.021-4.583-4.313-9.25c5.792,5.5,10.375,9,12.375,8.167L159.083,112c0,0,7,4.417,9.583,3.833
	c0.512-0.583-0.333-1.333-2.333-4.083c1.75,0.75,7.868,5.208,11,5.833c2.517,0.503,4.604,2.979,9.167,2.979
	C192.126,120.563,191.834,112.417,191.834,112.417z"/>
<path fill="#FBB03B" stroke="#000000" stroke-miterlimit="10" d="M196.167,112.833c-1.334,0.417-1.422,9.25,3.997,8.5
	s8.439-6.5,19.68-5.417s14.406,3.877,16.781,4.147s6.688-6.313,7.53-7.23c0.844-0.917-5.738,4.793-7.53,4.271
	c0,0,4.625-5.271,5-7.855c-2.125,2.417-6.25,5.5-6.25,5.5s3.042-6.333,2.375-6.833l-5.875,3.833c0,0,3.792-7,3.75-8.667
	c-3.042,5-7.375,8.083-8.125,8c0,0,2.917-4.167,2.75-5c-1.917,2.167-6.083,2.833-6.083,2.833s4.858-4.393,5.333-5.833
	c-2.083,1.833-10.001,6.583-11.167,6.917c0,0,3.778-5.583,3.057-6.583c-2.991,4.055-8.453,7.611-8.973,7.583l1.833-3.917
	c0,0-8.75,7.833-13.333,11.5C200.917,118.583,196.166,119.083,196.167,112.833z"/>
</svg>
