<?xml version="1.0" encoding="iso-8859-1"?>
<!-- Generator: Adobe Illustrator 16.0.0, SVG Export Plug-In . SVG Version: 6.00 Build 0)  -->
<!DOCTYPE svg PUBLIC "-//W3C//DTD SVG 1.1//EN" "http://www.w3.org/Graphics/SVG/1.1/DTD/svg11.dtd">
<svg version="1.1" id="Layer_1" xmlns="http://www.w3.org/2000/svg" xmlns:xlink="http://www.w3.org/1999/xlink" x="0px" y="0px"
	 width="256px" height="256px" viewBox="0 0 256 256" style="enable-background:new 0 0 256 256;" xml:space="preserve">
<polyline style="fill:#3B3B3B;" points="100.331,26.105 46.333,147.333 94.746,237.428 158.634,237.384 227,120.667 163,26.105 "/>
<path style="fill-rule:evenodd;clip-rule:evenodd;fill:#FFFFFF;" d="M246.805,131.552c-4.156,1.787-5.541,4.51-6.881,7.186
	c-3.045,6.072-5.82,12.205-8.659,18.318c-2.068,4.467-4.068,8.941-6.093,13.416c-2.922,6.457-5.827,12.924-8.762,19.385
	c-2.504,5.51-5.053,11.01-7.557,16.525c-2.427,5.338-4.828,10.682-7.236,16.021c-2.613,5.793-8.003,10.166-16.592,12.813
	c-4.127,1.271-8.525,1.986-13.182,1.992c-26.686,0.047-10.657,0.117-37.342,0.176c-0.316,0-0.632,0-1.207,0
	c5.467-2.098,8.063-5.391,10.07-8.771c3.363-5.668,6.233-11.455,9.242-17.207c2.488-4.754,4.88-9.531,7.309-14.297
	c2.799-5.492,5.587-10.984,8.386-16.479c2.681-5.268,5.368-10.531,8.053-15.801c2.787-5.461,5.513-10.939,8.382-16.383
	c1.352-2.568,2.684-5.17,4.543-7.596c2.814-3.678,3.277-7.934,9.561-9.299C201.249,131.03,220.537,131.61,246.805,131.552
	C247.074,131.552,246.223,131.526,246.805,131.552z"/>
<path style="fill-rule:evenodd;clip-rule:evenodd;fill:#FFFFFF;stroke:#FFFFFF;stroke-miterlimit:10;" d="M67.225,131.614
	c4.156,1.787,6.102,4.338,7.441,7.013c3.045,6.072,5.82,12.205,8.659,18.319c2.068,4.466,4.068,8.941,6.093,13.416
	c2.922,6.457,5.827,12.924,8.762,19.384c2.504,5.511,5.053,11.011,7.557,16.525c2.427,5.338,4.828,10.682,7.236,16.021
	c2.613,5.793,2.003,10.167,10.592,12.813c4.127,1.271,2.863,2.492,7.52,2.498c23.238,0.042,22.93-0.284,40.083-0.33
	c2.545-0.007,8.946-0.481,8.405-0.743c-4.314-2.088-6.563-5.023-8.348-8.028c-3.363-5.667-6.233-11.454-9.242-17.206
	c-2.488-4.755-4.88-9.532-7.309-14.298c-2.799-5.492-5.587-10.984-8.386-16.478c-2.681-5.268-5.368-10.532-8.053-15.801
	c-2.787-5.461-5.513-10.939-8.382-16.384c-1.352-2.568-2.684-5.17-4.543-7.596c-2.814-3.677-3.277-7.675-9.561-9.04
	c-2.409-0.522-21.137-0.079-47.404-0.137C68.076,131.563,67.806,131.588,67.225,131.614z"/>
<path style="fill-rule:evenodd;clip-rule:evenodd;fill:#222222;" d="M19.785,131.772c4.156-1.787,5.541-4.51,6.881-7.185
	c3.045-6.072,5.82-12.205,8.659-18.319c2.068-4.466,4.068-8.941,6.093-13.416c2.922-6.457,5.827-12.924,8.762-19.384
	c2.504-5.511,5.053-11.011,7.557-16.525c2.427-5.338,4.828-10.682,7.236-16.021c2.613-5.793,8.003-10.167,16.592-12.813
	c4.127-1.271,8.525-1.986,13.182-1.992c26.686-0.048,10.657-0.117,37.342-0.176c0.316,0,0.632,0,1.207,0
	c-5.467,2.097-8.063,5.391-10.07,8.771c-3.363,5.667-6.233,11.454-9.242,17.206c-2.488,4.755-4.88,9.532-7.309,14.298
	c-2.799,5.492-5.587,10.984-8.386,16.478c-2.681,5.268-5.368,10.532-8.053,15.801c-2.787,5.461-5.513,10.939-8.382,16.384
	c-1.352,2.568-2.684,5.17-4.543,7.596c-2.814,3.677-7.027,7.933-13.311,9.298C64,131.772,39,139.5,19.785,131.772
	C19.516,131.772,20.366,131.799,19.785,131.772z"/>
<path style="fill-rule:evenodd;clip-rule:evenodd;fill:#CCCCCC;" d="M246.805,131.552c-4.156-1.787-5.541-4.509-6.881-7.184
	c-3.045-6.072-5.82-12.205-8.659-18.319c-2.068-4.466-4.068-8.941-6.093-13.416c-2.922-6.457-5.827-12.924-8.762-19.384
	c-2.504-5.511-5.053-11.011-7.557-16.525c-2.427-5.338-4.828-10.682-7.236-16.021c-2.613-5.793-8.003-10.167-16.592-12.813
	c-4.127-1.271-8.525-1.986-13.182-1.992c-26.686-0.048-10.657-0.117-37.342-0.176c-0.316,0-0.632,0-1.207,0
	c5.467,2.097,8.063,5.391,10.07,8.771c3.363,5.667,6.233,11.454,9.242,17.206c2.488,4.755,4.88,9.532,7.309,14.298
	c2.799,5.492,5.587,10.984,8.386,16.478c2.681,5.268,5.368,10.532,8.053,15.801c2.787,5.461,5.513,10.939,8.382,16.384
	c1.352,2.568,2.684,5.17,4.543,7.596c2.814,3.677,3.277,7.932,9.561,9.297C201.249,132.075,220.537,131.495,246.805,131.552
	C247.074,131.552,246.224,131.579,246.805,131.552z"/>
<path style="fill-rule:evenodd;clip-rule:evenodd;fill:#222222;" d="M19.785,131.772c4.156,1.787,5.541,4.51,6.881,7.185
	c3.045,6.072,5.82,12.205,8.659,18.319c2.068,4.466,4.068,8.941,6.092,13.416c2.922,6.457,5.828,12.924,8.763,19.384
	c2.503,5.511,5.052,11.011,7.557,16.525c2.426,5.338,4.827,10.682,7.236,16.021c2.612,5.793,8.002,10.167,16.592,12.813
	c4.126,1.271,8.524,1.986,13.181,1.992c26.686,0.048,10.657,0.117,37.342,0.176c0.316,0,0.632,0,1.207,0
	c-5.467-2.097-8.063-5.391-10.07-8.771c-3.363-5.667-6.233-11.454-9.243-17.206c-2.488-4.755-4.879-9.532-7.308-14.298
	c-2.799-5.492-5.587-10.984-8.386-16.478c-2.681-5.268-5.369-10.532-8.053-15.801c-2.787-5.461-5.513-10.939-8.382-16.384
	c-1.351-2.568-2.684-5.17-4.543-7.596c-2.814-3.677-3.277-7.933-9.56-9.298H19.785C19.515,131.772,20.367,131.746,19.785,131.772z"
	/>
</svg>
