<?xml version="1.0" encoding="utf-8"?>
<!DOCTYPE svg PUBLIC "-//W3C//DTD SVG 1.0//EN" "http://www.w3.org/TR/2001/REC-SVG-20010904/DTD/svg10.dtd">
<svg version="1.0" id="Layer_1" xmlns="http://www.w3.org/2000/svg" xmlns:xlink="http://www.w3.org/1999/xlink" x="0px" y="0px"
	 width="1600px" height="400px" viewBox="0 0 1600 400" enable-background="new 0 0 1600 400" xml:space="preserve">
<radialGradient id="SVGID_1_" cx="230.1323" cy="199.2832" r="78" gradientTransform="matrix(1.0192 0 0 1.0192 -6.0576 -2.6152)" gradientUnits="userSpaceOnUse">
	<stop  offset="0.2742" style="stop-color:#FFFFFF"/>
	<stop  offset="0.4421" style="stop-color:#FEF1CB"/>
	<stop  offset="0.5821" style="stop-color:#FDE7A5"/>
	<stop  offset="0.6559" style="stop-color:#FDE397"/>
	<stop  offset="0.693" style="stop-color:#FCE089"/>
	<stop  offset="0.903" style="stop-color:#F8D13E"/>
	<stop  offset="1" style="stop-color:#F7CB20"/>
</radialGradient>
<circle fill="url(#SVGID_1_)" cx="228.5" cy="200.5" r="79.5"/>
<g>
	<circle fill="#3B1B7C" cx="372.658" cy="144.053" r="15"/>
	<circle fill="#3B1B7C" cx="107.478" cy="245.56" r="4.5"/>
	<circle fill="#3B1B7C" cx="135.754" cy="234.736" r="6"/>
	<circle fill="#3B1B7C" cx="168.701" cy="222.125" r="7.5"/>
	<circle fill="#3B1B7C" cx="203.515" cy="208.798" r="9"/>
	<circle fill="#3B1B7C" cx="244.867" cy="192.969" r="10.5"/>
	<circle fill="#3B1B7C" cx="285.285" cy="177.498" r="11.999"/>
	<circle fill="#3B1B7C" cx="327.571" cy="161.311" r="13.5"/>
	<circle fill="#3B1B7C" cx="86.672" cy="253.524" r="3"/>
	<circle fill="#3B1B7C" cx="69.913" cy="260.24" r="1.5"/>
</g>
<polyline fill="none" stroke="#462866" stroke-width="18" stroke-linecap="round" stroke-linejoin="round" stroke-miterlimit="10" points="
	605,124 679.81,274 755,124 "/>
<polyline fill="none" stroke="#462866" stroke-width="18" stroke-linecap="round" stroke-linejoin="round" stroke-miterlimit="10" points="
	755,274 829.223,124 905,274 "/>
<polyline fill="none" stroke="#462866" stroke-width="18" stroke-linecap="round" stroke-linejoin="round" stroke-miterlimit="10" points="
	952,124 952,274 1053,274 "/>
<polyline fill="none" stroke="#462866" stroke-width="18" stroke-linecap="round" stroke-linejoin="round" stroke-miterlimit="10" points="
	1197,124 1098,124 1098,274 1197,274 "/>
<polyline fill="none" stroke="#462866" stroke-width="18" stroke-linecap="round" stroke-linejoin="round" stroke-miterlimit="10" points="
	1366,124 1366,274 1247,124 1247,274 "/>
<line fill="none" stroke="#462866" stroke-width="18" stroke-linecap="round" stroke-linejoin="round" stroke-miterlimit="10" x1="1410" y1="124" x2="1523" y2="124"/>
<line fill="none" stroke="#462866" stroke-width="18" stroke-linecap="round" stroke-linejoin="round" stroke-miterlimit="10" x1="1467" y1="274" x2="1467" y2="124"/>
<line fill="none" stroke="#462866" stroke-width="18" stroke-linecap="round" stroke-linejoin="round" stroke-miterlimit="10" x1="1098" y1="198" x2="1184" y2="198"/>
<line fill="none" stroke="#462866" stroke-width="18" stroke-linecap="round" stroke-linejoin="round" stroke-miterlimit="10" x1="776" y1="232" x2="884" y2="232"/>
<line fill="none" stroke="#462866" stroke-width="18" stroke-linecap="round" stroke-linejoin="round" stroke-miterlimit="10" x1="531.001" y1="232" x2="574.668" y2="276"/>
<circle fill="none" stroke="#462866" stroke-width="18" stroke-linecap="round" stroke-linejoin="round" stroke-miterlimit="10" cx="502.454" cy="200.07" r="76"/>
</svg>
