<?xml version="1.0" encoding="utf-8"?>
<!DOCTYPE svg PUBLIC "-//W3C//DTD SVG 1.0//EN" "http://www.w3.org/TR/2001/REC-SVG-20010904/DTD/svg10.dtd">
<svg version="1.0" id="Layer_1" xmlns="http://www.w3.org/2000/svg" xmlns:xlink="http://www.w3.org/1999/xlink" x="0px" y="0px"
	 width="1200px" height="400px" viewBox="0 0 1200 400" enable-background="new 0 0 1200 400" xml:space="preserve">
<radialGradient id="SVGID_1_" cx="-24.5928" cy="109.0305" r="78.0032" gradientTransform="matrix(1.0897 0 0 -1.0897 174.2989 322.3091)" gradientUnits="userSpaceOnUse">
	<stop  offset="0.2742" style="stop-color:#FFFFFF"/>
	<stop  offset="0.4421" style="stop-color:#FEF1CB"/>
	<stop  offset="0.5821" style="stop-color:#FDE7A5"/>
	<stop  offset="0.6559" style="stop-color:#FDE397"/>
	<stop  offset="0.693" style="stop-color:#FCE089"/>
	<stop  offset="0.903" style="stop-color:#F8D13E"/>
	<stop  offset="1" style="stop-color:#F7CB20"/>
</radialGradient>
<circle fill="url(#SVGID_1_)" cx="147.5" cy="203.5" r="85"/>
<g>
	<circle fill="#3B1B7C" cx="67.798" cy="68.42" r="15"/>
	<circle fill="#3B1B7C" cx="211.767" cy="313.158" r="4.501"/>
	<circle fill="#3B1B7C" cx="196.416" cy="287.062" r="6"/>
	<circle fill="#3B1B7C" cx="178.528" cy="256.654" r="7.499"/>
	<circle fill="#3B1B7C" cx="159.627" cy="224.524" r="9.002"/>
	<circle fill="#3B1B7C" cx="137.176" cy="186.36" r="10.5"/>
	<circle fill="#3B1B7C" cx="115.233" cy="149.058" r="11.999"/>
	<circle fill="#3B1B7C" cx="92.275" cy="110.031" r="13.5"/>
	<path fill="#3B1B7C" d="M222.857,329.367c1.653-0.112,3.084,1.135,3.198,2.788c0.113,1.651-1.135,3.084-2.787,3.195
		c-1.653,0.115-3.084-1.135-3.197-2.785C219.958,330.913,221.206,329.482,222.857,329.367z"/>
	<circle fill="#3B1B7C" cx="232.458" cy="347.779" r="1.501"/>
</g>
<polyline fill="none" stroke="#462866" stroke-width="18" stroke-linecap="round" stroke-linejoin="round" stroke-miterlimit="10" points="
	250,127 324.81,277 400,127 "/>
<polyline fill="none" stroke="#462866" stroke-width="18" stroke-linecap="round" stroke-linejoin="round" stroke-miterlimit="10" points="
	400,277 474.223,127 550,277 "/>
<polyline fill="none" stroke="#462866" stroke-width="18" stroke-linecap="round" stroke-linejoin="round" stroke-miterlimit="10" points="
	597,127 597,277 698,277 "/>
<polyline fill="none" stroke="#462866" stroke-width="18" stroke-linecap="round" stroke-linejoin="round" stroke-miterlimit="10" points="
	842,127 743,127 743,277 842,277 "/>
<polyline fill="none" stroke="#462866" stroke-width="18" stroke-linecap="round" stroke-linejoin="round" stroke-miterlimit="10" points="
	1011,127 1011,277 892,127 892,277 "/>
<line fill="none" stroke="#462866" stroke-width="18" stroke-linecap="round" stroke-linejoin="round" stroke-miterlimit="10" x1="1055" y1="127" x2="1168" y2="127"/>
<line fill="none" stroke="#462866" stroke-width="18" stroke-linecap="round" stroke-linejoin="round" stroke-miterlimit="10" x1="1112" y1="277" x2="1112" y2="127"/>
<line fill="none" stroke="#462866" stroke-width="18" stroke-linecap="round" stroke-linejoin="round" stroke-miterlimit="10" x1="743" y1="201" x2="829" y2="201"/>
<line fill="none" stroke="#462866" stroke-width="18" stroke-linecap="round" stroke-linejoin="round" stroke-miterlimit="10" x1="421" y1="235" x2="529" y2="235"/>
</svg>
