<?xml version="1.0" encoding="iso-8859-1"?>
<svg version="1.2" baseProfile="tiny" id="Layer_1" xmlns="http://www.w3.org/2000/svg" xmlns:xlink="http://www.w3.org/1999/xlink"
	 x="0px" y="0px" width="1120px" height="840px" viewBox="0 0 1120 840" xml:space="preserve">
<g>
	<g>
		<rect x="129.5" y="78.5" fill="#888888" stroke="#666666" stroke-width="9" stroke-miterlimit="10" width="25" height="96"/>
		<line fill="none" stroke="#666666" stroke-width="9" stroke-miterlimit="10" x1="141.5" y1="79" x2="141.5" y2="46"/>
		<line fill="none" stroke="#666666" stroke-width="9" stroke-miterlimit="10" x1="141.5" y1="174" x2="141.5" y2="208"/>
	</g>
	<g>
		<rect x="74.5" y="152.5" fill="none" stroke="#666666" stroke-width="9" stroke-miterlimit="10" width="25" height="62"/>
		<line fill="none" stroke="#666666" stroke-width="9" stroke-miterlimit="10" x1="86.5" y1="153" x2="86.5" y2="120"/>
		<line fill="none" stroke="#666666" stroke-width="9" stroke-miterlimit="10" x1="86.5" y1="214" x2="86.5" y2="248"/>
	</g>
	<g>
		<rect x="185.5" y="45.5" fill="none" stroke="#666666" stroke-width="9" stroke-miterlimit="10" width="25" height="62"/>
		<line fill="none" stroke="#666666" stroke-width="9" stroke-miterlimit="10" x1="197.5" y1="46" x2="197.5" y2="13"/>
		<line fill="none" stroke="#666666" stroke-width="9" stroke-miterlimit="10" x1="197.5" y1="107" x2="197.5" y2="141"/>
	</g>
</g>
<g>
	<g>
		<path fill="#888888" d="M426.006,132.361c13.631-14.471,35.895-38.102,44.085-46.786c11.685,12.491,18.334,28.604,18.828,45.847
			c0.537,18.742-6.261,36.586-19.142,50.245c-10.896,11.554-25.209,19.025-40.708,21.335L426.006,132.361z"/>
		<path fill="#666666" d="M469.959,92.275c8.972,11.106,14.047,24.763,14.462,39.275c0.503,17.542-5.86,34.244-17.917,47.028
			c-9.032,9.579-20.57,16.158-33.163,19.041l-2.757-63.555C442.625,121.282,460.448,102.364,469.959,92.275 M470.005,79.114
			c-0.024,0.001-48.577,51.544-48.577,51.544l3.356,77.362c17.784-1.442,35.063-9.264,48.268-23.267
			C501.382,154.713,500.047,107.444,470.005,79.114L470.005,79.114L470.005,79.114z"/>
	</g>
	<path fill="#666666" d="M412.512,66.598c13.535,0,26.574,4.127,37.535,11.764l-41.13,43.981l-2.568,2.746l0.148,3.757l2.736,69.19
		c-15.632-0.768-30.382-7.031-41.837-17.833c-12.781-12.052-20.103-28.36-20.618-45.919c-0.515-17.559,5.839-34.268,17.892-47.048
		C377.221,73.927,394.211,66.598,412.512,66.598 M412.512,57.598c-19.864,0-39.684,7.869-54.39,23.463
		c-28.33,30.041-26.942,77.359,3.1,105.689c14.442,13.62,32.878,20.365,51.277,20.365c2.033,0,4.065-0.082,6.091-0.247l-3.1-78.379
		l47.74-51.049C448.871,64.176,430.673,57.598,412.512,57.598L412.512,57.598z"/>
</g>
<g>
	<line fill="none" stroke="#666666" stroke-width="9" stroke-miterlimit="10" x1="693.682" y1="69.252" x2="674.59" y2="50.161"/>
	<line fill="none" stroke="#666666" stroke-width="9" stroke-miterlimit="10" x1="672.469" y1="90.465" x2="653.377" y2="71.374"/>
	<line fill="none" stroke="#666666" stroke-width="9" stroke-miterlimit="10" x1="650.548" y1="112.386" x2="631.456" y2="93.294"/>
	
		<line fill="none" stroke="#666666" stroke-width="9" stroke-miterlimit="10" x1="629.335" y1="133.599" x2="610.243" y2="114.507"/>
	<line fill="none" stroke="#666666" stroke-width="9" stroke-miterlimit="10" x1="777.12" y1="152.691" x2="758.028" y2="133.599"/>
	
		<line fill="none" stroke="#666666" stroke-width="9" stroke-miterlimit="10" x1="755.907" y1="173.904" x2="736.815" y2="154.812"/>
	
		<line fill="none" stroke="#666666" stroke-width="9" stroke-miterlimit="10" x1="733.986" y1="195.825" x2="714.895" y2="176.732"/>
	
		<line fill="none" stroke="#666666" stroke-width="9" stroke-miterlimit="10" x1="712.773" y1="217.038" x2="693.682" y2="197.946"/>
	<path fill="#888888" stroke="#666666" stroke-width="9" stroke-miterlimit="10" d="M711.006,52.635l-98.288,98.288l67.176,67.175
		l98.287-98.288L711.006,52.635z M677.064,188.4l-36.063-36.063l37.477-37.477l36.063,36.063L677.064,188.4z"/>
</g>
<g>
	<path fill="#AAAAAA" d="M939.649,213.694c-0.775,0-1.557-0.2-2.263-0.611c-11.237-6.543-17.916-15.702-19.316-26.486
		c-1.715-13.216,4.581-28.427,16.842-40.688c1.884-1.884,3.681-3.489,5.448-4.858c-0.434-0.401-0.858-0.808-1.272-1.222
		c-17.898-17.9-17.887-47.037,0.027-64.95c8.661-8.66,20.189-13.43,32.462-13.43c12.306,0,23.873,4.789,32.568,13.484
		c0.415,0.415,0.828,0.844,1.235,1.283c9.263-7.111,23.043-14.261,36.089-14.261c9.252,0,21.528,3.597,27.466,20.734
		c0.564,1.628,0.148,3.437-1.07,4.655L942.833,212.376C941.967,213.243,940.814,213.694,939.649,213.694z"/>
	<path fill="#666666" d="M971.577,65.948c10.637,0,21.28,4.061,29.387,12.167c1.36,1.36,2.704,2.904,3.836,4.394
		c9.202-8.089,23.823-16.053,36.67-16.053c9.88,0,18.712,4.714,23.214,17.707L939.651,209.194
		c-27.645-16.096-17.743-43.917-1.558-60.104c3.064-3.064,6.277-5.758,9.927-7.662c-2.025-1.401-3.946-2.979-5.751-4.784
		c-16.185-16.186-16.158-42.4,0.027-58.585C950.377,69.979,960.974,65.947,971.577,65.948 M972,56.948v9V56.948
		c-14-0.001-26.344,5.236-35.855,14.748c-18.932,18.931-19.756,49.28-2.259,69.055c-0.676,0.626-1.411,1.284-2.104,1.977
		c-13.241,13.241-20.042,29.858-18.147,44.449c1.105,8.522,5.723,20.609,21.502,29.796c1.41,0.822,2.967,1.222,4.519,1.222
		c2.329,0,4.629-0.902,6.363-2.636L1071.05,90.525c2.438-2.438,3.268-6.053,2.139-9.311c-5.309-15.322-16.573-23.76-31.718-23.76
		c-12.77,0-25.58,5.963-35.438,12.848C996.678,61.675,984,56.948,972,56.948L972,56.948z"/>
</g>
<g>
	
		<line fill="#AAAAAA" stroke="#666666" stroke-width="9" stroke-miterlimit="10" x1="163.871" y1="476.04" x2="203.894" y2="433.798"/>
	
		<line fill="#AAAAAA" stroke="#666666" stroke-width="9" stroke-miterlimit="10" x1="179.162" y1="482.349" x2="211.017" y2="448.727"/>
	
		<line fill="#AAAAAA" stroke="#666666" stroke-width="9" stroke-miterlimit="10" x1="196.132" y1="488.61" x2="216.551" y2="467.058"/>
	<g>
		<g>
			<path fill="#AAAAAA" d="M140.795,447.489c-1.915-2.044-15.033-15.633-26.273-16.72c-10.511-1.013-22.658-2.979-33.824-13.56
				c-8.935-8.465-14.037-19.903-14.369-32.207c-0.332-12.304,4.148-24,12.613-32.934c8.79-9.276,20.671-14.384,33.456-14.384
				c11.836,0,23.088,4.486,31.684,12.631c7.811,7.4,10.104,17.103,12.322,26.487c0.979,4.143,1.992,8.426,3.462,12.411
				c4.796,12.991,13.892,21.147,15.092,22.185l14.329,13.577l-34.18,36.074L140.795,447.489z"/>
			<path fill="#666666" d="M112.397,342.184c10.68,0,20.833,4.048,28.589,11.398c6.835,6.476,8.876,15.112,11.038,24.255
				c1.01,4.273,2.055,8.692,3.62,12.935c5.038,13.646,14.54,22.423,16.277,23.948l11.004,10.426l-27.99,29.542l-10.948-10.372
				c-3.073-3.271-16.491-16.813-29.036-18.025c-9.764-0.94-21.029-2.748-31.16-12.348c-16.642-15.768-17.353-42.137-1.585-58.779
				C90.139,346.794,100.861,342.184,112.397,342.184 M112.397,333.184c-13.403,0-26.776,5.292-36.723,15.789
				c-19.212,20.277-18.349,52.291,1.928,71.502c12.534,11.878,26.39,13.801,36.486,14.773c10.095,0.976,23.511,15.412,23.511,15.412
				l17.679,16.749l40.37-42.607l-17.678-16.75c0,0-9.207-7.731-13.883-20.398c-4.674-12.667-4.46-28.811-16.911-40.606
				C137.397,337.782,124.884,333.184,112.397,333.184L112.397,333.184z"/>
		</g>
	</g>
</g>
<g>
	<g>
		<path fill="#666666" stroke="#666666" stroke-miterlimit="10" d="M340.818,437.893l-5.395-5.395l8.278-8.277l-20.882-20.883
			l-3.231,11.188l-6.936-2.959l4.873-15.76l5.096-5.096l27.295,27.295l7.134-7.135l5.395,5.395L340.818,437.893z"/>
	</g>
	<g>
		<path fill="#666666" stroke="#666666" stroke-miterlimit="10" d="M392.881,353.302c2.668,2.668,4.765,5.344,6.289,8.029
			c1.525,2.685,2.453,5.312,2.785,7.88c0.331,2.569,0.074,5.038-0.771,7.408s-2.304,4.591-4.375,6.662
			c-1.79,1.79-3.754,3.124-5.892,4.003c-2.138,0.878-4.429,1.188-6.874,0.932c-2.445-0.257-5.026-1.131-7.744-2.622
			c-2.718-1.492-5.544-3.704-8.477-6.638c-2.668-2.668-4.761-5.349-6.277-8.042c-1.516-2.693-2.444-5.32-2.784-7.881
			c-0.339-2.56-0.079-5.034,0.783-7.42c0.862-2.387,2.32-4.607,4.375-6.663c1.79-1.789,3.753-3.123,5.892-4.002
			c2.138-0.878,4.42-1.189,6.849-0.932c2.428,0.257,5.001,1.131,7.719,2.623C387.097,348.13,389.931,350.351,392.881,353.302z
			 M373.739,372.642c0.332,0.332,0.642,0.643,0.932,0.933s0.601,0.567,0.932,0.832l3.381-20.98
			c-2.221-1.062-4.201-1.509-5.941-1.343s-3.256,0.895-4.549,2.188c-0.928,0.928-1.554,2.026-1.877,3.294
			c-0.323,1.269-0.29,2.685,0.1,4.251s1.152,3.257,2.287,5.071S371.717,370.621,373.739,372.642z M386.964,359.616
			c-0.282-0.281-0.576-0.56-0.883-0.833s-0.592-0.543-0.857-0.808l-3.356,20.857c2.138,1.077,4.077,1.524,5.817,1.342
			c1.74-0.182,3.249-0.911,4.524-2.188c0.928-0.928,1.554-2.034,1.877-3.318s0.294-2.706-0.087-4.264
			c-0.381-1.558-1.148-3.244-2.3-5.059C390.548,363.532,388.97,361.621,386.964,359.616z"/>
	</g>
	<g>
		<path fill="#666666" stroke="#666666" stroke-miterlimit="10" d="M389.525,437.727c2.668,2.668,4.765,5.344,6.289,8.029
			c1.525,2.686,2.453,5.313,2.784,7.881c0.332,2.568,0.075,5.037-0.771,7.408c-0.845,2.369-2.304,4.59-4.375,6.662
			c-1.79,1.789-3.754,3.123-5.892,4.002c-2.138,0.879-4.429,1.189-6.874,0.932c-2.444-0.256-5.025-1.131-7.743-2.623
			c-2.718-1.49-5.544-3.703-8.477-6.637c-2.668-2.668-4.761-5.35-6.277-8.041c-1.516-2.693-2.444-5.32-2.784-7.881
			c-0.339-2.561-0.079-5.035,0.783-7.42c0.862-2.387,2.32-4.607,4.375-6.662c1.79-1.791,3.753-3.125,5.892-4.004
			c2.138-0.877,4.42-1.188,6.849-0.932c2.428,0.258,5,1.131,7.719,2.623C383.741,432.555,386.575,434.777,389.525,437.727z
			 M370.383,457.066c0.331,0.332,0.642,0.643,0.932,0.934c0.29,0.289,0.601,0.566,0.932,0.832l3.381-20.98
			c-2.221-1.063-4.201-1.51-5.941-1.344s-3.256,0.895-4.549,2.188c-0.928,0.928-1.554,2.027-1.877,3.295
			c-0.323,1.268-0.29,2.684,0.1,4.25s1.152,3.258,2.287,5.072S368.361,455.045,370.383,457.066z M383.608,444.041
			c-0.282-0.281-0.576-0.561-0.883-0.834s-0.592-0.541-0.857-0.807l-3.356,20.855c2.138,1.078,4.077,1.525,5.817,1.344
			c1.74-0.184,3.249-0.912,4.524-2.188c0.928-0.928,1.554-2.035,1.877-3.318c0.323-1.285,0.294-2.707-0.087-4.264
			c-0.381-1.559-1.148-3.244-2.3-5.059C387.192,447.955,385.614,446.047,383.608,444.041z"/>
	</g>
	<g>
		<path fill="#666666" stroke="#666666" stroke-miterlimit="10" d="M471.706,433.531c2.668,2.668,4.765,5.346,6.29,8.029
			c1.525,2.686,2.453,5.313,2.784,7.881s0.075,5.037-0.771,7.408c-0.845,2.369-2.304,4.59-4.375,6.662
			c-1.79,1.789-3.754,3.123-5.892,4.002c-2.138,0.879-4.429,1.189-6.873,0.932c-2.445-0.256-5.026-1.131-7.744-2.621
			c-2.718-1.492-5.543-3.705-8.477-6.639c-2.668-2.668-4.761-5.348-6.277-8.041c-1.516-2.693-2.444-5.32-2.784-7.881
			s-0.079-5.033,0.783-7.42s2.32-4.607,4.375-6.662c1.79-1.791,3.754-3.125,5.892-4.004c2.138-0.877,4.421-1.188,6.849-0.932
			c2.428,0.258,5,1.131,7.719,2.623C465.922,428.361,468.756,430.582,471.706,433.531z M452.564,452.871
			c0.332,0.332,0.643,0.643,0.933,0.934c0.29,0.289,0.601,0.566,0.932,0.832l3.381-20.98c-2.221-1.061-4.201-1.508-5.941-1.344
			c-1.74,0.166-3.256,0.896-4.549,2.188c-0.928,0.93-1.554,2.027-1.877,3.295s-0.29,2.686,0.1,4.25
			c0.39,1.566,1.152,3.258,2.287,5.072S450.542,450.85,452.564,452.871z M465.79,439.846c-0.282-0.281-0.576-0.559-0.883-0.832
			s-0.592-0.543-0.857-0.809l-3.356,20.857c2.138,1.076,4.077,1.523,5.817,1.342s3.248-0.912,4.524-2.188
			c0.928-0.928,1.554-2.035,1.877-3.318c0.323-1.285,0.294-2.705-0.087-4.264c-0.381-1.559-1.148-3.244-2.3-5.059
			S467.794,441.852,465.79,439.846z"/>
	</g>
	<g>
		<path fill="#666666" stroke="#666666" stroke-miterlimit="10" d="M516.298,388.939c2.668,2.668,4.765,5.345,6.29,8.029
			c1.525,2.684,2.453,5.311,2.784,7.881c0.332,2.568,0.075,5.037-0.771,7.406c-0.845,2.371-2.304,4.592-4.375,6.664
			c-1.79,1.789-3.753,3.123-5.892,4.002c-2.138,0.877-4.429,1.189-6.874,0.932c-2.444-0.258-5.026-1.131-7.744-2.623
			c-2.718-1.49-5.543-3.703-8.477-6.637c-2.668-2.668-4.76-5.35-6.277-8.043c-1.517-2.691-2.444-5.318-2.784-7.879
			c-0.34-2.561-0.079-5.035,0.783-7.421s2.32-4.607,4.375-6.662c1.79-1.79,3.754-3.124,5.892-4.002
			c2.138-0.879,4.421-1.189,6.849-0.933c2.428,0.257,5.001,1.131,7.719,2.623C510.515,383.768,513.349,385.989,516.298,388.939z
			 M497.157,408.279c0.332,0.332,0.643,0.643,0.933,0.932c0.29,0.291,0.601,0.568,0.932,0.834l3.381-20.982
			c-2.221-1.061-4.202-1.508-5.941-1.342c-1.74,0.165-3.257,0.895-4.549,2.188c-0.928,0.928-1.554,2.025-1.877,3.293
			c-0.323,1.269-0.29,2.686,0.1,4.251c0.389,1.567,1.152,3.256,2.287,5.071C493.556,404.34,495.135,406.258,497.157,408.279z
			 M510.382,395.253c-0.282-0.282-0.576-0.56-0.882-0.833s-0.593-0.543-0.857-0.809l-3.356,20.857
			c2.138,1.078,4.077,1.525,5.817,1.344c1.74-0.184,3.248-0.912,4.524-2.189c0.928-0.928,1.554-2.033,1.877-3.318
			c0.323-1.283,0.294-2.705-0.087-4.264c-0.381-1.557-1.147-3.244-2.299-5.059S512.387,397.258,510.382,395.253z"/>
	</g>
	<g>
		<path fill="#666666" stroke="#666666" stroke-miterlimit="10" d="M421.035,518.109l-5.395-5.395l8.278-8.277l-20.882-20.881
			l-3.232,11.186l-6.936-2.959l4.873-15.76l5.096-5.096l27.295,27.295l7.134-7.135l5.395,5.395L421.035,518.109z"/>
	</g>
	<g>
		<path fill="#666666" stroke="#666666" stroke-miterlimit="10" d="M426.809,431.889l-5.394-5.395l8.278-8.277l-20.882-20.881
			l-3.231,11.186l-6.936-2.959l4.873-15.76l5.096-5.096l27.295,27.295l7.134-7.135l5.395,5.395L426.809,431.889z"/>
	</g>
	<g>
		<path fill="#666666" stroke="#666666" stroke-miterlimit="10" d="M472.172,388.067l-5.395-5.394l8.278-8.278l-20.882-20.882
			l-3.231,11.187l-6.936-2.958l4.873-15.762l5.096-5.096l27.295,27.296l7.134-7.135l5.395,5.395L472.172,388.067z"/>
	</g>
	<g>
		<path fill="#666666" stroke="#666666" stroke-miterlimit="10" d="M431.178,347.074l-5.395-5.395l8.278-8.278l-20.882-20.881
			l-3.232,11.187l-6.936-2.958l4.873-15.761l5.096-5.096l27.295,27.295l7.134-7.134l5.395,5.395L431.178,347.074z"/>
	</g>
</g>
<g>
	<circle fill="none" stroke="#666666" stroke-width="9" stroke-miterlimit="10" cx="431.459" cy="741.584" r="18.167"/>
	<circle fill="#888888" stroke="#666666" stroke-width="9" stroke-miterlimit="10" cx="485.199" cy="687.844" r="18.167"/>
	<circle fill="#888888" stroke="#666666" stroke-width="9" stroke-miterlimit="10" cx="344.484" cy="705.521" r="18.167"/>
	<circle fill="none" stroke="#666666" stroke-width="9" stroke-miterlimit="10" cx="398.225" cy="651.781" r="18.167"/>
	<line fill="none" stroke="#666666" stroke-width="9" stroke-miterlimit="10" x1="363.928" y1="750.66" x2="490.5" y2="624.088"/>
	
		<line fill="none" stroke="#666666" stroke-width="9" stroke-miterlimit="10" x1="357.564" y1="718.133" x2="377.363" y2="737.932"/>
	<line fill="none" stroke="#666666" stroke-width="9" stroke-miterlimit="10" x1="411.304" y1="664.393" x2="428.981" y2="682.07"/>
	
		<line fill="none" stroke="#666666" stroke-width="9" stroke-miterlimit="10" x1="419.082" y1="728.739" x2="402.818" y2="712.477"/>
	<line fill="none" stroke="#666666" stroke-width="9" stroke-miterlimit="10" x1="472.822" y1="675" x2="456.559" y2="658.736"/>
	<circle fill="none" stroke="#666666" stroke-width="9" stroke-miterlimit="10" cx="448.43" cy="601.576" r="18.167"/>
	
		<line fill="none" stroke="#666666" stroke-width="9" stroke-miterlimit="10" x1="461.509" y1="614.188" x2="481.308" y2="633.987"/>
</g>
<g>
	<path fill="none" stroke="#666666" stroke-width="9" stroke-miterlimit="10" d="M1013.531,370.616l-5.386-14.963l-17.057,1.135
		c-2.334-3.208-5.047-6.059-8.044-8.521l3.301-16.132l-14.388-6.773l-11.266,12.872c-3.832-0.605-7.762-0.731-11.706-0.347
		l-9.072-13.741l-14.964,5.387l1.134,17.055c-3.208,2.335-6.058,5.048-8.52,8.044l-16.132-3.301l-6.773,14.39l12.872,11.265
		c-0.604,3.831-0.73,7.762-0.346,11.708l-13.74,9.071l5.385,14.962l17.058-1.133c2.334,3.207,5.046,6.058,8.043,8.52l-3.301,16.133
		l14.389,6.771l11.264-12.871c3.833,0.604,7.763,0.731,11.707,0.346l9.072,13.74l14.964-5.385l-1.135-17.059
		c3.208-2.332,6.057-5.047,8.52-8.042l16.133,3.301l6.772-14.388l-12.872-11.266c0.604-3.832,0.732-7.762,0.347-11.705
		L1013.531,370.616z M963.277,409.447c-13.949,5.408-29.639-1.518-35.047-15.467c-5.406-13.949,1.518-29.64,15.467-35.047
		c13.951-5.408,29.642,1.518,35.048,15.467C984.152,388.349,977.229,404.041,963.277,409.447z"/>
	<path fill="#888888" stroke="#666666" stroke-width="9" stroke-miterlimit="10" d="M1061.062,464.084l0.229-9.35l-9.593-3.002
		c-0.598-2.254-1.479-4.393-2.6-6.379l5.238-8.143l-6.448-6.77l-8.911,4.662c-1.972-1.145-4.1-2.051-6.344-2.678l-2.054-9.459
		l-9.348-0.228l-3.001,9.591c-2.256,0.599-4.395,1.479-6.381,2.598l-8.141-5.235l-6.771,6.448l4.662,8.91
		c-1.146,1.973-2.049,4.1-2.676,6.346l-9.461,2.051l-0.228,9.35l9.592,3.002c0.598,2.254,1.478,4.395,2.599,6.379l-5.237,8.143
		l6.449,6.77l8.911-4.662c1.971,1.145,4.099,2.051,6.342,2.678l2.055,9.459l9.347,0.229l3.003-9.592
		c2.255-0.598,4.393-1.48,6.379-2.6l8.145,5.236l6.769-6.447l-4.663-8.91c1.146-1.973,2.051-4.1,2.678-6.344L1061.062,464.084z
		 M1025.262,474.693c-8.795-0.002-15.926-7.131-15.926-15.928s7.13-15.928,15.926-15.928c8.797,0.002,15.927,7.131,15.927,15.928
		S1034.059,474.691,1025.262,474.693z"/>
</g>
<g>
	<polygon fill="#888888" stroke="#888888" stroke-width="9" stroke-miterlimit="10" points="123.997,621.652 74.853,630.49 
		74.853,630.49 66.014,679.635 	"/>
	
		<line fill="#888888" stroke="#888888" stroke-width="9" stroke-miterlimit="10" x1="53.122" y1="715.154" x2="159.895" y2="608.381"/>
	
		<line fill="#888888" stroke="#888888" stroke-width="9" stroke-miterlimit="10" x1="41.808" y1="703.841" x2="148.581" y2="597.067"/>
	<g>
		<polygon fill="#888888" points="120.68,779.825 224.495,676.01 233.466,676.938 121.299,789.105 		"/>
		<polygon fill="#888888" points="222.827,671.313 116.054,778.087 117.468,799.3 243.333,673.435 222.827,671.313 		"/>
	</g>
	<g>
		<g>
			<path fill="#666666" d="M123.232,753.231c-1.936-6.034-6.681-14.246-17.194-24.759c-11.032-11.032-19.775-16.015-26.283-18.031
				l11.999-11.999c2.261,6.182,7.506,15.003,19.115,26.612c8.921,8.922,16.75,14.665,23.376,17.164L123.232,753.231z"/>
			<path fill="#666666" d="M90.39,706.17c1.136,2.106,2.531,4.377,4.233,6.807c-2.456-1.667-4.767-3.018-6.933-4.106L90.39,706.17
				 M121.822,740.406c1.638,1.154,3.236,2.18,4.794,3.077l-1.875,1.876C123.921,743.787,122.955,742.137,121.822,740.406
				 M94.841,688.991l-25.102,25.103c0,0,0.908-0.354,2.71-0.354c4.531,0,14.724,2.23,30.407,17.914
				c21.92,21.92,16.381,31.937,16.381,31.937l25.102-25.102c0,0-0.915,0.669-3.003,0.669c-4.049,0-12.511-2.513-27.284-17.285
				C91.659,699.48,94.841,688.991,94.841,688.991L94.841,688.991z"/>
		</g>
		<g>
			<path fill="#666666" d="M154.698,721.765c-1.936-6.033-6.681-14.245-17.194-24.759c-11.032-11.032-19.775-16.015-26.283-18.03
				l11.999-11.999c2.261,6.182,7.506,15.003,19.115,26.611c8.922,8.922,16.75,14.665,23.377,17.164L154.698,721.765z"/>
			<path fill="#666666" d="M121.856,674.704c1.136,2.106,2.53,4.376,4.233,6.806c-2.456-1.666-4.767-3.018-6.933-4.106
				L121.856,674.704 M153.288,708.939c1.638,1.154,3.236,2.18,4.795,3.077l-1.876,1.876
				C155.387,712.321,154.42,710.669,153.288,708.939 M126.307,657.525l-25.102,25.102c0,0,0.907-0.354,2.709-0.354
				c4.531,0,14.725,2.231,30.408,17.914c21.92,21.921,16.381,31.938,16.381,31.938l25.102-25.103c0,0-0.915,0.669-3.003,0.669
				c-4.049,0-12.511-2.513-27.284-17.285C123.125,668.015,126.307,657.525,126.307,657.525L126.307,657.525z"/>
		</g>
		<g>
			<path fill="#666666" d="M186.165,690.299c-1.936-6.034-6.681-14.246-17.194-24.759c-11.032-11.032-19.775-16.015-26.283-18.031
				l11.999-11.999c2.261,6.183,7.506,15.003,19.115,26.612c8.921,8.922,16.75,14.665,23.376,17.164L186.165,690.299z"/>
			<path fill="#666666" d="M153.323,643.237c1.136,2.106,2.531,4.376,4.233,6.806c-2.455-1.665-4.767-3.017-6.933-4.105
				L153.323,643.237 M184.754,677.474c1.638,1.154,3.236,2.18,4.794,3.077l-1.875,1.876
				C186.854,680.854,185.887,679.204,184.754,677.474 M157.773,626.059l-25.102,25.103c0,0,0.908-0.354,2.71-0.354
				c4.531,0,14.724,2.23,30.407,17.914c21.92,21.92,16.381,31.937,16.381,31.937l25.102-25.102c0,0-0.915,0.669-3.003,0.669
				c-4.049,0-12.511-2.513-27.284-17.285C154.591,636.548,157.773,626.059,157.773,626.059L157.773,626.059z"/>
		</g>
	</g>
	
		<line fill="#888888" stroke="#888888" stroke-width="9" stroke-miterlimit="10" x1="124.54" y1="806.371" x2="250.404" y2="680.506"/>
</g>
<g>
	
		<ellipse transform="matrix(0.7071 -0.7071 0.7071 0.7071 -65.3342 575.6756)" fill="#888888" stroke="#666666" stroke-miterlimit="10" cx="662.23" cy="366.703" rx="77.832" ry="29.74"/>
	<path fill="#888888" stroke="#666666" stroke-miterlimit="10" d="M709.408,414.172c26.035-26.034,41.761-54.874,39.805-70.973
		l-13.109-13.108c-0.178-0.179-0.687-0.029-1.018-0.05c1.043,16.492-14.293,44.462-39.842,70.011
		c-25.52,25.52-53.424,40.817-69.953,39.844l14.145,14.145C655.965,455.012,683.89,439.69,709.408,414.172z"/>
	<path fill="#888888" stroke="#666666" stroke-miterlimit="10" d="M734.157,438.921c26.034-26.034,41.761-54.874,39.805-70.973
		l-13.109-13.109c-0.179-0.178-0.687-0.028-1.018-0.05c1.042,16.493-14.293,44.463-39.843,70.012
		c-25.519,25.52-53.422,40.816-69.953,39.843l14.146,14.146C680.713,479.761,708.639,464.439,734.157,438.921z"/>
	<path fill="#888888" stroke="#666666" stroke-miterlimit="10" d="M758.906,463.67c26.034-26.035,41.76-54.874,39.804-70.973
		l-13.108-13.109c-0.179-0.178-0.687-0.029-1.019-0.05c1.043,16.493-14.292,44.462-39.842,70.012
		c-25.519,25.519-53.423,40.816-69.952,39.843l14.145,14.145C705.462,504.51,733.387,489.188,758.906,463.67z"/>
</g>
<g>
	<path fill="#666666" d="M634.149,712.455l14.094,0.09l-3.994,40.531l40.756-3.771l0.089,14.094l-55.747,4.758L634.149,712.455
		 M625.896,703.402l-0.714,8.279l-4.803,55.702l-0.918,10.649l10.65-0.908l55.747-4.758l8.287-0.708l-0.053-8.316l-0.089-14.094
		l-0.062-9.809l-9.768,0.903l-29.901,2.767l2.926-29.683l0.968-9.819l-9.867-0.063l-14.094-0.09L625.896,703.402L625.896,703.402z"
		/>
	<path fill="#888888" stroke="#666666" stroke-miterlimit="10" d="M728.225,693.681l13.735,16.787l-8.798,8.797l-13.689-16.832
		l-10.413,10.414l13.734,16.787l-8.797,8.796l-13.69-16.831l-7.899,7.9l-8.213-8.213l8.707-8.708l-11.579-14.185l-7.631,7.631
		l-8.215-8.214l8.438-8.438l-12.658-15.529l8.799-8.798l12.657,15.53l10.369-10.369l-12.658-15.529l8.797-8.798l12.658,15.53
		l7.988-7.99l8.215,8.215l-8.798,8.797l11.58,14.184l7.721-7.72l8.213,8.213L728.225,693.681z M700.487,679.229l-10.368,10.368
		l11.579,14.183l10.369-10.367L700.487,679.229z"/>
	<path fill="#666666" d="M777.813,619.691l-4.758,55.747l-14.049-0.135l3.904-40.532l-40.665,3.771l-0.135-14.05L777.813,619.691
		 M787.689,609.807l-10.648,0.918l-55.702,4.801l-8.308,0.716l0.08,8.337l0.135,14.05l0.094,9.778l9.737-0.902l29.832-2.767
		l-2.86,29.703l-0.941,9.769l9.813,0.095l14.049,0.135l8.344,0.079l0.71-8.313l4.758-55.747L787.689,609.807L787.689,609.807z"/>
</g>
<g>
	<path fill="#888888" stroke="#666666" stroke-width="9" stroke-miterlimit="10" d="M920.407,750.822l120.914-120.914
		c-33.674-21.48-79.419-17.727-109.029,11.883C902.682,671.402,898.928,717.147,920.407,750.822z"/>
	
		<line fill="none" stroke="#666666" stroke-width="9" stroke-miterlimit="10" x1="928.69" y1="767.994" x2="1058.092" y2="638.594"/>
	<line fill="none" stroke="#666666" stroke-width="9" stroke-miterlimit="10" x1="939.298" y1="778.601" x2="1068.698" y2="649.2"/>
	
		<line fill="none" stroke="#666666" stroke-width="9" stroke-miterlimit="10" x1="930.105" y1="638.594" x2="940.005" y2="648.493"/>
	<line fill="none" stroke="#666666" stroke-width="9" stroke-miterlimit="10" x1="948.9" y1="624.337" x2="955.9" y2="636.461"/>
	<line fill="none" stroke="#666666" stroke-width="9" stroke-miterlimit="10" x1="970.745" y1="615.43" x2="974.368" y2="628.953"/>
	<line fill="none" stroke="#666666" stroke-width="9" stroke-miterlimit="10" x1="994.5" y1="612" x2="994.5" y2="626"/>
	
		<line fill="none" stroke="#666666" stroke-width="9" stroke-miterlimit="10" x1="1017.338" y1="615.391" x2="1013.714" y2="628.914"/>
	
		<line fill="none" stroke="#666666" stroke-width="9" stroke-miterlimit="10" x1="1039.165" y1="624.502" x2="1032.165" y2="636.627"/>
	<line fill="none" stroke="#666666" stroke-width="9" stroke-miterlimit="10" x1="915.64" y1="657.23" x2="927.764" y2="664.23"/>
	<line fill="none" stroke="#666666" stroke-width="9" stroke-miterlimit="10" x1="906.49" y1="678.975" x2="920.013" y2="682.6"/>
	<line fill="none" stroke="#666666" stroke-width="9" stroke-miterlimit="10" x1="903" y1="702.5" x2="917" y2="702.5"/>
	
		<line fill="none" stroke="#666666" stroke-width="9" stroke-miterlimit="10" x1="906.231" y1="725.754" x2="919.753" y2="722.132"/>
	
		<line fill="none" stroke="#666666" stroke-width="9" stroke-miterlimit="10" x1="915.139" y1="747.599" x2="927.262" y2="740.601"/>
	<polygon fill="#666666" stroke="#666666" stroke-miterlimit="10" points="991.48,707.328 983.55,712.65 978.827,704.348 
		1002.956,623.732 1005.876,624.42 	"/>
</g>
</svg>
