<?xml version="1.0" encoding="utf-8"?>
<!DOCTYPE svg PUBLIC "-//W3C//DTD SVG 1.1//EN" "http://www.w3.org/Graphics/SVG/1.1/DTD/svg11.dtd">
<svg version="1.1" id="Layer_1" xmlns="http://www.w3.org/2000/svg" xmlns:xlink="http://www.w3.org/1999/xlink" x="0px" y="0px"
   width="400px" height="145px" viewBox="0 0 400 145" enable-background="new 0 0 400 145" xml:space="preserve">
<polyline fill="#EC1C24" points="5.453,41.468 26.965,26.343 45.792,26.343 5.453,55.921 5.453,41.468 "/>
<polygon fill="none" stroke="#EC1C24" stroke-width="0.45" stroke-miterlimit="3.864" points="5.453,41.468 26.965,26.343 
  45.792,26.343 5.453,55.921 "/>
<path fill="#006F66" d="M354.378,38.442l-7.729,6.389c-3.343-5.581-8.769-10.109-15.46-10.084c-5.208,0.43-9.874,2.844-12.442,7.396
  c-3.91,5.709-3.61,15.072,0.675,20.506c3.397,5.736,9.875,7.247,16.138,6.051c3.984-1.068,9.104-5.146,9.406-9.75h-13.105
  c-0.153-2.942,0.3-5.809,0-8.402h25.212c0.094,10.29-3.221,20.104-12.774,25.214c-8.221,5.006-21.627,3.801-29.246-2.017
  c-8.948-6.568-12.117-17.286-10.087-27.904c2.039-8.402,9.721-16.552,17.815-19.498c10.735-2.792,22.632-0.074,29.586,8.74
  C353.396,36.079,354.003,37.137,354.378,38.442"/>
<path fill="none" stroke="#FFFFFF" stroke-width="0.216" stroke-miterlimit="3.864" d="M354.378,38.442l-7.729,6.389
  c-3.343-5.581-8.769-10.109-15.46-10.084c-5.208,0.43-9.874,2.844-12.442,7.396c-3.91,5.709-3.61,15.072,0.675,20.506
  c3.397,5.736,9.875,7.247,16.138,6.051c3.984-1.068,9.104-5.146,9.406-9.75h-13.105c-0.153-2.942,0.3-5.809,0-8.402h25.212
  c0.094,10.29-3.221,20.104-12.774,25.214c-8.221,5.006-21.627,3.801-29.246-2.017c-8.948-6.568-12.117-17.286-10.087-27.904
  c2.039-8.402,9.721-16.552,17.815-19.498c10.735-2.792,22.632-0.074,29.586,8.74C353.396,36.079,354.003,37.137,354.378,38.442z"/>
<path fill="#006F66" d="M76.717,61.304c0.873,3.155,4.038,6.327,7.059,7.059c4.509,0.474,8.574-0.432,10.757-4.034
  c2.036-3.19,1.887-8.928,2.019-13.45c-0.132-8.309-0.132-16.912,0-24.537h10.083c-0.273,12.908,0.028,33.89-1.01,38.994
  c-1.523,6.221-7.397,11.507-13.781,12.102c-7.926,1.364-16.062,0.458-21.514-5.711c-4.037-4.551-4.339-9.985-4.371-16.138
  l0.339-29.583c3.157,0.262,6.924-0.04,10.419,0V61.304"/>
<path fill="none" stroke="#FFFFFF" stroke-width="0.216" stroke-miterlimit="3.864" d="M76.717,61.304
  c0.873,3.155,4.038,6.327,7.059,7.059c4.509,0.474,8.574-0.432,10.757-4.034c2.036-3.19,1.887-8.928,2.019-13.45
  c-0.132-8.309-0.132-16.912,0-24.537h10.083c-0.273,12.908,0.028,33.89-1.01,38.994c-1.523,6.221-7.397,11.507-13.781,12.102
  c-7.926,1.364-16.062,0.458-21.514-5.711c-4.037-4.551-4.339-9.985-4.371-16.138l0.339-29.583c3.157,0.262,6.924-0.04,10.419,0
  V61.304z"/>
<path fill="#006F66" d="M11.168,37.436l15.797-11.093h18.827L11.504,51.219v17.817l30.255-22.523l9.747-6.388
  c-0.125,6.37-0.125,9.843,0,14.792l-32.606,23.87h23.194c7.33-5.721,19.38-10.553,18.825-21.52
  c0.555-7.299-3.362-13.941-9.413-17.143c1.23-1.629,2.584-3.438,3.361-5.378c2.389-5.762,0.88-12.854-3.361-17.142
  c-2.987-3.713-5.248-4.768-8.74-4.707c-10.817-0.061-20.91,0.087-31.597,0V37.436"/>
<g>
  <defs>
    <rect id="SVGID_1_" x="3" y="11.868" width="390.728" height="121.729"/>
  </defs>
  <clipPath id="SVGID_2_">
    <use xlink:href="#SVGID_1_"  overflow="visible"/>
  </clipPath>
  <path clip-path="url(#SVGID_2_)" fill="none" stroke="#FFFFFF" stroke-width="0.216" stroke-miterlimit="3.864" d="M11.168,37.436
    l15.797-11.093h18.827L11.504,51.219v17.817l30.255-22.523l9.747-6.388c-0.125,6.37-0.125,9.843,0,14.792l-32.606,23.87h23.194
    c7.33-5.721,19.38-10.553,18.825-21.52c0.555-7.299-3.362-13.941-9.413-17.143c1.23-1.629,2.584-3.438,3.361-5.378
    c2.389-5.762,0.88-12.854-3.361-17.142c-2.987-3.713-5.248-4.768-8.74-4.707c-10.817-0.061-20.91,0.087-31.597,0V37.436z"/>
</g>
<path fill="#FFFFFF" d="M390.013,31.72c-1.517,3.002-3.929,5.417-6.052,8.069c-2.242-2.351-5.409-5.671-9.413-4.034
  c-0.965,0.779-2.622,1.836-3.021,3.362c-0.656,1.493-0.506,3.755,0.335,5.043c5.486,5.808,15.275,4.902,18.487,13.445
  c1.61,4.894,1.307,9.873-1.01,14.122c-4.458,6.473-11.991,9.04-19.829,7.393c-3.914-0.77-7.073-2.885-10.422-5.376v-0.672
  l6.048-7.399c3.326,2.711,7.237,5.431,11.769,4.373c1.647-0.754,3.005-2.415,3.361-3.699c0.694-2.038,0.546-5.059-1.344-6.388
  c-5.189-4.557-13.326-4.101-16.808-11.093c-2.388-3.879-2.09-9.615-0.342-13.783c2.171-5.494,7.891-8.362,13.452-8.74
  C380.96,25.967,386.233,27.778,390.013,31.72"/>
<path fill="#006F66" stroke="#FFFFFF" stroke-width="0.216" stroke-miterlimit="3.864" d="M390.013,31.72
  c-1.517,3.002-3.929,5.417-6.052,8.069c-2.242-2.351-5.409-5.671-9.413-4.034c-0.965,0.779-2.622,1.836-3.021,3.362
  c-0.656,1.493-0.506,3.755,0.335,5.043c5.486,5.808,15.275,4.902,18.487,13.445c1.61,4.894,1.307,9.873-1.01,14.122
  c-4.458,6.473-11.991,9.04-19.829,7.393c-3.914-0.77-7.073-2.885-10.422-5.376v-0.672l6.048-7.399
  c3.326,2.711,7.237,5.431,11.769,4.373c1.647-0.754,3.005-2.415,3.361-3.699c0.694-2.038,0.546-5.059-1.344-6.388
  c-5.189-4.557-13.326-4.101-16.808-11.093c-2.388-3.879-2.09-9.615-0.342-13.783c2.171-5.494,7.891-8.362,13.452-8.74
  C380.96,25.967,386.233,27.778,390.013,31.72z"/>
<path fill="#006F66" d="M162.101,77.438l-37.312-29.583c-0.051-0.152-0.051-0.454-0.336-0.336v29.919H114.03V27.014l1.343,0.335
  l36.306,28.572h0.334V26.678h10.087V77.438"/>
<path fill="none" stroke="#FFFFFF" stroke-width="0.216" stroke-miterlimit="3.864" d="M162.101,77.438l-37.312-29.583
  c-0.051-0.152-0.051-0.454-0.336-0.336v29.919H114.03V27.014l1.343,0.335l36.306,28.572h0.334V26.678h10.087V77.438z"/>
<rect x="229.668" y="27.014" fill="#006F66" width="10.757" height="50.425"/>
<rect x="229.668" y="27.014" fill="none" stroke="#FFFFFF" stroke-width="0.216" stroke-miterlimit="3.864" width="10.757" height="50.425"/>
<path fill="#006F66" d="M219.92,77.438l-37.313-29.583c-0.328-0.152-0.328-0.152-0.675,0l0.338,29.583H171.85V27.014l1.006,0.674
  l36.641,28.572V26.678h10.423V77.438"/>
<path fill="none" stroke="#FFFFFF" stroke-width="0.216" stroke-miterlimit="3.864" d="M219.92,77.438l-37.313-29.583
  c-0.328-0.152-0.328-0.152-0.675,0l0.338,29.583H171.85V27.014l1.006,0.674l36.641,28.572V26.678h10.423V77.438z"/>
<polyline fill="#006F66" points="297.233,77.438 260.258,47.856 259.921,47.856 259.921,77.775 249.501,77.775 249.501,27.349 
  250.507,27.688 286.814,56.259 287.149,27.014 297.233,27.014 297.233,77.438 "/>
<polygon fill="none" stroke="#FFFFFF" stroke-width="0.216" stroke-miterlimit="3.864" points="297.233,77.438 260.258,47.856 
  259.921,47.856 259.921,77.775 249.501,77.775 249.501,27.349 250.507,27.688 286.814,56.259 287.149,27.014 297.233,27.014 "/>
<polyline fill="#EC1C24" points="13.185,81.477 128.484,81.477 128.484,55.921 160.419,81.477 186.303,81.477 186.303,56.598 
  217.903,81.477 263.955,81.477 263.955,56.598 295.889,81.477 392.028,81.477 392.028,131.899 13.185,131.899 13.185,81.477 "/>
<polygon fill="none" stroke="#EC1C24" stroke-width="0.312" stroke-miterlimit="3.864" points="13.185,81.477 128.484,81.477 
  128.484,55.921 160.419,81.477 186.303,81.477 186.303,56.598 217.903,81.477 263.955,81.477 263.955,56.598 295.889,81.477 
  392.028,81.477 392.028,131.899 13.185,131.899 "/>
<path fill-rule="evenodd" clip-rule="evenodd" fill="#FFFFFF" d="M143.277,88.867h-11.43v35.975h11.43V110.38
  c-0.11-6.309,1.467-10.998,7.729-11.089c1.868,0.091,3.381,0.3,5.043,1.342V88.199h-2.353c-4.416,0.112-8.196,2.074-10.419,6.385
  V88.867"/>
<path fill="#FFFFFF" d="M110.669,125.512c2.766-0.549,5.336-2.114,6.721-4.708h0.338v4.038h11.426V88.867h-11.426v3.365
  c-1.836-2.212-4.364-3.648-7.06-4.37v10.759c4.628,0.059,7.336,3.77,7.396,8.065c-0.06,4.67-2.768,8.175-7.396,8.067V125.512"/>
<path fill="#FFFFFF" d="M108.316,87.526c-0.219,0.094-0.465,0.085-0.675,0c-9.617,0.085-16.236,8.91-16.132,19.16
  c-0.104,10.343,6.643,19.24,16.132,19.159c0.293,0.081,0.495,0.076,0.675,0V114.42c-3.225-0.834-5.058-3.871-5.042-7.733
  c-0.016-3.502,1.809-6.655,5.042-7.729V87.526"/>
<path fill="#FFFFFF" d="M207.48,88.535c-2.174,0.999-3.885,2.56-5.378,4.709V75.761l-11.766-8.742v57.823h11.766v-18.489
  c-0.157-4.062,1.168-8.21,5.378-8.402V88.535"/>
<path fill="#FFFFFF" d="M209.833,97.95c2.849,1.062,3.268,4.767,3.364,8.402v18.489h11.427v-22.189
  c-0.053-9.018-4.02-15.041-12.098-15.126c-1.088,0.085-1.999,0.173-2.693,0.336V97.95"/>
<path fill="#FFFFFF" d="M246.14,125.846c9.742-0.46,18.138-7.319,18.151-19.159c-0.017-11.66-8.421-18.436-18.151-18.824v10.759
  c3.782,0.723,6.033,4.161,6.05,8.065c-0.017,4.268-2.271,7.547-6.05,8.067V125.846"/>
<path fill="#FFFFFF" d="M243.447,114.754c-3.775-0.531-6.025-3.805-6.048-8.067c0.022-3.902,2.272-7.34,6.048-8.065l0.34-11.095
  c-10.058,0.614-18.467,7.482-18.489,19.16c0.022,11.9,8.464,18.697,18.149,19.159V114.754"/>
<path fill="#FFFFFF" d="M280.762,115.765c-3.62-0.589-4.452-3.631-4.37-7.731V88.867h-11.429v21.513
  c-0.129,11.409,6.762,15.23,15.799,15.466V115.765"/>
<path fill="#FFFFFF" d="M283.114,125.846c9.236-0.233,16.136-4.043,16.136-15.466V88.867h-11.429v19.166
  c-0.045,4.13-0.812,7.103-4.707,7.731V125.846"/>
<path fill="#FFFFFF" d="M173.53,125.846c7.09-0.185,13.923-4.057,15.797-12.1h-11.091c-1.167,1.967-2.683,2.92-4.706,3.027V125.846"
  />
<path fill="#FFFFFF" d="M171.177,116.773c-3.727-0.546-5.659-3.271-5.716-7.733h24.203v-1.343
  c-0.003-11.804-5.893-19.342-16.133-20.171v8.407c2.664,0.444,4.972,2.556,5.378,5.714h-13.111c0.507-3.304,2.661-5.205,5.38-5.714
  v-8.407c-10.109,0.438-17.131,7.591-17.145,19.16c0.013,11.9,7.242,18.554,17.145,19.159V116.773"/>
<path fill="#FFFFFF" d="M346.987,125.846c7.258-0.185,14.089-4.057,15.795-12.1h-11.088c-1.002,1.967-2.52,2.92-4.707,3.027V125.846
  "/>
<path fill="#FFFFFF" d="M344.965,116.773c-3.89-0.546-5.825-3.271-5.713-7.733h23.867v-1.343
  c0.162-11.804-5.729-19.342-16.132-20.171v8.407c2.829,0.444,5.135,2.556,5.715,5.714h-13.45c0.676-3.304,2.828-5.205,5.713-5.714
  v-8.407c-10.274,0.438-17.291,7.591-17.145,19.16c-0.146,11.9,7.077,18.554,17.145,19.159V116.773"/>
<path fill="#FFFFFF" d="M316.729,101.306c-1.585-0.314-2.987-1.025-3.026-2.685c0.039-1.694,2.307-2.325,3.7-2.353
  c1.888,0.027,4.346,0.73,6.049,1.682l4.036-8.072c-3.469-1.639-7.128-2.267-10.759-2.352c-7.084,0.085-14.271,4.009-14.119,12.773
  c-0.151,6.506,3.444,8.467,7.06,9.413c1.009,0.404,2.038,0.63,3.025,1.011L316.729,101.306"/>
<path fill="#FFFFFF" d="M315.051,111.392c1.035,0.416,1.78,1.141,1.679,2.354c0.102,2.023-2.038,2.794-3.361,2.689
  c-2.964,0.104-6.875-1.717-9.077-3.695l-4.363,9.075c3.984,2.64,8.523,4.111,13.106,4.03c7.519,0.081,15.27-3.843,15.129-13.442
  c0.141-6.508-3.896-9.312-9.417-10.423L315.051,111.392"/>
<polyline fill="#FFFFFF" points="46.464,88.867 34.027,88.867 50.164,124.842 57.223,124.842 58.564,120.471 46.464,88.867 "/>
<polyline fill="#FFFFFF" points="67.978,88.867 61.589,88.867 55.204,105.006 59.91,117.446 64.616,105.006 72.347,124.842 
  79.406,124.842 80.752,121.815 67.978,88.867 "/>
<polyline fill="#FFFFFF" points="82.096,118.787 95.206,88.867 83.441,88.867 76.717,105.344 82.096,118.787 "/>
</svg>
