<?xml version="1.0" encoding="utf-8"?>
<!DOCTYPE svg PUBLIC "-//W3C//DTD SVG 1.1//EN" "http://www.w3.org/Graphics/SVG/1.1/DTD/svg11.dtd">
<svg version="1.1" id="svg2" xmlns:svg="http://www.w3.org/2000/svg"
	 xmlns="http://www.w3.org/2000/svg" xmlns:xlink="http://www.w3.org/1999/xlink" x="0px" y="0px" width="183px" height="51px"
	 viewBox="0 0 183 51" enable-background="new 0 0 183 51" xml:space="preserve">
<path id="path25" fill="#100E0C" d="M59.534,25.016H55.04v9.671c0,1.754,1.028,2.139,2.61,2.139c0.601,0,1.242-0.085,1.884-0.085
	v5.353c-1.328,0.042-2.655,0.212-3.98,0.212c-6.208,0-7.792-1.797-7.792-7.833v-9.457h-3.681V20.13h3.681v-6.977h7.278v6.977h4.494
	V25.016z M96.171,25.016h-4.497v9.671c0,1.754,1.029,2.139,2.613,2.139c0.599,0,1.242-0.085,1.884-0.085v5.353
	c-1.327,0.042-2.655,0.212-3.982,0.212c-6.208,0-7.79-1.797-7.79-7.833v-9.457h-3.683V20.13h3.683v-6.977h7.276v6.977h4.497V25.016z
	 M20.766,32.85c0,6.496-3.331,9.781-10.15,9.781c-7.673,0-10.148-4.424-10.148-10.879v-1.258h7.104v2.68
	c0,1.91,1.056,2.965,2.922,2.965c1.747,0,2.72-0.976,2.72-3.777V13.038h7.553V32.85z M37.726,28.715
	c-0.127-2.461-1.866-4.5-4.287-4.5c-2.548,0-4.245,1.826-4.668,4.5H37.726z M28.771,32.744c0.127,3.014,1.866,5.008,4.923,5.008
	c1.739,0,3.438-0.804,4.12-2.418h6.745c-1.315,5.093-6.026,7.299-10.949,7.299c-7.172,0-12.055-4.326-12.055-11.713
	c0-6.747,5.392-11.585,11.885-11.585c7.895,0,11.84,5.944,11.503,13.41H28.771z M66.628,34.76c0,1.102,0.464,1.906,1.185,2.456
	c0.676,0.509,1.652,0.761,2.667,0.761c1.397,0,3.386-0.592,3.386-2.328c0-1.693-2.243-2.031-3.513-2.325
	c-4.532-1.146-10.203-1.271-10.203-7.198c0-5.291,5.719-6.73,10.033-6.73c4.826,0,9.864,1.397,10.118,7.111h-6.645
	c0-0.931-0.342-1.524-0.934-1.906c-0.591-0.379-1.395-0.549-2.286-0.549c-1.185,0-3.089,0.127-3.089,1.652
	c0,2.073,4.823,2.453,8.127,3.174c4.446,0.888,5.587,4.104,5.587,5.926c0,5.884-5.587,7.83-10.54,7.83
	c-5.208,0-10.542-1.734-10.752-7.873H66.628z M106.777,38.199c3.422,0,4.56-1.941,4.39-6.457c-1.013,0.631-2.872,0.758-4.435,1.18
	c-1.604,0.382-2.953,1.056-2.953,2.787C103.779,37.482,105.174,38.199,106.777,38.199 M97.488,26.844
	c0.127-2.873,1.477-4.731,3.418-5.869c1.943-1.101,4.475-1.522,6.967-1.522c5.195,0,10.216,1.14,10.216,7.348v9.587
	c0,1.854,0,3.883,0.849,5.614h-7.222c-0.252-0.676-0.339-1.352-0.421-2.068c-1.859,1.941-4.604,2.697-7.223,2.697
	c-4.179,0-7.471-2.108-7.471-6.625c0-7.139,7.769-6.588,12.752-7.601c1.223-0.255,1.898-0.677,1.898-2.026
	c0-1.649-1.984-2.283-3.463-2.283c-1.984,0-3.25,0.888-3.589,2.748H97.488z M129.148,20.771c-1.098,0.719-1.951,1.77-2.471,3.137
	h-0.082v-3.853h-6.986v21.97h7.196V31.146c0-2.75,1.858-5.208,5.417-5.208c0.826,0,1.564,0.127,2.336,0.319L129.148,20.771z"/>
<path id="path53" fill="#FE5815" d="M160.787,0.5l0.938,15.064h20.809l-19.93,13.188L167,50.5l-16.94-14.712l-22.804,11.84
	l13.599-18.64l-12.896-13.424h20.87L160.787,0.5z"/>
</svg>
