<?xml version="1.0" encoding="utf-8"?>
<!DOCTYPE svg PUBLIC "-//W3C//DTD SVG 1.1//EN" "http://www.w3.org/Graphics/SVG/1.1/DTD/svg11.dtd">
<svg version="1.1" id="Layer_1" xmlns="http://www.w3.org/2000/svg" xmlns:xlink="http://www.w3.org/1999/xlink" x="0px" y="0px"
	 width="51px" height="55px" viewBox="0 0 51 55" enable-background="new 0 0 51 55" xml:space="preserve">
<g>
	<polygon fill="#1D3278" points="44.452,32.109 42.526,40.404 40.499,32.109 37.713,32.109 35.653,40.313 33.782,32.109 
		30.739,32.109 34.108,45.061 37.104,45.061 39.081,36.87 41.093,45.061 44.034,45.061 44.063,44.952 47.454,32.109 	"/>
	<polygon fill="#1D3278" points="16.53,40.385 9.483,32.109 6.496,32.109 6.496,45.063 9.406,45.063 9.406,36.807 16.433,45.063 
		19.44,45.063 19.44,32.109 16.53,32.109 	"/>
	<path fill="#1D3278" d="M6.188,49.037v-0.014c0-1.125,0.859-2.073,2.067-2.073c0.7,0,1.128,0.194,1.542,0.543l-0.448,0.538
		C9.038,47.766,8.734,47.6,8.225,47.6c-0.738,0-1.3,0.645-1.3,1.412v0.014c0,0.822,0.544,1.434,1.362,1.434
		c0.379,0,0.721-0.123,0.969-0.305v-0.752H8.232V48.79H9.94v1.685c-0.395,0.338-0.963,0.627-1.673,0.627
		C7.013,51.102,6.188,50.205,6.188,49.037"/>
	<path fill="#1D3278" d="M10.365,49.037v-0.014c0-1.129,0.872-2.073,2.102-2.073c1.232,0,2.091,0.935,2.091,2.062v0.014
		c0,1.127-0.871,2.076-2.103,2.076S10.365,50.165,10.365,49.037 M13.82,49.037v-0.014c0-0.78-0.569-1.424-1.364-1.424
		s-1.349,0.635-1.349,1.41v0.014c0,0.781,0.565,1.429,1.36,1.429C13.265,50.454,13.82,49.814,13.82,49.037"/>
	<polygon fill="#1D3278" points="14.507,47.02 15.287,47.02 16.496,50.102 17.697,47.02 18.46,47.02 16.794,51.059 16.175,51.059 	
		"/>
	<polygon fill="#1D3278" points="18.934,47.02 21.907,47.02 21.907,47.652 19.639,47.652 19.639,48.693 21.65,48.693 21.65,49.322 
		19.639,49.322 19.639,50.4 21.937,50.4 21.937,51.029 18.934,51.029 	"/>
	<path fill="#1D3278" d="M22.621,47.02h1.788c0.504,0,0.899,0.152,1.157,0.398c0.212,0.221,0.332,0.52,0.332,0.865v0.012
		c0,0.661-0.395,1.057-0.958,1.221l1.083,1.514h-0.831l-0.985-1.396h-0.884v1.396h-0.702L22.621,47.02L22.621,47.02z M24.356,49.009
		c0.504,0,0.826-0.266,0.826-0.671v-0.016c0-0.428-0.309-0.661-0.831-0.661h-1.026v1.348H24.356z"/>
	<polygon fill="#1D3278" points="26.518,47.02 27.169,47.02 29.319,49.791 29.319,47.02 30.011,47.02 30.011,51.029 29.42,51.029 
		27.21,48.178 27.21,51.029 26.518,51.029 	"/>
	<polygon fill="#1D3278" points="30.725,47.02 31.476,47.02 32.696,48.918 33.915,47.02 34.667,47.02 34.667,51.029 33.963,51.029 
		33.963,48.152 32.696,50.045 32.673,50.045 31.42,48.164 31.42,51.029 30.725,51.029 	"/>
	<polygon fill="#1D3278" points="35.339,47.02 38.311,47.02 38.311,47.652 36.044,47.652 36.044,48.693 38.055,48.693 
		38.055,49.322 36.044,49.322 36.044,50.4 38.343,50.4 38.343,51.029 35.339,51.029 	"/>
	<polygon fill="#1D3278" points="39.034,47.02 39.687,47.02 41.837,49.791 41.837,47.02 42.532,47.02 42.532,51.029 41.94,51.029 
		39.729,48.178 39.729,51.029 39.034,51.029 	"/>
	<polygon fill="#1D3278" points="44.358,47.674 43.088,47.674 43.088,47.021 46.341,47.021 46.341,47.674 45.069,47.674 
		45.069,51.029 44.358,51.029 	"/>
	<path fill="#1D3278" d="M20.24,43.258l1.712-2.048c1.184,0.976,2.426,1.599,3.929,1.599c1.185,0,1.899-0.471,1.899-1.24v-0.039
		c0-0.733-0.451-1.106-2.652-1.672c-2.651-0.68-4.36-1.41-4.36-4.022v-0.038c0-2.387,1.917-3.966,4.607-3.966
		c1.916,0,3.554,0.601,4.887,1.674l-1.503,2.179c-1.17-0.811-2.313-1.295-3.422-1.295c-1.11,0-1.692,0.506-1.692,1.143v0.039
		c0,0.865,0.563,1.146,2.839,1.73c2.67,0.692,4.174,1.653,4.174,3.945v0.041c0,2.609-1.992,4.078-4.832,4.078
		C23.831,45.363,21.82,44.673,20.24,43.258"/>
	<path fill="#DD0332" d="M13.423,7.522c-0.272,0.011-0.433,0.167-0.492,0.486c0,0-0.066,0.471-0.139,1.274
		c-0.068,0.734-0.152,1.897-0.152,3.281c0,3.118,0.41,7.548,2.349,10.945c1.49,2.589,3.594,4.05,5.941,4.128
		c-0.916-0.702-2.003-1.863-2.583-3.667c-0.544-1.715-0.824-3.739-0.824-6.019c0-3.15,0.526-5.848,0.689-6.603
		c0.003-0.019,0.006-0.031,0.008-0.039c0.094-0.437,0.347-0.787,0.685-0.964c-2.393-1.537-4.452-2.439-4.85-2.61
		c-0.239-0.11-0.369-0.157-0.369-0.158h-0.004L13.68,7.575C13.593,7.542,13.507,7.522,13.423,7.522"/>
	<path fill="#DD0332" d="M33.819,11.164c-0.061,0-0.129,0.028-0.203,0.086c-0.002,0.001-0.074,0.057-0.207,0.174
		c-0.141,0.109-0.334,0.275-0.603,0.514c-0.356,0.319-1.091,0.996-1.94,1.932c-1.354,1.502-3.143,3.873-3.992,6.616
		c-0.488,1.599-0.733,2.985-0.727,4.118c-0.009,0.847,0.125,1.565,0.399,2.133c0.261,0.553,0.657,0.946,1.215,1.204
		c0.235,0.104,0.53,0.155,0.888,0.155h0.016c1.637,0,4.371-1.365,5.311-4.404c0.508-1.637,0.764-3.568,0.764-5.742
		c0-2.698-0.391-5.05-0.562-5.936c-0.063-0.326-0.103-0.505-0.103-0.505C34.034,11.357,33.956,11.164,33.819,11.164"/>
	<path fill="#DD0332" d="M19.411,11.164c-0.146,0-0.23,0.191-0.277,0.352c-0.006,0.029-0.041,0.205-0.101,0.501
		c-0.045,0.225-0.137,0.709-0.233,1.392c-0.154,1.066-0.337,2.719-0.337,4.543c0,2.208,0.261,4.137,0.773,5.732
		c0.963,3.045,3.762,4.414,5.443,4.414h0.019c0.353,0,0.665-0.054,0.925-0.166c0.138-0.055,0.269-0.127,0.417-0.23
		c-0.124-0.164-0.232-0.351-0.333-0.561c-0.328-0.681-0.491-1.51-0.502-2.533c0.011-1.263,0.275-2.744,0.788-4.395
		c0.043-0.152,0.096-0.307,0.148-0.455c0.02-0.059,0.041-0.12,0.063-0.179c-1.787-4.438-5.891-7.783-6.354-8.152
		c-0.145-0.12-0.222-0.176-0.222-0.177C19.541,11.194,19.469,11.164,19.411,11.164"/>
	<path fill="#DD0332" d="M26.599,3.899c-0.098,0-0.201,0.077-0.304,0.234c-0.003,0.002-0.087,0.125-0.223,0.349
		c-0.206,0.344-0.401,0.677-0.6,1.023c-0.443,0.784-1.115,2.051-1.807,3.627c-0.474,1.078-0.907,2.196-1.284,3.33
		c1.33,1.329,3.111,3.402,4.299,5.916c0.916-1.972,2.309-3.933,4.143-5.838c-1.25-3.799-3.008-6.897-3.709-8.056
		c-0.148-0.232-0.226-0.356-0.226-0.356C26.751,3.916,26.632,3.899,26.599,3.899"/>
	<path fill="#DD0332" d="M39.755,7.522c-0.053,0-0.141,0.012-0.247,0.056L39.504,7.58h-0.002c-0.003,0-0.132,0.047-0.366,0.156
		c-0.229,0.092-0.527,0.236-0.916,0.416l-0.133,0.063c-1.184,0.574-2.335,1.212-3.422,1.898c-0.127,0.071-0.246,0.146-0.368,0.229
		c0.335,0.168,0.595,0.525,0.688,0.964c0.002,0.012,0.004,0.024,0.008,0.045c0.16,0.753,0.682,3.452,0.682,6.6
		c0,2.269-0.271,4.293-0.805,6.019c-0.57,1.811-1.633,2.967-2.526,3.664c2.312-0.111,4.384-1.565,5.854-4.127
		c1.94-3.395,2.349-7.826,2.349-10.942c0-1.104-0.05-2.213-0.149-3.294C40.323,8.478,40.259,8.005,40.259,8
		C40.2,7.689,40.036,7.532,39.755,7.522"/>
	<path fill="#DD0332" d="M33.339,4.887c-0.029,0-0.063,0.002-0.092,0.008h-0.006h-0.002c-0.072,0.007-0.145,0.036-0.22,0.088
		l-0.005,0.003l-0.003,0.001c-0.006,0.005-0.513,0.315-1.298,0.879c-0.436,0.31-1.124,0.826-1.971,1.524
		c0.615,1.275,1.164,2.575,1.636,3.871c1.01-0.795,2.114-1.552,3.37-2.309c-0.354-1.801-0.764-3.14-0.924-3.638
		c-0.006-0.018-0.01-0.029-0.012-0.039C33.718,5.019,33.557,4.887,33.339,4.887"/>
	<path fill="#DD0332" d="M19.851,4.887c-0.219,0-0.378,0.132-0.477,0.39c-0.003,0.01-0.005,0.021-0.013,0.039
		c-0.16,0.498-0.568,1.837-0.922,3.638c1.256,0.756,2.361,1.512,3.369,2.308c0.448-1.257,1-2.558,1.637-3.87
		c-0.668-0.553-1.331-1.065-1.97-1.524c-0.784-0.565-1.294-0.874-1.298-0.879l-0.003-0.001l-0.002-0.002
		c-0.074-0.053-0.149-0.082-0.218-0.089h-0.007h-0.002C19.913,4.888,19.881,4.887,19.851,4.887"/>
	<path fill="#DD0332" d="M8.528,13.311c-0.68,0-1.074,0.02-1.079,0.02c-0.269,0.018-0.515,0.164-0.677,0.406
		c-0.097,0.142-0.147,0.322-0.138,0.497c0.047,0.467,0.358,2.164,2.383,4.718c1.038-0.514,2.068-0.967,3.064-1.347
		c-0.207-1.274-0.329-2.661-0.363-4.134c-1.24-0.114-2.215-0.149-2.823-0.157C8.766,13.311,8.641,13.311,8.528,13.311"/>
	<path fill="#DD0332" d="M44.659,13.311c-0.113,0-0.236,0-0.367,0.001c-0.604,0.007-1.584,0.043-2.819,0.157
		c-0.034,1.417-0.161,2.808-0.366,4.132c0.997,0.38,2.024,0.834,3.063,1.349c2.028-2.563,2.34-4.257,2.386-4.721
		c0.016-0.159-0.07-0.399-0.139-0.493c-0.164-0.241-0.41-0.389-0.678-0.406C45.735,13.331,45.331,13.311,44.659,13.311"/>
	<path fill="#DD0332" d="M40.936,18.55c-0.415,2.087-1.063,3.913-1.929,5.427c-0.898,1.583-2.027,2.786-3.357,3.578
		c9.635-0.523,12.354-3.623,12.637-3.981h0.002c0.097-0.146,0.144-0.308,0.144-0.478c0-0.281-0.13-0.55-0.342-0.703
		c0,0-0.114-0.077-0.315-0.214l-0.002-0.003l-0.005-0.002c-0.149-0.112-0.37-0.26-0.651-0.44c-0.071-0.049-0.15-0.101-0.229-0.152
		c-0.69-0.444-1.8-1.116-3.16-1.794C42.788,19.312,41.85,18.896,40.936,18.55"/>
	<path fill="#DD0332" d="M12.255,18.55c-3.25,1.231-5.865,2.941-6.847,3.625c-0.197,0.144-0.307,0.218-0.312,0.22
		c-0.207,0.151-0.338,0.422-0.338,0.702c0,0.169,0.048,0.328,0.142,0.475c0.007,0.009,0.014,0.018,0.018,0.024
		c0.02,0.022,0.04,0.046,0.063,0.073c0.012,0.015,0.024,0.03,0.04,0.046c0.066,0.073,0.218,0.234,0.461,0.434
		c0.405,0.348,1.134,0.872,2.307,1.4c2.427,1.099,5.788,1.794,9.751,2.016c-1.313-0.789-2.465-2.02-3.357-3.585
		C13.317,22.46,12.669,20.639,12.255,18.55"/>
	<path fill="#DD0332" d="M39.729,28.259c-0.492,0-1.224,0.103-2.33,0.255c-0.162,0.021-0.336,0.045-0.515,0.07
		c-0.483,0.066-1.074,0.102-1.854,0.102c-0.479,0-0.975-0.014-1.5-0.023l-0.047-0.002c-0.498-0.01-1.066-0.021-1.634-0.021
		c-1.181,0-2.707,0.049-4.053,0.422c-0.065,0.021-0.114,0.092-0.106,0.141c0.004,0.042,0.088,0.061,0.158,0.061
		c0.02,0,0.04-0.005,0.063-0.005c0.533-0.048,1.05-0.071,1.537-0.071c1.754,0,2.953,0.306,4.112,0.597
		c1.089,0.276,2.12,0.536,3.55,0.536c1.526,0,2.735-0.323,3.231-0.871c0.168-0.184,0.243-0.385,0.224-0.594
		C40.526,28.443,40.396,28.259,39.729,28.259"/>
	<path fill="#DD0332" d="M13.457,28.259c-0.666,0-0.793,0.185-0.835,0.589c-0.02,0.213,0.053,0.414,0.215,0.592
		c0.488,0.543,1.731,0.875,3.24,0.875c1.432,0,2.461-0.26,3.552-0.537c1.159-0.291,2.357-0.598,4.114-0.594
		c0.483,0,1,0.023,1.532,0.068c0.024,0,0.045,0.005,0.065,0.005c0.07,0,0.154-0.017,0.161-0.06c0.006-0.049-0.043-0.117-0.113-0.139
		c-1.342-0.375-2.869-0.422-4.05-0.422c-0.567,0-1.134,0.014-1.632,0.021l-0.048,0.002c-0.527,0.013-1.021,0.023-1.5,0.023
		c-0.781,0-1.372-0.035-1.855-0.102c-0.184-0.025-0.36-0.055-0.527-0.072C14.678,28.361,13.949,28.259,13.457,28.259"/>
</g>
</svg>
