<?xml version="1.0" encoding="iso-8859-1"?>
<svg version="1.2" baseProfile="tiny" id="Layer_1" xmlns="http://www.w3.org/2000/svg" xmlns:xlink="http://www.w3.org/1999/xlink"
	 x="0px" y="0px" width="100px" height="60px" viewBox="0 0 100 60" xml:space="preserve">
<g>
	<linearGradient id="SVGID_1_" gradientUnits="userSpaceOnUse" x1="30.2827" y1="55.6104" x2="30.2827" y2="4.6919">
		<stop  offset="0" style="stop-color:#00B3E3"/>
		<stop  offset="0.809" style="stop-color:#0075C9"/>
	</linearGradient>
	<circle fill="url(#SVGID_1_)" cx="30.283" cy="30.151" r="25.459"/>
	<g>
		<path fill="#FFFFFE" d="M9.577,35.396h1.803v-5.247h3.315V28.83H11.38v-3.477h4.136v-1.319H9.577V35.396z M19.135,27.027
			c-0.772,0-1.416,0.113-2.204,0.354v1.223c0.627-0.178,1.159-0.258,1.722-0.258c0.965,0,1.352,0.387,1.352,1.32v0.853
			c0,0-1.368,0.032-2.012,0.097c-1.513,0.16-2.285,0.981-2.285,2.461c0,1.466,0.869,2.447,2.237,2.447
			c0.547,0,1.062-0.145,2.172-0.645l0.145,0.516h1.464v-5.472c0-1.239-0.145-1.819-0.579-2.253
			C20.745,27.252,20.004,27.027,19.135,27.027z M20.004,33.898c-0.386,0.178-0.756,0.307-1.126,0.307
			c-0.933,0-1.416-0.436-1.416-1.305c0-0.707,0.386-1.158,1.174-1.271c0.387-0.064,1.368-0.097,1.368-0.097V33.898z M24.752,23.905
			c-0.692,0-1.063,0.37-1.063,1.062c0,0.692,0.354,1.046,1.046,1.046c0.692,0,1.063-0.37,1.063-1.062
			C25.798,24.259,25.444,23.905,24.752,23.905z M23.883,35.396h1.722v-8.24h-1.722V35.396z M29.402,27.929l-0.145-0.773h-1.465v8.24
			h1.722v-6.373c0.258-0.306,0.869-0.483,1.32-0.483c0.611,0,0.901,0.113,1.335,0.354v-1.512c-0.306-0.209-0.595-0.354-1.078-0.354
			C30.464,27.027,29.756,27.477,29.402,27.929z M35.968,26.175c0-0.998,0.306-1.336,1.271-1.336c0.257,0,0.692,0.032,0.95,0.064
			v-1.159c-0.37-0.08-1.063-0.145-1.513-0.145c-1.641,0-2.43,0.836-2.43,2.591v0.965l-0.998,0.161v0.982h0.998v7.097h1.722v-7.097
			h1.689v-1.143h-1.689V26.175z M41.15,27.027c-0.772,0-1.416,0.113-2.205,0.354v1.223c0.627-0.178,1.159-0.258,1.722-0.258
			c0.965,0,1.352,0.387,1.352,1.32v0.853c0,0-1.368,0.032-2.012,0.097c-1.512,0.16-2.285,0.981-2.285,2.461
			c0,1.466,0.869,2.447,2.237,2.447c0.547,0,1.063-0.145,2.172-0.645l0.145,0.516h1.464v-5.472c0-1.239-0.145-1.819-0.579-2.253
			C42.759,27.252,42.019,27.027,41.15,27.027z M42.019,33.898c-0.386,0.178-0.756,0.307-1.126,0.307
			c-0.934,0-1.416-0.436-1.416-1.305c0-0.707,0.386-1.158,1.174-1.271c0.387-0.064,1.368-0.097,1.368-0.097V33.898z M49.389,30.97
			l2.301-3.814h-1.448l-1.593,2.784l-1.609-2.784h-1.932l2.397,3.911l-2.703,4.329h1.562l1.866-3.202l1.899,3.202h1.947
			L49.389,30.97z"/>
	</g>
	<path fill="#003B4C" stroke="#003B4C" stroke-width="0.4438" d="M67.912,35.396V25.321l-3.38,10.074h-1.11l-3.396-10.058v10.058
		h-1.03V24.034h1.643l3.362,9.961l3.251-9.961h1.706v11.362H67.912z"/>
	<path fill="#003B4C" stroke="#003B4C" stroke-width="0.4438" d="M77.02,31.518h-4.861c0,2.204,0.886,3.122,2.752,3.122
		c0.467,0,1.224-0.081,1.867-0.209v0.853c-0.691,0.145-1.384,0.241-2.092,0.241c-2.607,0-3.557-1.562-3.557-4.039
		c0-2.946,1.287-4.33,3.154-4.33c2.06,0,2.784,1.513,2.784,3.348C77.067,30.745,77.02,31.518,77.02,31.518z M74.219,28.041
		c-1.143,0-1.963,1.014-2.044,2.591h3.862c0-0.113,0.016-0.321,0.016-0.434C76.053,28.83,75.426,28.041,74.219,28.041z"/>
	<path fill="#003B4C" stroke="#003B4C" stroke-width="0.4438" d="M84.035,35.396l-0.113-0.419c-0.418,0.274-1.238,0.548-1.85,0.548
		c-2.721,0-3.573-1.979-3.573-4.071c0-2.109,0.966-4.297,3.605-4.297c0.579,0,1.239,0.208,1.77,0.499v-3.942h0.982v11.683H84.035z
		 M83.874,28.636c-0.338-0.354-1.046-0.595-1.673-0.595c-1.675,0-2.688,1.288-2.688,3.363c0,1.931,0.788,3.235,2.719,3.235
		c0.5,0,1.143-0.178,1.642-0.435V28.636z"/>
	<path fill="#003B4C" stroke="#003B4C" stroke-width="0.4438" d="M87.832,25.965c-0.354,0-0.644-0.112-0.644-0.772
		c0-0.66,0.306-0.789,0.66-0.789s0.659,0.113,0.659,0.773S88.187,25.965,87.832,25.965z M87.35,35.396v-8.111h0.981v8.111H87.35z"/>
	<path fill="#003B4C" stroke="#003B4C" stroke-width="0.4438" d="M94.895,35.396l-0.177-0.579c-1.03,0.579-1.529,0.708-2.302,0.708
		c-1.287,0-2.285-0.772-2.285-2.301c0-1.497,0.805-2.351,2.092-2.479c0.645-0.064,2.414-0.161,2.414-0.161v-0.95
		c0-1.029-0.369-1.593-1.576-1.593c-0.467,0-1.207,0.113-1.658,0.273v-0.853c0.387-0.145,1.143-0.306,1.786-0.306
		c0.821,0,1.464,0.226,1.802,0.563c0.371,0.386,0.629,0.901,0.629,2.205v5.472H94.895z M94.637,31.42c0,0-1.561,0.065-1.995,0.129
		c-1.095,0.162-1.513,0.725-1.513,1.528c0,0.983,0.434,1.563,1.576,1.563c0.548,0,1.546-0.402,1.932-0.725V31.42z"/>
</g>
</svg>
