<?xml version="1.0" encoding="utf-8"?>
<!DOCTYPE svg PUBLIC "-//W3C//DTD SVG 1.1//EN" "http://www.w3.org/Graphics/SVG/1.1/DTD/svg11.dtd">
<svg version="1.1" id="svg2" xmlns:svg="http://www.w3.org/2000/svg"
	 xmlns="http://www.w3.org/2000/svg" xmlns:xlink="http://www.w3.org/1999/xlink" x="0px" y="0px" width="450px" height="340.986px"
	 viewBox="0 0 450 340.986" enable-background="new 0 0 450 340.986" xml:space="preserve">
<g id="g12" transform="matrix(1.25,0,0,-1.25,-54.676498,382.42034)">
	<path id="path18" fill="#D52B1E" d="M61.925,305.936c-10.043,0-18.184-8.142-18.184-18.184V51.333
		c0-10.043,8.141-18.186,18.184-18.186h323.63c10.043,0,18.186,8.143,18.186,18.186v236.42c0,10.041-8.143,18.184-18.186,18.184
		H61.925"/>
	<path id="path20" fill="#FDC82F" d="M195.967,182.849C200.866,219.07,217.013,284.4,247.81,284.4
		c35.953,0,78.197-120.77,78.187-220.757h-33.155c0,104.87-25.687,199.362-44.17,199.366c-19.28,0.002-36.177-64.274-36.177-186.734
		h-33.11c0,122.46-16.795,186.734-36.177,186.734c-18.449,0-44.117-94.513-44.117-199.366H65.936
		c0.031,100.073,42.168,220.769,78.186,220.757C174.876,284.389,191.029,219.078,195.967,182.849"/>
	<path id="path22" fill="#D52B1E" d="M174.298,103.825h152.72v38.594h-152.72V103.825L174.298,103.825z"/>
	<path id="path24" fill="#FFFFFF" d="M311.612,107.697h9.61v31.616h-9.61V107.697z"/>
	<path id="path26" fill="#FFFFFF" d="M356.563,139.313h6.544l-2.223-8.616h-4.758L356.563,139.313"/>
	<path id="path28" fill="#FFFFFF" d="M374.384,134.629c6.393,0,12.398-1.613,12.427-7.888h-9.126c0,2.162-1.262,3.145-3.391,3.145
		c-1.264,0-2.973-0.525-2.973-2.506c0.002-3.288,5.201-2.63,9.615-3.941c3.966-1.177,6.715-3.542,6.715-7.363
		c0-5.853-4.592-9.092-13.267-9.127c-9.097-0.036-12.52,3.244-12.548,9.127h9.246c0-2.22,1.38-3.542,3.331-3.542
		c2.335,0,3.394,0.886,3.394,2.537c0,3.437-6.374,3.348-10.134,4.577c-2.556,0.838-4.879,2.733-4.879,6.756
		C362.794,129.765,365.316,134.629,374.384,134.629"/>
	<path id="path30" fill="#FFFFFF" d="M177.572,117.278c-1.595-6.285-6.809-10.359-13.311-10.362
		c-7.852,0-13.823,5.942-13.816,14.539c0.006,8.587,5.315,14.528,13.816,14.536c7.048,0.006,11.902-4.088,13.359-10.382
		l-8.993-0.001c-0.69,1.891-2.015,3.367-4.366,3.369c-3.968,0-5.015-4.205-5.013-7.522c0.001-3.319,1.045-7.522,5.013-7.522
		c2.341,0,3.663,1.462,4.355,3.344L177.572,117.278"/>
	<path id="path32" fill="#FFFFFF" d="M111.275,139.31h11.481l4.998-18.677l4.998,18.677h11.489l5.02-32.393h-9.473l-2.502,18.931
		l-5.177-18.931h-8.71l-5.176,18.931l-2.504-18.931h-9.48L111.275,139.31"/>
	<path id="path34" fill="#FFFFFF" d="M258.541,123.185c0-1.105,0-15.494,0-15.494h-9.501v27.622h9.501v-2.159
		c2.405,1.874,4.578,2.837,9.509,2.837c5.355,0,9.668-3.578,9.67-7.334v-20.966h-9.568v15.204c0.004,2.525-2.257,4.584-4.72,4.584
		C260.266,127.479,258.691,124.678,258.541,123.185"/>
	<path id="path36" fill="#FFFFFF" d="M343.302,132.573v6.74h9.609v-31.616h-9.609v1.534c-1.262-1.139-2.917-2.303-7.059-2.303
		c-4.66,0-12.063,2.589-12.07,13.713c-0.006,11.106,7.401,13.989,12.67,13.989C340.669,134.629,342.476,133.309,343.302,132.573z
		 M333.33,120.64c0-4.323,2.012-7.086,5.316-7.086c1.98,0,3.638,0.864,4.66,2.665v8.293c-0.512,1.831-2.29,3.181-4.66,3.181
		C335.335,127.696,333.33,124.962,333.33,120.64"/>
	<path id="path38" fill="#FFFFFF" d="M217.145,121.452c0.008,8.587,5.576,14.53,14.493,14.538
		c8.921,0.008,14.488-5.952,14.495-14.538c0.008-8.596-5.576-14.537-14.495-14.537C222.73,106.915,217.137,112.856,217.145,121.452z
		 M237.144,121.452c0.002,3.318-1.147,7.523-5.506,7.523c-4.358,0.002-5.507-4.205-5.506-7.523c0.002-3.318,1.148-7.521,5.506-7.521
		C235.997,113.931,237.144,118.134,237.144,121.452"/>
	<path id="path40" fill="#FFFFFF" d="M180.92,139.31h16.51c10.329,0,17.369-6.416,17.369-16.196c0-9.78-7.038-16.197-17.369-16.197
		h-16.51V139.31z M191.842,114.575h4.991c3.234,0,7.17,1.972,7.17,8.539c0,6.559-3.937,8.539-7.17,8.539h-4.991V114.575"/>
	<path id="path42" fill="#FFFFFF" d="M294.859,135.989c6.819,0.006,12.44-2.502,12.878-8.008v-20.284h-9.617v2.734
		c-2.335-2.002-4.663-3.502-8.866-3.502c-4.896,0-8.841,3.87-8.841,8.407c0,4.537,2.794,9.578,13.98,9.577
		c2.884-0.001,3.724,1.134,3.727,2.485c0.004,1.659-1.909,2.585-3.511,2.585c-1.602,0-3.419-0.667-3.419-2.402h-9.009
		C282.181,131.651,284.918,135.979,294.859,135.989z M294.327,120.424c-2.219,0-4.271-1.184-4.271-3.452
		c0-1.47,0.869-2.737,3.136-2.737c2.17,0,4.484,1.287,4.929,3.954v2.527C297.387,120.315,295.727,120.424,294.327,120.424"/>
</g>
</svg>
