<?xml version="1.0" encoding="utf-8"?>
<!DOCTYPE svg PUBLIC "-//W3C//DTD SVG 1.1//EN" "http://www.w3.org/Graphics/SVG/1.1/DTD/svg11.dtd">
<svg version="1.1"
	 id="svg2" xmlns:dc="http://purl.org/dc/elements/1.1/" xmlns:sodipodi="http://sodipodi.sourceforge.net/DTD/sodipodi-0.dtd" xmlns:inkscape="http://www.inkscape.org/namespaces/inkscape" xmlns:rdf="http://www.w3.org/1999/02/22-rdf-syntax-ns#" xmlns:cc="http://creativecommons.org/ns#" xmlns:svg="http://www.w3.org/2000/svg" inkscape:version="0.47 r22583"
	 xmlns="http://www.w3.org/2000/svg" xmlns:xlink="http://www.w3.org/1999/xlink" x="0px" y="0px" width="663px" height="320px"
	 viewBox="0 0 663 320" enable-background="new 0 0 663 320" xml:space="preserve">
<g id="layer1" transform="translate(142.26334,-613.40037)" inkscape:label="Layer 1" inkscape:groupmode="layer">
	<path id="path13038" d="M196.135,710.644c0.982-1.447,3.877-0.491,5.944-0.439c2.765,0.052,2.093,4.161,5.918,3.333
		c3.798-0.827,3.85,3.618,9.303,3.463c5.452-0.155-1.085,1.912-1.085,1.912s-3.386-1.628-5.582-0.542
		c-1.138,0.568,0.439-0.336-1.499-1.912c-2.998-2.455-2.584,0.465-7.598-3.799C197.997,709.636,194.559,713.021,196.135,710.644"/>
	<path id="path13040" d="M155.203,716.251c-3.23-5.194-0.827-11.681,2.842-18.012c2.688-4.625,9.846-6.693,16.1-4.238
		c7.003-5.53,8.684,0.414,14.885-2.274c8.141-3.541,3.593,9.354,11.475,12.637c3.256-8.709-7.442-15.247-0.724-19.33
		c4.78-2.946,8.398-4.755,10.362-8.657c2.791-5.582,3.876-9.665,6.047-10.388c4.962-1.706,3.902-6.435,3.902-6.435
		s5.298,1.551,9.406-2.3c-3.152-1.706-7.727-3.153-6.538-6.538c1.422-3.979,12.094,4.109,15.221-2.403
		c-6.331-2.765-12.791-8.76-16.668-10.156c-2.661,2.895-4.315,1.731-7.727-0.956c-5.788-4.6-6.279-0.233-9.897-3.385
		c-2.895,5.789,1.473,5.323,2.791,6.796c3.722,4.083-3.772-3.67-3.05,6.719c0.207,2.713-3.798,3.205-6.744-2.636
		c-1.551-3.049-13.852-2.403-15.712-5.324c1.705-3.385,16.177-15.453,38.427-12.559c-32.303-12.714-75.975,1.163-76.414,5.996
		c-4.342,2.713-2.843,5.84-5.014,6.563c-3.772,1.241-7.855,12.74-7.855,12.74s2.325,1.576-4.962,9.742
		c-6.021,6.745-7.804,16.927-7.804,16.927s3.979,7.287,3.229,15.686c-0.568,6.383-0.853,1.628,1.912,6.253
		c1.654,2.739,3.411,12.198,4.497,8.502c2.041-7.029-3.773-13.567-2.791-20.57c0.207,0.878,2.223-2.791,2.145,0.517
		c-0.206,8.657,10.647,25.325,10.647,25.325s-4.058,4.135,0.181,4.135l-1.06,2.558c0,0,3.127-0.181,5.168,1.473
		c2.042,1.68,3.799,3.721,5.66,3.721c4.237,0,31.242,0,31.242,0s2.223-9.484,4.031-11.086c1.809-1.628-3.644,0-5.246-1.628
		c-1.628-1.602-2.636,1.421-3.437,3.023c-0.801,1.628-1.809,4.445-4.238,5.246c-2.403,0.827-8.243,1.215-9.458,1.215
		S155.203,716.251,155.203,716.251"/>
	<path id="path13042" d="M301.571,817.707c-1.215-1.604,0.207-4.032,0.207-4.032h-88.096l9.794,8.579
		c2.171,0.854,4.885,3.023,6.125,6.332c2.946,7.805-1.422,1.473-1.422,13.257c0,10.854-3.049,9.097-3.049,9.097
		s-0.672,12.791-7.287,20.673c-4.213,4.238-0.956,7.753-0.956,7.753s-1.422,0.801-3.489,10.078
		c-0.672,3.023,3.204,7.648,6.538,6.486c2.507-0.854-6.073-1.705,3.204-5.607c3.593-1.525,0.672-4.367,0.672-4.367
		s6.021-0.491,9.433-9.588c5.995,0.879,3.773-2.791,16.1-5.453c3.282-0.723,3.979-1.705,3.566-4.779
		c-0.414-3.076,4.031,0.438,16.28-12.043c9.639-9.846,6.176-12.043,12.843-15.635c7.029-3.746,7.676,0.336,10.053-2.738
		c5.375-7.004,3.489-6.539,5.737-11.01l1.576-2.48C299.4,822.229,302.786,819.334,301.571,817.707"/>
	<path id="path13044" d="M239.99,723.719c-0.078,0.982-1.163,1.163-1.938,1.163l-0.413-1.964
		C238.62,722.841,239.214,723.306,239.99,723.719"/>
	<path id="path13046" d="M232.961,722.143c-3.152,0.698-6.461,0-9.406,2.352c-0.207-0.698-0.982-1.86-1.964-1.576h-1.163
		c2.739-2.249-1.576-4.6,3.127-4.678C227.171,718.318,229.808,720.877,232.961,722.143"/>
	<path id="path13048" d="M342.117,821.221c-20.26,63.105-77.216,112.18-149.392,112.18c-76.569,0-128.021-48.428-148.694-110.811
		c21.526,58.119,80.007,99.802,148.797,99.802C262.136,922.392,321.004,880.063,342.117,821.221z M43.695,724.96
		c20.363-62.925,68.532-111.56,149.03-111.56c74.812,0,129.777,49.28,149.728,112.929
		c-20.803-59.307-79.929-102.102-149.625-102.102C123.675,624.228,64.911,666.351,43.695,724.96"/>
	<path id="path13050" d="M-76.574,740.361h-24.55l3.67,4.368v32.224c0,7.262-4.807,10.312-11.965,10.312s-11.965-3.05-11.965-10.312
		v-32.224l3.67-4.368h-24.55l3.669,4.368v32.767c0,16.074,8.993,22.275,29.176,22.275s29.176-6.201,29.176-22.275v-32.767
		L-76.574,740.361"/>
	<path id="path13052" d="M8.628,740.361h-20.699l3.669,4.368v29.356l-29.692-33.724h-18.605l3.669,4.368v49.539l-3.669,4.367h20.699
		l-3.67-4.367v-29.873l31.527,34.24H4.958v-53.906L8.628,740.361"/>
	<path id="path13054" d="M56.332,798.635l-3.67-4.367v-49.539l3.67-4.367H31.627l3.67,4.367v49.539l-3.67,4.367H56.332"/>
	<path id="path13056" d="M137.863,740.361H117.06l3.669,4.368l-14.652,32.07l-14.161-32.07l3.67-4.368H71.113l27.186,58.273h12.146
		L137.863,740.361"/>
	<path id="path13058" d="M207.274,798.635V782.82l-4.367,3.669h-29.771V775.3h18.865l4.264,3.669v-18.941l-4.264,3.669h-18.865
		v-11.189h29.771l4.367,3.669v-15.815h-54.862l3.669,4.367v49.539l-3.669,4.367H207.274"/>
	<path id="path13060" d="M290.795,798.635l-15.815-22.973c7.778-3.153,13.205-9.174,13.205-17.651c0-9.69-5.943-17.65-22.533-17.65
		h-36.36l3.67,4.367v49.539l-3.67,4.367h24.369l-3.669-4.367v-16.514h7.339l11.189,16.514l-3.67,4.367H290.795L290.795,798.635z
		 M270.715,759.226c0,4.187-4.031,7.598-9.613,7.598H249.99v-14.316h13.206C267.046,752.507,270.715,754.419,270.715,759.226"/>
	<path id="path13062" d="M364.599,781.58c0-9.252-7.442-14.395-18.192-17.883c-6.978-2.196-16.85-3.773-16.85-8.398
		c0-2.274,2.714-3.851,7.417-3.851c6.306,0,16.616,2.636,24.653,6.46v-19.459l-4.651,4.445c-4.885-2.016-13.36-4.109-19.201-4.109
		c-19.847,0-26.203,8.734-26.203,16.694c0,10.828,7.158,15.531,18.425,19.485c8.373,2.868,16.151,3.127,16.151,7.933
		c0,4.109-4.807,4.627-7.235,4.627c-6.202,0-17.211-2.172-27.005-8.555v21.578l4.625-5.064c4.549,1.757,14.782,4.703,23.154,4.703
		C356.898,800.186,364.599,792.588,364.599,781.58"/>
	<path id="path13064" d="M451.712,798.635l-28.659-58.273h-19.64l2.093,4.368l-25.945,53.906h21.397l-3.67-4.367l2.895-6.125h27.78
		l2.791,6.125l-3.67,4.367H451.712L451.712,798.635z M423.673,777.651H404.37l9.613-20.88L423.673,777.651"/>
	<path id="path13066" d="M520.736,798.635V782.82l-4.367,3.669H488.33v-41.76l3.67-4.368H467.63l3.67,4.368v49.539l-3.67,4.367
		H520.736"/>
</g>
</svg>
