<?xml version="1.0" encoding="utf-8"?>
<!DOCTYPE svg PUBLIC "-//W3C//DTD SVG 1.1//EN" "http://www.w3.org/Graphics/SVG/1.1/DTD/svg11.dtd">
<svg version="1.1" id="Layer_1" xmlns="http://www.w3.org/2000/svg" xmlns:xlink="http://www.w3.org/1999/xlink" x="0px" y="0px"
	 width="400px" height="300px" viewBox="0 0 400 300" enable-background="new 0 0 400 300" xml:space="preserve">
<circle fill="#AAAAAA" stroke="#AAAAAA" stroke-miterlimit="10" cx="171.969" cy="216.469" r="3.969"/>
<circle fill="#AAAAAA" stroke="#AAAAAA" stroke-miterlimit="10" cx="249.969" cy="207.469" r="3.969"/>
<circle fill="#AAAAAA" stroke="#AAAAAA" stroke-miterlimit="10" cx="302.969" cy="179.469" r="3.969"/>
<circle fill="#AAAAAA" stroke="#AAAAAA" stroke-miterlimit="10" cx="224.969" cy="245.469" r="3.969"/>
<circle fill="#AAAAAA" stroke="#AAAAAA" stroke-miterlimit="10" cx="315.969" cy="271.469" r="3.969"/>
<circle fill="#AAAAAA" stroke="#AAAAAA" stroke-miterlimit="10" cx="394.969" cy="292.469" r="3.969"/>
<circle fill="#AAAAAA" stroke="#AAAAAA" stroke-miterlimit="10" cx="146.969" cy="148.469" r="3.969"/>
<circle fill="#AAAAAA" stroke="#AAAAAA" stroke-miterlimit="10" cx="81.907" cy="187.469" r="3.969"/>
<circle fill="#AAAAAA" stroke="#AAAAAA" stroke-miterlimit="10" cx="115.969" cy="117.469" r="3.969"/>
<circle fill="#AAAAAA" stroke="#AAAAAA" stroke-miterlimit="10" cx="82.938" cy="216.469" r="3.969"/>
<circle fill="#AAAAAA" stroke="#AAAAAA" stroke-miterlimit="10" cx="7.969" cy="187.469" r="3.969"/>
<circle fill="#AAAAAA" stroke="#AAAAAA" stroke-miterlimit="10" cx="55.5" cy="247.953" r="3.969"/>
<circle fill="#AAAAAA" stroke="#AAAAAA" stroke-miterlimit="10" cx="192.969" cy="90.469" r="3.969"/>
<circle fill="#AAAAAA" stroke="#AAAAAA" stroke-miterlimit="10" cx="41.969" cy="34.469" r="3.969"/>
<circle fill="#AAAAAA" stroke="#AAAAAA" stroke-miterlimit="10" cx="28.969" cy="10.469" r="3.969"/>
<circle fill="#AAAAAA" stroke="#AAAAAA" stroke-miterlimit="10" cx="5.969" cy="12.469" r="3.969"/>
<circle fill="#AAAAAA" stroke="#AAAAAA" stroke-miterlimit="10" cx="162.969" cy="22.469" r="3.969"/>
<circle fill="#AAAAAA" stroke="#AAAAAA" stroke-miterlimit="10" cx="248.969" cy="97.469" r="3.969"/>
<circle fill="#AAAAAA" stroke="#AAAAAA" stroke-miterlimit="10" cx="192.969" cy="52.469" r="3.969"/>
<circle fill="#AAAAAA" stroke="#AAAAAA" stroke-miterlimit="10" cx="302.969" cy="116.469" r="3.969"/>
<line fill="none" stroke="#AAAAAA" stroke-miterlimit="10" x1="146.969" y1="148.469" x2="171.969" y2="216.469"/>
<line fill="none" stroke="#AAAAAA" stroke-miterlimit="10" x1="171.969" y1="216.469" x2="249.969" y2="207.469"/>
<line fill="none" stroke="#AAAAAA" stroke-miterlimit="10" x1="249.969" y1="207.469" x2="224.969" y2="245.469"/>
<line fill="none" stroke="#AAAAAA" stroke-miterlimit="10" x1="224.969" y1="245.469" x2="315.969" y2="271.469"/>
<line fill="none" stroke="#AAAAAA" stroke-miterlimit="10" x1="315.969" y1="271.469" x2="394.969" y2="292.469"/>
<line fill="none" stroke="#AAAAAA" stroke-miterlimit="10" x1="315.969" y1="271.469" x2="249.969" y2="207.469"/>
<line fill="none" stroke="#AAAAAA" stroke-miterlimit="10" x1="171.969" y1="216.469" x2="224.969" y2="245.469"/>
<line fill="none" stroke="#AAAAAA" stroke-miterlimit="10" x1="171.969" y1="216.469" x2="51.531" y2="247.953"/>
<line fill="none" stroke="#AAAAAA" stroke-miterlimit="10" x1="55.5" y1="247.985" x2="82.938" y2="216.469"/>
<line fill="none" stroke="#AAAAAA" stroke-miterlimit="10" x1="82.938" y1="216.469" x2="7.969" y2="187.469"/>
<line fill="none" stroke="#AAAAAA" stroke-miterlimit="10" x1="7.969" y1="187.469" x2="55.5" y2="247.985"/>
<line fill="none" stroke="#AAAAAA" stroke-miterlimit="10" x1="82.938" y1="216.469" x2="81.907" y2="187.469"/>
<line fill="none" stroke="#AAAAAA" stroke-miterlimit="10" x1="81.907" y1="187.469" x2="146.969" y2="148.469"/>
<line fill="none" stroke="#AAAAAA" stroke-miterlimit="10" x1="146.969" y1="148.469" x2="115.969" y2="117.469"/>
<path fill="#AAAAAA" stroke="#AAAAAA" stroke-miterlimit="10" d="M7.969,187.469"/>
<path fill="#AAAAAA" stroke="#AAAAAA" stroke-miterlimit="10" d="M115.969,117.469"/>
<line fill="none" stroke="#AAAAAA" stroke-miterlimit="10" x1="115.969" y1="117.469" x2="41.969" y2="34.469"/>
<line fill="none" stroke="#AAAAAA" stroke-miterlimit="10" x1="41.969" y1="34.469" x2="5.969" y2="12.469"/>
<line fill="none" stroke="#AAAAAA" stroke-miterlimit="10" x1="41.969" y1="34.469" x2="29.564" y2="10.5"/>
<line fill="none" stroke="#AAAAAA" stroke-miterlimit="10" x1="41.969" y1="34.469" x2="162.969" y2="22.469"/>
<path fill="#AAAAAA" stroke="#AAAAAA" stroke-miterlimit="10" d="M41.969,34.469"/>
<path fill="#AAAAAA" stroke="#AAAAAA" stroke-miterlimit="10" d="M192.969,90.469"/>
<line fill="none" stroke="#AAAAAA" stroke-miterlimit="10" x1="115.969" y1="117.469" x2="192.969" y2="90.469"/>
<line fill="none" stroke="#AAAAAA" stroke-miterlimit="10" x1="192.969" y1="90.469" x2="146.969" y2="148.469"/>
<line fill="none" stroke="#AAAAAA" stroke-miterlimit="10" x1="192.5" y1="52" x2="192.5" y2="90"/>
<line fill="none" stroke="#AAAAAA" stroke-miterlimit="10" x1="192.5" y1="90" x2="248.5" y2="97"/>
<line fill="none" stroke="#AAAAAA" stroke-miterlimit="10" x1="302.969" y1="179.469" x2="249.969" y2="207.469"/>
<path fill="#AAAAAA" stroke="#AAAAAA" stroke-miterlimit="10" d="M302.969,179.469"/>
<path fill="#AAAAAA" stroke="#AAAAAA" stroke-miterlimit="10" d="M315.969,271.469"/>
<line fill="none" stroke="#AAAAAA" stroke-miterlimit="10" x1="394.969" y1="292.469" x2="302.969" y2="179.469"/>
<line fill="none" stroke="#AAAAAA" stroke-miterlimit="10" x1="394.969" y1="292.469" x2="290.969" y2="211.406"/>
<line fill="none" stroke="#AAAAAA" stroke-miterlimit="10" x1="290.5" y1="210.969" x2="302.5" y2="179"/>
<line fill="none" stroke="#AAAAAA" stroke-miterlimit="10" x1="302.5" y1="179" x2="302.5" y2="116"/>
<line fill="none" stroke="#AAAAAA" stroke-miterlimit="10" x1="302.969" y1="116.469" x2="248.969" y2="97.469"/>
<circle fill="#AAAAAA" stroke="#AAAAAA" stroke-miterlimit="10" cx="266.969" cy="59.469" r="3.969"/>
<line fill="none" stroke="#AAAAAA" stroke-miterlimit="10" x1="28.969" y1="10.469" x2="5.969" y2="12.469"/>
<line fill="none" stroke="#AAAAAA" stroke-miterlimit="10" x1="162.969" y1="22.469" x2="192.969" y2="52.469"/>
<line fill="none" stroke="#AAAAAA" stroke-miterlimit="10" x1="81.907" y1="187.469" x2="115.969" y2="117.469"/>
<path fill="#AAAAAA" stroke="#AAAAAA" stroke-miterlimit="10" d="M82.938,216.469"/>
<path fill="#AAAAAA" stroke="#AAAAAA" stroke-miterlimit="10" d="M115.969,117.469"/>
<line fill="none" stroke="#AAAAAA" stroke-miterlimit="10" x1="81.907" y1="187.469" x2="171.969" y2="216.469"/>
<circle fill="#AAAAAA" stroke="#AAAAAA" stroke-miterlimit="10" cx="290.969" cy="211.438" r="3.969"/>
<line fill="none" stroke="#AAAAAA" stroke-miterlimit="10" x1="302.969" y1="116.469" x2="266.969" y2="59.469"/>
<line fill="none" stroke="#AAAAAA" stroke-miterlimit="10" x1="266.969" y1="59.469" x2="248.969" y2="97.469"/>
<line fill="none" stroke="#AAAAAA" stroke-miterlimit="10" x1="266.969" y1="59.469" x2="192.969" y2="90.469"/>
<path fill="#AAAAAA" stroke="#AAAAAA" stroke-miterlimit="10" d="M192.969,90.469"/>
<path fill="#AAAAAA" stroke="#AAAAAA" stroke-miterlimit="10" d="M290.969,211.406"/>
<path fill="#AAAAAA" stroke="#AAAAAA" stroke-miterlimit="10" d="M290.969,211.406"/>
<path fill="#AAAAAA" stroke="#AAAAAA" stroke-miterlimit="10" d="M146.969,148.469"/>
<path fill="none" stroke="#AAAAAA" stroke-miterlimit="10" d="M248.969,97.469"/>
<path fill="none" stroke="#AAAAAA" stroke-miterlimit="10" d="M171.969,216.469"/>
<line fill="none" stroke="#AAAAAA" stroke-miterlimit="10" x1="171.969" y1="216.469" x2="82.938" y2="216.469"/>
<line fill="none" stroke="#AAAAAA" stroke-miterlimit="10" x1="315.969" y1="271.469" x2="290.969" y2="211.406"/>
<path fill="none" stroke="#AAAAAA" stroke-miterlimit="10" d="M290.969,211.406"/>
<path fill="none" stroke="#AAAAAA" stroke-miterlimit="10" d="M248.969,97.469"/>
<line fill="none" stroke="#AAAAAA" stroke-miterlimit="10" x1="7.969" y1="187.469" x2="81.907" y2="187.469"/>
<line fill="none" stroke="#AAAAAA" stroke-miterlimit="10" x1="290.969" y1="211.406" x2="249.969" y2="207.469"/>
<line fill="none" stroke="#AAAAAA" stroke-miterlimit="10" x1="249.969" y1="207.469" x2="146.969" y2="148.469"/>
<line fill="none" stroke="#AAAAAA" stroke-miterlimit="10" x1="302.969" y1="179.469" x2="248.969" y2="97.469"/>
<path fill="none" stroke="#AAAAAA" stroke-miterlimit="10" d="M192.969,90.469"/>
<path fill="none" stroke="#AAAAAA" stroke-miterlimit="10" d="M249.969,207.469"/>
<line fill="none" stroke="#AAAAAA" stroke-miterlimit="10" x1="248.969" y1="97.469" x2="249.969" y2="207.469"/>
<line fill="none" stroke="#AAAAAA" stroke-miterlimit="10" x1="248.969" y1="97.469" x2="146.969" y2="148.469"/>
<circle fill="#AAAAAA" stroke="#AAAAAA" stroke-miterlimit="10" cx="104.969" cy="56.469" r="3.969"/>
<line fill="none" stroke="#AAAAAA" stroke-miterlimit="10" x1="192.865" y1="90" x2="104.969" y2="56.469"/>
<line fill="none" stroke="#AAAAAA" stroke-miterlimit="10" x1="104.969" y1="56.469" x2="162.969" y2="22.469"/>
<line fill="none" stroke="#AAAAAA" stroke-miterlimit="10" x1="115.969" y1="117.469" x2="104.969" y2="56.469"/>
<line fill="none" stroke="#AAAAAA" stroke-miterlimit="10" x1="104.969" y1="56.469" x2="41.969" y2="34.469"/>
<line fill="none" stroke="#AAAAAA" stroke-miterlimit="10" x1="104.969" y1="56.469" x2="192.969" y2="52.469"/>
</svg>
