<?xml version="1.0" encoding="utf-8"?>
<!DOCTYPE svg PUBLIC "-//W3C//DTD SVG 1.0//EN" "http://www.w3.org/TR/2001/REC-SVG-20010904/DTD/svg10.dtd">
<svg version="1.0" id="Layer_1" xmlns="http://www.w3.org/2000/svg" xmlns:xlink="http://www.w3.org/1999/xlink" x="0px" y="0px"
	 width="1500px" height="200px" viewBox="0 0 1500 200" enable-background="new 0 0 1500 200" xml:space="preserve">
<radialGradient id="SVGID_1_" cx="8.2881" cy="6.9307" r="78.0024" gradientTransform="matrix(1.0192 0 0 -1.0192 170.0532 107.5635)" gradientUnits="userSpaceOnUse">
	<stop  offset="0.2742" style="stop-color:#FFFFFF"/>
	<stop  offset="0.4421" style="stop-color:#FEF1CB"/>
	<stop  offset="0.5821" style="stop-color:#FDE7A5"/>
	<stop  offset="0.6559" style="stop-color:#FDE397"/>
	<stop  offset="0.693" style="stop-color:#FCE089"/>
	<stop  offset="0.903" style="stop-color:#F8D13E"/>
	<stop  offset="1" style="stop-color:#F7CB20"/>
</radialGradient>
<circle fill="url(#SVGID_1_)" cx="178.5" cy="100.5" r="79.5"/>
<g>
	<circle fill="#3B1B7C" cx="322.658" cy="44.053" r="15"/>
	<circle fill="#3B1B7C" cx="57.478" cy="145.56" r="4.5"/>
	<circle fill="#3B1B7C" cx="85.754" cy="134.735" r="6"/>
	<circle fill="#3B1B7C" cx="118.701" cy="122.125" r="7.5"/>
	<circle fill="#3B1B7C" cx="153.515" cy="108.798" r="9"/>
	<circle fill="#3B1B7C" cx="194.867" cy="92.969" r="10.5"/>
	<circle fill="#3B1B7C" cx="235.285" cy="77.498" r="11.999"/>
	<circle fill="#3B1B7C" cx="277.571" cy="61.311" r="13.5"/>
	<circle fill="#3B1B7C" cx="36.672" cy="153.523" r="3"/>
	<circle fill="#3B1B7C" cx="19.913" cy="160.239" r="1.5"/>
</g>
<polyline fill="none" stroke="#462866" stroke-width="18" stroke-linecap="round" stroke-linejoin="round" stroke-miterlimit="10" points="
	555,24 629.81,174 705,24 "/>
<polyline fill="none" stroke="#462866" stroke-width="18" stroke-linecap="round" stroke-linejoin="round" stroke-miterlimit="10" points="
	705,174 779.223,24 855,174 "/>
<polyline fill="none" stroke="#462866" stroke-width="18" stroke-linecap="round" stroke-linejoin="round" stroke-miterlimit="10" points="
	902,24 902,174 1003,174 "/>
<polyline fill="none" stroke="#462866" stroke-width="18" stroke-linecap="round" stroke-linejoin="round" stroke-miterlimit="10" points="
	1147,24 1048,24 1048,174 1147,174 "/>
<polyline fill="none" stroke="#462866" stroke-width="18" stroke-linecap="round" stroke-linejoin="round" stroke-miterlimit="10" points="
	1316,24 1316,174 1197,24 1197,174 "/>
<line fill="none" stroke="#462866" stroke-width="18" stroke-linecap="round" stroke-linejoin="round" stroke-miterlimit="10" x1="1360" y1="24" x2="1473" y2="24"/>
<line fill="none" stroke="#462866" stroke-width="18" stroke-linecap="round" stroke-linejoin="round" stroke-miterlimit="10" x1="1417" y1="174" x2="1417" y2="24"/>
<line fill="none" stroke="#462866" stroke-width="18" stroke-linecap="round" stroke-linejoin="round" stroke-miterlimit="10" x1="1048" y1="98" x2="1134" y2="98"/>
<line fill="none" stroke="#462866" stroke-width="18" stroke-linecap="round" stroke-linejoin="round" stroke-miterlimit="10" x1="726" y1="132" x2="834" y2="132"/>
<line fill="none" stroke="#462866" stroke-width="18" stroke-linecap="round" stroke-linejoin="round" stroke-miterlimit="10" x1="481.001" y1="132" x2="524.668" y2="176"/>
<circle fill="none" stroke="#462866" stroke-width="18" stroke-linecap="round" stroke-linejoin="round" stroke-miterlimit="10" cx="452.454" cy="100.069" r="76"/>
</svg>
