<?xml version="1.0" encoding="iso-8859-1"?>
<svg version="1.2" baseProfile="tiny" id="Layer_1" xmlns="http://www.w3.org/2000/svg" xmlns:xlink="http://www.w3.org/1999/xlink"
	 x="0px" y="0px" width="50px" height="50px" viewBox="0 0 50 50" xml:space="preserve">
<g>
	<g>
		<path fill="#C31425" d="M9.251,19.114c0-8.609,6.98-15.59,15.59-15.59c8.611,0,15.592,6.98,15.592,15.59
			c0,8.613-6.98,15.591-15.592,15.591C16.231,34.705,9.251,27.727,9.251,19.114 M24.841,28.09c4.957,0,8.977-4.019,8.977-8.976
			c0-4.955-4.02-8.975-8.977-8.975c-4.955,0-8.973,4.02-8.973,8.975C15.868,24.071,19.886,28.09,24.841,28.09"/>
		<path fill="#FFD300" d="M39.442,13.575c-0.738-1.939-1.854-3.695-3.252-5.176c-0.938-0.562-2.033-0.928-3.24-1.093
			c-0.441-0.554-0.961-1.038-1.559-1.44c-2.475-1.663-6.008-1.758-9.691-0.26c-6.191,2.515-11.363,8.937-12.373,14.965
			c-0.02,0.402,0.318,2.406,0.727,3.518c-0.057-0.42-0.072-0.898-0.072-1.35C9.97,16.421,15.407,9.067,22.103,6.348
			c3.426-1.393,6.664-1.333,8.889,0.162c0.311,0.208,0.596,0.445,0.857,0.703c-1.154-0.041-2.391,0.086-3.674,0.392
			c-2.48,0.591-4.895,1.778-7.027,3.341c0.475-0.216,0.969-0.393,1.482-0.524c1.756-1.106,3.666-1.948,5.615-2.411
			c1.416-0.338,2.77-0.451,4.012-0.355c0.465,0.559,0.832,1.207,1.1,1.93c-1.945-0.389-4.207-0.133-6.539,0.779
			c0.227,0.051,0.428,0.104,0.648,0.172c2.164-0.756,4.256-0.925,6.035-0.514c0.238,0.787,0.363,1.65,0.365,2.577
			c0.01,6.317-5.43,13.672-12.125,16.393c-1.277,0.518-2.529,0.836-3.713,0.951c-0.768-0.314-1.453-0.736-2.033-1.27
			c-0.529-0.486-0.959-1.053-1.289-1.684c0.025-1.904,0.523-3.855,1.416-5.785c-0.051-0.213-0.098-0.418-0.133-0.635
			c-0.92,1.852-1.488,3.736-1.643,5.589c-0.42-1.183-0.531-2.544-0.309-4.015c0.281-1.854,1.027-3.68,2.162-5.436
			c0.15-0.523,0.346-1.052,0.582-1.533c-1.676,2.168-2.801,4.555-3.16,6.936c-0.287,1.893-0.045,3.615,0.68,5.035
			c0,0.008,0,0.018,0,0.025c0,0.875,0.109,1.709,0.309,2.48c-0.635-0.193-1.227-0.465-1.758-0.822
			c-0.141-0.096-0.301-0.182-0.434-0.287c0.467,0.615,0.957,1.18,1.508,1.719c0.313,0.117,0.637,0.213,0.971,0.291
			c0.125,0.324,0.268,0.633,0.43,0.924c0.303,0.236,0.623,0.479,0.967,0.676c-0.352-0.445-0.648-0.947-0.889-1.496
			c1.07,0.188,2.229,0.191,3.436,0.01c1.744,0.473,3.797,0.469,5.984-0.053c6.068-1.447,11.734-6.445,13.824-11.826
			c-0.773,5.92-5.842,12.32-11.975,14.812c-1.334,0.541-2.656,0.867-3.891,0.971c0.566,0.076,1.15,0.117,1.734,0.131
			c0.754-0.17,1.527-0.416,2.307-0.73c6.811-2.77,12.342-10.277,12.33-16.736c0-0.006,0-0.01,0-0.014
			c0.094-0.372,0.17-0.744,0.227-1.115C39.515,15.221,39.534,14.372,39.442,13.575z M15.081,29.777
			c-0.182-0.6-0.305-1.24-0.354-1.914c0.279,0.406,0.6,0.783,0.969,1.123c0.426,0.393,0.904,0.725,1.424,1.004
			C16.405,29.996,15.722,29.928,15.081,29.777z M24.755,30.207c-1.744,0.418-3.396,0.496-4.863,0.256
			c0.74-0.174,1.492-0.412,2.248-0.719c6.922-2.813,12.545-10.457,12.535-17.039c-0.002-0.857-0.102-1.666-0.289-2.419
			c0.504,0.185,0.979,0.419,1.412,0.71c1.873,1.26,2.92,3.432,2.955,6.119C37.31,22.922,31.271,28.656,24.755,30.207z
			 M36.021,10.665c-0.537-0.359-1.129-0.639-1.764-0.846c-0.229-0.741-0.547-1.422-0.953-2.031c1.461,0.27,2.727,0.859,3.705,1.756
			c1.566,1.443,2.273,3.58,2.016,6.059C38.677,13.473,37.64,11.753,36.021,10.665z"/>
	</g>
	<path fill="#C31425" d="M12.438,45.031c-1.697,0-3.188-0.967-3.188-3.451c0-2.496,1.52-3.422,3.188-3.422
		c1.645,0,3.176,0.926,3.176,3.422C15.614,44.064,14.136,45.031,12.438,45.031z M12.438,39.428c-0.91,0-1.408,0.703-1.408,2.152
		c0,1.479,0.498,2.18,1.408,2.18c0.898,0,1.395-0.701,1.395-2.18C13.833,40.131,13.337,39.428,12.438,39.428z M32.964,38.199
		c0,0-0.195-0.041-0.648-0.041c-0.188,0-0.654,0.016-0.9,0.346c-0.217,0.285-0.217,0.652-0.217,1.242v5.203
		c0,0,0.193,0.041,0.646,0.041c0.188,0,0.654-0.016,0.902-0.344c0.217-0.289,0.217-0.652,0.217-1.244V38.199z M21.396,44.949
		c0,0,0.191,0.041,0.646,0.041c0.188,0,0.654-0.016,0.9-0.344c0.217-0.289,0.217-0.652,0.217-1.244v-5.203
		c0,0-0.193-0.041-0.646-0.041c-0.188,0-0.654,0.016-0.902,0.346c-0.215,0.285-0.215,0.652-0.215,1.242V44.949z M20.386,38.297
		c-0.109-0.096-0.262-0.139-0.496-0.139c-0.465,0-1.123,0.398-1.639,1.16v-1.119c0,0-0.178-0.041-0.633-0.041
		c-0.186,0-0.652,0.016-0.9,0.346c-0.215,0.285-0.215,0.652-0.215,1.242v5.203c0,0,0.191,0.041,0.646,0.041
		c0.188,0,0.652-0.016,0.902-0.344c0.215-0.289,0.215-0.652,0.215-1.244v-2.961c0.895-0.838,1.51-0.996,2.217-0.848
		C20.579,38.586,20.511,38.436,20.386,38.297z M39.017,38.254c-0.211-0.063-0.445-0.096-0.707-0.096
		c-1.031,0-1.84,0.611-2.371,1.145v-1.104c0,0-0.178-0.041-0.633-0.041c-0.188,0-0.654,0.016-0.9,0.346
		c-0.215,0.285-0.215,0.652-0.215,1.242v5.203c0,0,0.191,0.041,0.645,0.041c0.189,0,0.654-0.016,0.904-0.344
		c0.215-0.289,0.215-0.652,0.215-1.244v-2.959c0.469-0.428,1.086-0.893,1.65-0.893s0.83,0.311,0.867,1.113v4.285
		c0,0,0.191,0.041,0.645,0.041c0.188,0,0.654-0.016,0.902-0.344c0.217-0.289,0.217-0.652,0.217-1.244v-3.369
		C40.235,39.162,39.696,38.455,39.017,38.254z M27.921,43.65l-1.27-0.055c-0.523-0.027-0.689-0.125-0.689-0.346
		c0-0.137,0.068-0.303,0.316-0.496c0.234,0.055,0.539,0.07,0.801,0.07c1.711,0,2.773-0.803,2.773-2.264
		c0-0.441-0.096-0.736-0.289-1.035c-0.063-0.092-0.131-0.158-0.199-0.203c0.346-0.002,0.566-0.01,0.742-0.143
		c0.217-0.162,0.227-0.471,0.227-0.596c0-0.297-0.025-0.424-0.025-0.424c-1.381,0.082-1.545,0-3.174,0
		c-1.725,0-2.842,0.787-2.842,2.387c0,0.938,0.428,1.6,1.076,1.932c-0.469,0.33-0.842,0.744-0.842,1.254
		c0,0.449,0.277,0.898,1,1.082c-0.084,0.021-0.184,0.051-0.297,0.092c-0.574,0.207-1.145,0.703-1.145,1.449
		c-0.014,1.104,1.063,1.684,2.828,1.684c2.443,0,3.492-0.885,3.492-2.443C30.405,44.658,29.839,43.719,27.921,43.65z M27.079,39.348
		c0.814,0,1.145,0.482,1.145,1.186c0,0.662-0.33,1.174-1.145,1.174c-0.828,0-1.146-0.496-1.146-1.201
		C25.933,39.787,26.251,39.348,27.079,39.348z M26.983,46.756c-0.855,0-1.41-0.193-1.41-0.76c0-0.371,0.223-0.703,0.789-1.006
		l1.172,0.041c0.938,0.041,1.27,0.25,1.27,0.719C28.804,46.453,28.06,46.756,26.983,46.756z"/>
</g>
<g>
</g>
<g>
</g>
<g>
</g>
<g>
</g>
<g>
</g>
<g>
</g>
<g>
</g>
<g>
</g>
<g>
</g>
<g>
</g>
<g>
</g>
<g>
</g>
<g>
</g>
<g>
</g>
<g>
</g>
</svg>
