<?xml version="1.0" encoding="UTF-8" standalone="no"?>
<!-- Created with Inkscape (http://www.inkscape.org/) -->

<svg
   xmlns:svg="http://www.w3.org/2000/svg"
   xmlns="http://www.w3.org/2000/svg"
   version="1.1"
   width="300"
   height="106"
   id="svg5335">
  <defs
     id="defs5337" />
  <g
     transform="translate(-447.19786,-496.71933)"
     id="layer1">
    <path
       d="m 447.36286,549.71933 c 0,28.95 23.5575,52.5 52.51875,52.5 28.95375,0 52.51125,-23.55 52.51125,-52.5 0,-28.95 -23.5575,-52.5 -52.51125,-52.5 -28.96125,0 -52.51875,23.55 -52.51875,52.5"
       id="path32"
       style="fill:#ffffff;fill-opacity:1;fill-rule:nonzero;stroke:none" />
    <path
       d="m 550.02286,549.71933 c 0,27.675 -22.45875,50.1375 -50.14125,50.1375 -27.6825,0 -50.14125,-22.4625 -50.14125,-50.1375 0,-27.675 22.45875,-50.1375 50.14125,-50.1375 27.6825,0 50.14125,22.4625 50.14125,50.1375"
       id="path34"
       style="fill:#ed1b2e;fill-opacity:1;fill-rule:nonzero;stroke:none" />
    <path
       d="m 499.85161,499.58183 c -27.675,0.0375 -50.11125,22.4625 -50.11125,50.1375 0,16.4625 7.94625,31.0875 20.20875,40.2375 l 29.9025,-90.375"
       id="path36"
       style="fill:#004c5f;fill-opacity:1;fill-rule:nonzero;stroke:none" />
    <path
       d="m 488.98036,532.24433 -35.46,0 28.62,20.7 6.84,-20.7"
       id="path38"
       style="fill:#ffffff;fill-opacity:1;fill-rule:nonzero;stroke:none" />
    <path
       d="m 499.88161,499.58183 -10.8675,32.6625 23.03625,0 -12.16875,-32.6625"
       id="path40"
       style="fill:#ffffff;fill-opacity:1;fill-rule:nonzero;stroke:none" />
    <path
       d="m 482.13286,552.94433 -11.91,36.1125 29.65875,-22.125 32.205,21.6 -12.25125,-35.625 26.9325,-20.6625 -64.635,20.7"
       id="path42"
       style="fill:#ffffff;fill-opacity:1;fill-rule:nonzero;stroke:none" />
    <path
       d="m 603.55786,566.85683 13.0125,-34.6875 7.56,0 12.74625,34.6875 -7.785,0 -8.73,-25.875 -8.59875,25.875 -8.205,0"
       id="path72"
       style="fill:#004c5f;fill-opacity:1;fill-rule:nonzero;stroke:none" />
    <path
       d="m 612.78661,566.85683 7.575,-6.075 7.4475,6.075 -15.0225,0"
       id="path74"
       style="fill:#004c5f;fill-opacity:1;fill-rule:nonzero;stroke:none" />
    <path
       d="m 640.87786,532.16933 7.6275,0 0,28.35 12.0375,0 0,6.3375 -19.665,0 0,-34.6875"
       id="path76"
       style="fill:#004c5f;fill-opacity:1;fill-rule:nonzero;stroke:none" />
    <path
       d="m 657.59911,532.16933 24.54375,0 0,6.2625 -8.58375,0 0,28.5 -7.8,0 0,-28.5 -8.16,0 0,-6.2625"
       id="path78"
       style="fill:#004c5f;fill-opacity:1;fill-rule:nonzero;stroke:none" />
    <path
       d="m 687.04786,532.24433 19.32,0 0,6.1875 -11.77125,0 0,7.65 11.0925,0 0,6.2625 -11.0925,0 0,8.1 15.07875,0 -5.16,6.4875 -17.4675,0 0,-34.6875"
       id="path80"
       style="fill:#004c5f;fill-opacity:1;fill-rule:nonzero;stroke:none" />
    <path
       d="m 712.49161,532.24433 10.005,0 5.56125,9.7125 5.4375,-9.7125 9.975,0 -10.86375,15.75 14.42625,18.9375 -9.675,0 -9.0225,-12.3375 -9.24,12.3375 -9.7575,0 14.1825,-18.8625 -11.02875,-15.825"
       id="path82"
       style="fill:#004c5f;fill-opacity:1;fill-rule:nonzero;stroke:none" />
    <path
       d="m 601.23286,541.43183 0,-7.575 c -8.4075,-3.9375 -17.2425,-1.1625 -22.6575,7.1625 -3.8475,6.6 -3.3375,13.125 1.53,19.65 4.2075,5.2125 11.19,7.8375 21.1275,5.4 l 0,-7.9875 c -6.26625,3.3375 -13.5975,1.875 -16.53,-3.2625 -3.25875,-7.8375 1.26375,-15.1125 7.59375,-15.7125 3.285,-0.2625 6.6,0.375 8.93625,2.325"
       id="path84"
       style="fill:#004c5f;fill-opacity:1;fill-rule:nonzero;stroke:none" />
  </g>
</svg>
