<?xml version="1.0" encoding="utf-8"?>
<!DOCTYPE svg PUBLIC "-//W3C//DTD SVG 1.0//EN" "http://www.w3.org/TR/2001/REC-SVG-20010904/DTD/svg10.dtd">
<svg version="1.0" xmlns="http://www.w3.org/2000/svg" xmlns:xlink="http://www.w3.org/1999/xlink" x="0px" y="0px"
	 width="1024px" height="1024px" viewBox="0 0 1024 1024" enable-background="new 0 0 1024 1024" xml:space="preserve">
<defs><g id="wiz"><path d="M822.813,425.94c4.021-4.055,12.273-10.393,12.445-16.698c0.174-6.307,1.314-18.244,1.314-18.244s-0.301,0.128-0.873,0.362
	l-0.129,0.292c0,0-24.906,14.586-67.83,19.254c-42.93,4.67-75.539,6.896-110.79-26.315c-35.254-33.212-16.75-80.78-16.75-80.78
	s9.441,36.003,56.39,67.06c46.947,31.058,133.678,16.856,142.119,13.73c0,0,11.814-19.638,14.838-32.458
	c23.566,3.937,44.086,6.706,58.008,12.313c32.25,12.984-8.133-65.875-43.277-127.151c28.547-29.01,60.408-62.968,60.088-69.38
	c0,0,41.248-53.596,42.885-73.722c14.518,9.107,30.545,11.038,30.285,15.019c0,0,8.318,9.825,10.992,8.081
	c2.672-1.744-0.422-24.002-4.475-28.025c-4.055-4.024-50.535-58.454-68.201-51.213c-17.664,7.242-71.033,36.43-73.498,50.902
	c-6.266-4.704-53.094,6.642-93.217,17.459C720.222,57.443,660.114,29.613,651.24,66.213c-6.232,25.696-9.018,61.94-2.318,100.556
	l-0.002,0.002c-24.629,31.597-24.832,92.633-24.832,92.633l-0.174-0.12c-2.326,4.932,1.32,25.01-9.988,27.618
	c-12.422,2.867-23.691,14.983-29.098,21.846c12.242-10.074,21.906-10.966,24.971-7.726c0,0-5.066,11.983-16.934,22.961
	c9.785-3.35,18.082-8.466,18.082-8.466s-3.9,6.835-23.281,19.481c-4.037,5.491-7.355,13.554-11.371,19.807
	c0,0,16.703-21.858,25.668-21.991c0,0-13.318,15.361-22.309,29.327c11.266-9.42,15.541-16.336,20.191-16.513
	c0,0-13.422,14.478-19.813,22.936c6.43-4.987,11.346-5.977,11.346-5.977s-15.773,17.44-19.303,27.365
	c11.174-10.624,14.076-13.474,19.279-13.532c0,0-15.703,10.248-21.961,27.67c5.373-6.363,8.381-8.326,12.158-9.84
	c0,0-13.273,22.003-14.973,25.97c-1.697,3.967,11.635-12.834,16.967-14.885c-7.822,11.404-13.885,16.685-17.168,24.067
	c0,0,11.84-11.06,19.844-14.854c-3.902,6.904-11.955,11.612-20.129,32.671c0,0,20.201-28.906,43.799-31.442
	c-14.791,7.269-21.246,16.725-21.246,16.725s19.895-14.414,24.953-11.044c5.055,3.369-7.658,2.139-14.035,9.158
	c-6.375,7.02-18.686,13.704-21.609,16.524c-2.926,2.822,34.684-21.243,40.523-18.863c0,0-8.783,7.64-14.334,9.354
	c-5.551,1.717,25.949-5.499,29.043-5.138c3.096,0.361-20.195,5.557-24.682,11.82c18.635,0.269,36.004-3.962,48.063-3.734
	c0,0-20.572,10.09-25.914,24.533c22.18-27.337,54.683-24.252,54.683-24.252s-20.514,4.337-22.053,14.393
	c11.58-7.081,17.332-7.024,17.332-7.024s17.166-2.838,24.715-6.325c-4.787,2.941-13.898,8.162-21.43,9.899
	c13.873,0.411,21.135,0.501,31.119-2.204c0,0-0.953,6.813-0.75,8.585c0.205,1.773,8.775-3.344,13.701-8.938
	c4.922-5.597-2.541,10.708-1.043,15.925c6.373-17.977,14.115-28.744,19.725-25.258c0,0-5.67,6.998-9.354,8.484
	c6.25-1.805,12.406-3.809,12.406-3.809s21.678,1.099,28.129-2.158c0.828,5.651-5.205,8.637-5.205,8.637l-1.395,0.963
	c0,0,16.801-0.536,27.854-10.607c-6.416,10.402-11.08,12.948-9.465,17.613c0,0,8.094-11.69,13.705-14.771
	c5.611-3.079,3.779-8.078,9.33-9.794c5.551-1.717,2.166,4.78,3.025,7.555C816.542,444.8,818.79,429.995,822.813,425.94z
	 M837.022,349.223c-19.771,12.128-66.436,27.141-87.182,8.094c-23.961-21.998-4.701-39.809-4.701-39.809s0.359,0.048,1.033,0.139
	C775.728,335.368,807.925,343.733,837.022,349.223z M708.286,157.295c-2.494-19.781-0.143-36.154-0.143-36.154
	s-0.299,17.119,2.121,36.095c2.234,17.524,10.584,45.064,28.225,72.701c22.615,35.451,42.686,46.173,56.098,51.438
	c14.867,5.835,34.316,0.199,34.316,0.199s-14.252,6.962-31.182,3.125c-21.654-4.911-42.172-22.029-61.006-50.888
	c-0.424-0.65-0.844-1.302-1.266-1.963C717.153,203.186,710.579,175.485,708.286,157.295z M659.716,265.22
	c-13.937-14.728-10.425-43.154-2.95-65.37c7.981,24.449,20.427,49.24,38.903,72.741C689.288,276.916,675.747,282.161,659.716,265.22
	z"/></g></defs>
<use xlink:href="#wiz" x="0" y="0"/>
<use xlink:href="#wiz" x="0" y="0" transform="rotate(90 512 512)"/>
<use xlink:href="#wiz" x="0" y="0" transform="rotate(180 512 512)"/>
<use xlink:href="#wiz" x="0" y="0" transform="rotate(270 512 512)"/>
</svg>
